<?xml version="1.0" standalone="no"?>
<!DOCTYPE svg PUBLIC "-//W3C//DTD SVG 20010904//EN"
 "http://www.w3.org/TR/2001/REC-SVG-20010904/DTD/svg10.dtd">
<svg version="1.0" xmlns="http://www.w3.org/2000/svg"
 width="592.000000pt" height="592.000000pt" viewBox="0 0 592.000000 592.000000"
 preserveAspectRatio="xMidYMid meet">
<metadata>
Created by potrace 1.11, written by Peter Selinger 2001-2013
</metadata>
<g transform="translate(0.000000,592.000000) scale(0.100000,-0.100000)"
fill="#000000" stroke="none">
<path d="M2670 5909 c-324 -13 -682 -103 -920 -232 -133 -71 -234 -135 -260
-162 l-25 -27 25 7 c45 13 9 -10 -130 -85 -125 -67 -251 -150 -280 -185 -7 -8
-17 -15 -23 -15 -6 0 -1 10 11 23 71 76 -47 -2 -176 -116 -54 -48 -98 -99
-130 -149 -27 -42 -75 -105 -107 -140 -114 -122 -206 -261 -299 -446 -109
-218 -161 -357 -186 -497 -4 -22 -15 -58 -25 -79 -9 -22 -26 -69 -37 -105 -11
-36 -24 -70 -28 -76 -9 -12 -35 -139 -50 -250 -15 -108 -31 -664 -21 -723 72
-412 129 -672 155 -702 8 -8 36 -69 64 -135 151 -359 220 -485 365 -665 106
-131 307 -329 452 -443 61 -48 116 -92 122 -97 7 -6 15 -9 17 -8 3 2 12 -6 20
-17 8 -11 18 -20 23 -20 5 0 15 -6 23 -13 54 -46 77 -62 88 -62 6 0 12 -3 12
-7 0 -13 61 -43 72 -36 7 3 8 1 4 -5 -4 -7 36 -34 101 -71 60 -33 105 -61 100
-61 -4 0 -49 21 -99 46 -51 26 -86 39 -78 29 18 -21 114 -70 266 -133 440
-185 916 -274 1305 -243 84 7 175 17 203 22 28 6 105 14 171 19 208 14 482 98
737 226 59 30 113 54 119 54 25 0 233 127 336 204 121 90 378 336 487 466 138
163 241 309 367 516 154 255 231 450 290 732 29 136 31 166 36 402 3 194 1
251 -7 240 -10 -12 -11 -11 -4 5 32 83 -5 469 -72 740 -25 99 -67 234 -85 267
-5 10 -9 23 -9 29 0 6 -7 27 -16 47 -9 21 -20 47 -25 60 -5 12 -14 34 -21 50
-7 15 -13 29 -14 32 -2 3 1 12 5 19 11 16 39 -32 70 -119 13 -36 45 -117 71
-180 54 -130 86 -239 95 -320 3 -30 12 -107 20 -170 9 -63 19 -173 24 -245 5
-71 14 -141 18 -154 9 -22 11 -20 32 30 55 126 82 351 57 469 -17 78 -112 392
-172 566 -105 303 -288 585 -611 939 -380 416 -856 714 -1388 868 -278 81
-329 88 -634 90 -152 1 -346 -1 -431 -4z m23 -136 c-7 -2 -19 -2 -25 0 -7 3
-2 5 12 5 14 0 19 -2 13 -5z m2359 -918 c47 -57 30 -40 -102 100 -91 96 -91
97 -17 25 43 -41 97 -97 119 -125z m-2114 123 c8 -8 12 -58 12 -158 0 -158 -4
-170 -52 -170 -40 0 -48 28 -48 170 0 142 8 170 48 170 15 0 33 -5 40 -12z
m-771 -146 c16 -10 113 -246 113 -275 0 -49 -58 -65 -85 -23 -20 30 -105 241
-105 260 0 33 48 57 77 38z m1537 -8 c9 -8 16 -21 16 -28 0 -24 -102 -261
-118 -273 -24 -20 -50 -15 -67 11 -15 22 -13 31 36 152 28 71 55 135 61 142
14 17 53 15 72 -4z m1411 -44 c10 -11 16 -20 13 -20 -3 0 -13 9 -23 20 -10 11
-16 20 -13 20 3 0 13 -9 23 -20z m76 -97 c13 -16 12 -17 -3 -4 -10 7 -18 15
-18 17 0 8 8 3 21 -13z m99 -135 c62 -93 70 -111 45 -102 -8 4 -12 10 -9 15 3
5 -24 52 -61 105 -36 54 -59 91 -50 84 9 -7 43 -53 75 -102z m-3679 -245 c53
-54 99 -105 102 -114 8 -24 -20 -59 -46 -59 -27 0 -227 196 -227 222 0 9 7 24
16 32 31 32 57 19 155 -81z m2743 75 c9 -12 16 -27 16 -32 0 -5 -46 -55 -102
-112 -81 -82 -108 -104 -130 -104 -26 0 -48 23 -48 51 0 6 46 58 102 115 108
110 134 123 162 82z m1019 -25 c-7 -2 -19 -2 -25 0 -7 3 -2 5 12 5 14 0 19 -2
13 -5z m-4950 -196 c3 -8 -1 -14 -8 -14 -7 0 -11 6 -8 14 3 7 6 13 8 13 2 0 5
-6 8 -13z m1814 -83 c-3 -3 -12 -4 -19 -1 -8 3 -5 6 6 6 11 1 17 -2 13 -5z
m80 0 c-3 -3 -12 -4 -19 -1 -8 3 -5 6 6 6 11 1 17 -2 13 -5z m86 -11 c-7 -2
-19 -2 -25 0 -7 3 -2 5 12 5 14 0 19 -2 13 -5z m1242 -3 c21 -5 6 -8 -54 -9
-112 -1 -100 -14 82 -85 78 -31 161 -71 184 -89 173 -134 226 -194 280 -314
40 -89 53 -150 53 -246 0 -301 -189 -614 -655 -1083 -72 -72 -146 -139 -165
-149 -19 -10 -84 -54 -145 -98 -60 -45 -158 -116 -216 -158 l-106 -77 -84 50
c-46 28 -100 65 -119 82 -20 18 -81 64 -136 103 -113 81 -237 189 -404 354
-324 320 -526 639 -561 887 -8 58 -7 90 6 159 9 48 23 99 30 113 8 15 11 30 8
33 -3 4 -1 13 6 20 6 8 23 36 37 63 85 160 235 294 388 346 42 14 45 16 16 13
l-35 -5 33 15 c44 21 173 31 220 17 136 -38 191 -58 282 -103 56 -27 105 -48
107 -46 9 9 -81 76 -159 118 -77 41 -80 44 -52 49 28 5 27 6 -21 23 -49 17
-49 17 -10 11 58 -8 165 -45 160 -54 -6 -10 24 -22 35 -15 5 3 12 0 16 -6 4
-8 3 -9 -4 -5 -7 4 -12 5 -12 3 0 -2 19 -16 43 -31 l42 -27 -30 27 -30 26 34
-18 c19 -11 70 -53 114 -95 l80 -75 61 60 c106 105 242 181 380 211 66 14 252
17 301 5z m-1800 -100 c-3 -5 -12 -10 -18 -10 -7 0 -6 4 3 10 19 12 23 12 15
0z m-236 -234 c-9 -8 -10 -7 -5 7 3 10 7 24 7 30 1 7 3 4 6 -7 3 -10 -1 -23
-8 -30z m-364 -54 c85 -37 105 -61 81 -97 -9 -14 -25 -25 -35 -25 -20 0 -224
83 -258 106 -29 18 -30 58 -2 78 24 16 51 8 214 -62z m3549 45 c23 -36 -7 -61
-136 -115 -68 -29 -130 -52 -137 -52 -20 0 -51 30 -51 50 0 27 28 45 155 98
122 51 147 54 169 19z m-4597 -289 c-3 -8 -6 -5 -6 6 -1 11 2 17 5 13 3 -3 4
-12 1 -19z m1310 -170 c-3 -8 -6 -5 -6 6 -1 11 2 17 5 13 3 -3 4 -12 1 -19z
m-1320 -70 c-3 -7 -5 -2 -5 12 0 14 2 19 5 13 2 -7 2 -19 0 -25z m997 -234 c9
-8 16 -24 16 -34 0 -43 -23 -50 -174 -50 -152 0 -166 4 -166 50 0 46 14 50
166 50 116 0 145 -3 158 -16z m3750 0 c9 -8 16 -24 16 -34 0 -43 -23 -50 -174
-50 -152 0 -166 4 -166 50 0 46 14 50 166 50 116 0 145 -3 158 -16z m-2853
-691 c13 -16 12 -17 -3 -4 -10 7 -18 15 -18 17 0 8 8 3 21 -13z m1519 -107 c0
-2 -8 -10 -17 -17 -16 -13 -17 -12 -4 4 13 16 21 21 21 13z m-60 -50 c0 -2 -8
-10 -17 -17 -16 -13 -17 -12 -4 4 13 16 21 21 21 13z m1833 -361 c-3 -9 -8
-14 -10 -11 -3 3 -2 9 2 15 9 16 15 13 8 -4z m-63 -219 c0 -2 -7 -9 -15 -16
-13 -11 -14 -10 -9 4 5 14 24 23 24 12z m-4270 -583 c0 -8 -9 0 -50 45 l-45
47 48 -45 c26 -24 47 -45 47 -47z m3850 74 c0 -2 -10 -12 -22 -23 l-23 -19 19
23 c18 21 26 27 26 19z m-3720 -204 c0 -8 -9 0 -50 45 l-45 47 48 -45 c26 -24
47 -45 47 -47z m3550 44 c0 -2 -19 -21 -42 -42 l-43 -40 40 43 c36 39 45 47
45 39z"/>
<path d="M2258 3993 c6 -2 18 -2 25 0 6 3 1 5 -13 5 -14 0 -19 -2 -12 -5z"/>
</g>
</svg>
