<?xml version="1.0" standalone="no"?>
<!DOCTYPE svg PUBLIC "-//W3C//DTD SVG 20010904//EN"
 "http://www.w3.org/TR/2001/REC-SVG-20010904/DTD/svg10.dtd">
<svg version="1.0" xmlns="http://www.w3.org/2000/svg"
 width="592.000000pt" height="592.000000pt" viewBox="0 0 592.000000 592.000000"
 preserveAspectRatio="xMidYMid meet">
<metadata>
Created by potrace 1.11, written by Peter Selinger 2001-2013
</metadata>
<g transform="translate(0.000000,592.000000) scale(0.100000,-0.100000)"
fill="#000000" stroke="none">
<path d="M2573 5909 c-276 -25 -575 -105 -788 -211 -201 -100 -333 -189 -308
-206 9 -5 -26 -29 -105 -70 -65 -34 -151 -85 -191 -114 -120 -86 -120 -86 -92
-55 40 45 7 31 -76 -32 -122 -92 -209 -177 -248 -241 -20 -33 -75 -104 -121
-157 -154 -176 -250 -337 -393 -656 -69 -155 -82 -187 -60 -157 9 12 10 11 4
-5 -3 -11 -15 -54 -26 -95 -22 -88 -80 -263 -90 -270 -11 -9 -48 -211 -60
-330 -6 -63 -12 -241 -13 -395 l-1 -280 48 -250 c56 -293 82 -400 107 -436 10
-14 34 -64 53 -110 192 -462 298 -630 562 -895 167 -167 364 -331 537 -447 75
-50 132 -95 126 -98 -17 -11 57 -55 191 -114 515 -231 1047 -326 1506 -270 66
8 176 20 243 25 217 19 531 115 751 231 52 27 101 49 110 49 24 0 240 128 334
197 102 75 296 252 401 364 303 325 579 763 685 1085 96 292 126 532 118 947
-9 422 -65 728 -197 1072 -21 55 -41 111 -45 125 l-7 25 17 -23 c9 -12 27 -53
39 -90 13 -37 46 -121 74 -187 52 -124 92 -257 92 -309 0 -16 9 -97 19 -180
17 -133 40 -359 42 -408 1 -60 48 36 79 164 33 132 37 274 11 383 -20 86 -83
291 -158 515 -67 201 -180 414 -317 599 -177 237 -472 550 -651 691 -327 257
-709 449 -1115 559 -248 67 -282 71 -652 70 -189 -1 -384 -5 -435 -10z m361
-941 c13 -17 16 -51 16 -148 0 -97 -3 -131 -16 -148 -18 -26 -37 -28 -58 -6
-13 12 -16 41 -16 154 0 113 3 142 16 154 21 22 40 20 58 -6z m-708 -276 c44
-107 53 -136 44 -152 -12 -22 -52 -27 -68 -7 -18 22 -102 237 -102 261 0 30 9
38 43 34 27 -3 33 -12 83 -136z m1480 114 c4 -17 -11 -64 -48 -153 -51 -122
-54 -128 -82 -128 -51 0 -54 24 -17 117 76 186 77 188 110 188 24 0 32 -5 37
-24z m650 -443 c6 -22 -7 -39 -99 -131 -101 -101 -107 -105 -131 -94 -48 22
-34 50 77 160 84 82 107 100 125 95 13 -3 25 -16 28 -30z m-2743 -72 c53 -54
97 -105 97 -114 0 -21 -27 -47 -48 -47 -24 0 -212 200 -212 226 0 27 8 34 40
34 20 0 49 -23 123 -99z m1920 -228 c-57 -11 -13 -42 145 -103 147 -58 208
-97 325 -212 116 -115 187 -277 187 -428 0 -234 -139 -510 -415 -825 -138
-158 -368 -385 -419 -414 -28 -15 -121 -80 -206 -143 -85 -63 -176 -129 -202
-147 l-47 -34 -73 43 c-40 24 -99 65 -130 91 -32 26 -102 79 -156 117 -96 68
-311 261 -443 398 -214 222 -383 469 -461 676 -29 75 -32 94 -32 198 -1 94 3
129 22 190 61 195 199 366 362 448 92 47 146 55 341 54 94 -1 129 -12 268 -82
45 -22 89 -40 98 -40 27 1 -48 64 -127 108 -36 19 -74 42 -85 49 -18 12 -17
13 14 7 25 -5 32 -4 27 4 -9 15 -7 15 35 0 19 -6 62 -31 97 -55 34 -25 72 -46
84 -48 12 -3 54 -36 93 -75 l71 -70 36 44 c103 122 295 223 470 245 65 9 160
12 121 4z m-1308 -72 c15 -6 8 -10 -33 -16 -29 -4 -56 -4 -59 -1 -4 3 0 6 8 7
8 0 6 4 -6 9 -26 11 61 12 90 1z m-1031 -304 c65 -29 124 -60 130 -70 14 -22
-3 -51 -33 -55 -21 -3 -231 79 -258 100 -28 22 -8 79 27 77 8 0 69 -24 134
-52z m3584 41 c16 -16 15 -53 0 -65 -28 -22 -240 -104 -260 -101 -29 4 -46 33
-32 56 11 17 235 120 265 121 8 1 20 -4 27 -11z m-3593 -808 l0 -35 -152 -3
c-144 -2 -153 -1 -163 18 -8 14 -8 26 0 40 10 19 19 20 163 18 l152 -3 0 -35z
m3750 0 l0 -35 -149 -3 c-153 -3 -176 2 -176 37 0 37 19 42 175 39 l150 -3 0
-35z"/>
<path d="M3350 3993 c-59 -7 -55 -20 5 -15 37 3 55 1 55 -7 0 -19 87 -14 94 5
6 15 0 16 -44 11 -29 -4 -50 -2 -50 3 0 6 -6 9 -12 8 -7 0 -29 -3 -48 -5z"/>
<path d="M3210 3930 c-8 -5 -12 -12 -8 -15 10 -10 49 5 43 16 -8 11 -16 11
-35 -1z"/>
</g>
</svg>
