<svg version="1" xmlns="http://www.w3.org/2000/svg" width="789.333" height="789.333" viewBox="0 0 592.000000 592.000000"><path d="M257.3 1.1c-27.6 2.5-57.5 10.5-78.8 21.1-20.1 10-33.3 18.9-30.8 20.6.9.5-2.6 2.9-10.5 7-6.5 3.4-15.1 8.5-19.1 11.4-12 8.6-12 8.6-9.2 5.5 4-4.5.7-3.1-7.6 3.2C89.1 79.1 80.4 87.6 76.5 94c-2 3.3-7.5 10.4-12.1 15.7-15.4 17.6-25 33.7-39.3 65.6-6.9 15.5-8.2 18.7-6 15.7.9-1.2 1-1.1.4.5-.3 1.1-1.5 5.4-2.6 9.5-2.2 8.8-8 26.3-9 27-1.1.9-4.8 21.1-6 33-.6 6.3-1.2 24.1-1.3 39.5l-.1 28 4.8 25c5.6 29.3 8.2 40 10.7 43.6 1 1.4 3.4 6.4 5.3 11 19.2 46.2 29.8 63 56.2 89.5 16.7 16.7 36.4 33.1 53.7 44.7 7.5 5 13.2 9.5 12.6 9.8-1.7 1.1 5.7 5.5 19.1 11.4 51.5 23.1 104.7 32.6 150.6 27 6.6-.8 17.6-2 24.3-2.5 21.7-1.9 53.1-11.5 75.1-23.1 5.2-2.7 10.1-4.9 11-4.9 2.4 0 24-12.8 33.4-19.7 10.2-7.5 29.6-25.2 40.1-36.4 30.3-32.5 57.9-76.3 68.5-108.5 9.6-29.2 12.6-53.2 11.8-94.7-.9-42.2-6.5-72.8-19.7-107.2-2.1-5.5-4.1-11.1-4.5-12.5l-.7-2.5 1.7 2.3c.9 1.2 2.7 5.3 3.9 9 1.3 3.7 4.6 12.1 7.4 18.7 5.2 12.4 9.2 25.7 9.2 30.9 0 1.6.9 9.7 1.9 18 1.7 13.3 4 35.9 4.2 40.8.1 6 4.8-3.6 7.9-16.4 3.3-13.2 3.7-27.4 1.1-38.3-2-8.6-8.3-29.1-15.8-51.5-6.7-20.1-18-41.4-31.7-59.9-17.7-23.7-47.2-55-65.1-69.1C444.8 37.3 406.6 18.1 366 7.1 341.2.4 337.8 0 300.8.1c-18.9.1-38.4.5-43.5 1zm36.1 94.1c1.3 1.7 1.6 5.1 1.6 14.8 0 9.7-.3 13.1-1.6 14.8-1.8 2.6-3.7 2.8-5.8.6-1.3-1.2-1.6-4.1-1.6-15.4s.3-14.2 1.6-15.4c2.1-2.2 4-2 5.8.6zm-70.8 27.6c4.4 10.7 5.3 13.6 4.4 15.2-1.2 2.2-5.2 2.7-6.8.7-1.8-2.2-10.2-23.7-10.2-26.1 0-3 .9-3.8 4.3-3.4 2.7.3 3.3 1.2 8.3 13.6zm148-11.4c.4 1.7-1.1 6.4-4.8 15.3-5.1 12.2-5.4 12.8-8.2 12.8-5.1 0-5.4-2.4-1.7-11.7 7.6-18.6 7.7-18.8 11-18.8 2.4 0 3.2.5 3.7 2.4zm65 44.3c.6 2.2-.7 3.9-9.9 13.1-10.1 10.1-10.7 10.5-13.1 9.4-4.8-2.2-3.4-5 7.7-16 8.4-8.2 10.7-10 12.5-9.5 1.3.3 2.5 1.6 2.8 3zm-274.3 7.2c5.3 5.4 9.7 10.5 9.7 11.4 0 2.1-2.7 4.7-4.8 4.7-2.4 0-21.2-20-21.2-22.6 0-2.7.8-3.4 4-3.4 2 0 4.9 2.3 12.3 9.9zm192 22.8c-5.7 1.1-1.3 4.2 14.5 10.3 14.7 5.8 20.8 9.7 32.5 21.2 11.6 11.5 18.7 27.7 18.7 42.8 0 23.4-13.9 51-41.5 82.5-13.8 15.8-36.8 38.5-41.9 41.4-2.8 1.5-12.1 8-20.6 14.3-8.5 6.3-17.6 12.9-20.2 14.7l-4.7 3.4-7.3-4.3c-4-2.4-9.9-6.5-13-9.1-3.2-2.6-10.2-7.9-15.6-11.7-9.6-6.8-31.1-26.1-44.3-39.8-21.4-22.2-38.3-46.9-46.1-67.6-2.9-7.5-3.2-9.4-3.2-19.8-.1-9.4.3-12.9 2.2-19 6.1-19.5 19.9-36.6 36.2-44.8 9.2-4.7 14.6-5.5 34.1-5.4 9.4.1 12.9 1.2 26.8 8.2 4.5 2.2 8.9 4 9.8 4 2.7-.1-4.8-6.4-12.7-10.8-3.6-1.9-7.4-4.2-8.5-4.9-1.8-1.2-1.7-1.3 1.4-.7 2.5.5 3.2.4 2.7-.4-.9-1.5-.7-1.5 3.5 0 1.9.6 6.2 3.1 9.7 5.5 3.4 2.5 7.2 4.6 8.4 4.8 1.2.3 5.4 3.6 9.3 7.5l7.1 7 3.6-4.4c10.3-12.2 29.5-22.3 47-24.5 6.5-.9 16-1.2 12.1-.4zm-130.8 7.2c1.5.6.8 1-3.3 1.6-2.9.4-5.6.4-5.9.1-.4-.3 0-.6.8-.7.8 0 .6-.4-.6-.9-2.6-1.1 6.1-1.2 9-.1zm-103.1 30.4c6.5 2.9 12.4 6 13 7 1.4 2.2-.3 5.1-3.3 5.5-2.1.3-23.1-7.9-25.8-10-2.8-2.2-.8-7.9 2.7-7.7.8 0 6.9 2.4 13.4 5.2zm358.4-4.1c1.6 1.6 1.5 5.3 0 6.5-2.8 2.2-24 10.4-26 10.1-2.9-.4-4.6-3.3-3.2-5.6 1.1-1.7 23.5-12 26.5-12.1.8-.1 2 .4 2.7 1.1zM118.5 300v3.5l-15.2.3c-14.4.2-15.3.1-16.3-1.8-.8-1.4-.8-2.6 0-4 1-1.9 1.9-2 16.3-1.8l15.2.3v3.5zm375 0v3.5l-14.9.3c-15.3.3-17.6-.2-17.6-3.7 0-3.7 1.9-4.2 17.5-3.9l15 .3v3.5z"/><path d="M335 192.7c-5.9.7-5.5 2 .5 1.5 3.7-.3 5.5-.1 5.5.7 0 1.9 8.7 1.4 9.4-.5.6-1.5 0-1.6-4.4-1.1-2.9.4-5 .2-5-.3 0-.6-.6-.9-1.2-.8-.7 0-2.9.3-4.8.5zM321 199c-.8.5-1.2 1.2-.8 1.5 1 1 4.9-.5 4.3-1.6-.8-1.1-1.6-1.1-3.5.1z"/></svg>