<svg xmlns="http://www.w3.org/2000/svg" viewBox="0 0 106.09856 38.62813"><title>Asset 6</title><g id="Layer_2" data-name="Layer 2"><g id="Layer_1-2" data-name="Layer 1"><rect x="32.99052" y="3.84931" width="35.73913" height="19.06087" rx="4.76522" ry="4.76522" style="fill:#fff"/><path d="M66.58083,23.00139a5.217,5.217,0,0,0,1.87823-1.85461,4.94321,4.94321,0,0,0,.92557-2.62955c.025-.8421-.0293-1.47387-.05194-2.19513-.0614-1.40222-.13272-2.82055-.09677-4.72427-.0047-.84439-.00907-1.62817-.01328-2.38226a6.23075,6.23075,0,0,0-.30972-2.30939,5.406,5.406,0,0,0-3.38745-3.32153c-.30542.00662-.871-.11862-1.59961-.09912-.68024.01385-1.51312.003-2.38831-.01148-1.75039-.029-3.67-.07278-4.87585.03665-1.61826.041-2.49582.172-1.26166.22772-2.23639.01328-1.66156-.13183-3.53033-.0736l.63006-.11386c-.61542-.0279-1.2962-.0868-2.10388-.06635l-.91077.11551c-2.22253-.12848-3.484.09924-5.89731.0191,1.57254.08512-.72.06711-.54464.16059-.36685-.045-1.823-.068-1.32486-.10245-1.02133-.01752-2.00229.02368-2.87338.04849-.86625.0235-1.63752.01007-2.24344.0911a5.14666,5.14666,0,0,0-.7186.28381,5.464,5.464,0,0,0-2.56458,2.37753l-.01458.17758A6.19347,6.19347,0,0,0,32.937,8.111l-.07706,1.41083c-.03516,2.04639.10587,4.60486.1813,6.72128a8.05126,8.05126,0,0,0,.039,1.619c.06176.27182.04806.52252.26535,1.4025a4.20923,4.20923,0,0,0,.95318,1.84213,6.57093,6.57093,0,0,0,1.3508,1.11786,5.69328,5.69328,0,0,1-1.42541-1.00739,3.65087,3.65087,0,0,1-.96186-1.56686c.0933.32675-.21817-.362-.287-1.00479-.06208-.63831-.06739-1.1618-.10453-.36911A5.0082,5.0082,0,0,0,35.896,22.58367a5.247,5.247,0,0,0,1.35513.34311c.46329.034.91462.02081,1.35761.017.88583-.01013,1.73315-.0289,2.51227-.06494-.23212.17434,3.87079.103,5.23852.07922l.08768.04678c1.17609.02451,2.04626.0351,3.91428-.0231,2.235-.01321,4.43975-.0419,6.32544.05713a60.87326,60.87326,0,0,0,7.27752-.18454c-3.39783-.15317-6.58694.10175-9.108-.1824a40.86429,40.86429,0,0,0,4.32489-.10413l-.955-.05731.77738-.0361c-.39722-.06067.63141-.114.51279-.17612l-2.82377.00082c1.51505.05405.51584.12293.07383.18845l-1.45618-.02292c.339.02957,1.23584.0557.17612.09342-.58512-.01233-1.364.0238-2.01245-.01963l1.15765-.13278c-1.77731.10492-3.11774-.15463-4.89807-.04974l-.54163-.13843-1.67862.00986.18939-.04828-2.01318-.01969a5.074,5.074,0,0,0-1.442.1344c-.83866.005-1.64634.02542-1.98606-.00409l.97354-.08432-.899-.02621c.61529.02783-.74945.05164-.97052.08429-2.01609-.01938-1.42661-.00717-2.6911-.07837-.32114.01175-.68558.02206-.9946.01334a4.1828,4.1828,0,0,1-.79886-.09943,7.87688,7.87688,0,0,0-.8483-.23276,4.16339,4.16339,0,0,1-2.31659-3.75476l.00253-1.74533-.06887-.99844c.07864-2.6911-.023-3.91217-.03946-6.70649l.03268.22034a4.606,4.606,0,0,1,.0632-1.36606,4.77793,4.77793,0,0,1,1.123-1.92517,3.69058,3.69058,0,0,1,2.1803-1.1058,5.61374,5.61374,0,0,1,.817-.06012l.79914-.00351c.49484-.00659.91681-.02136,1.2832-.04224a14.37473,14.37473,0,0,0,1.67087-.18106c1.27627-.07046,2.882.03028,4.0285.03928l-.74792.05163.95364.05732c1.649-.02552,1.73746.02124,3.88632-.03867a15.89979,15.89979,0,0,0,3.74631-.25824l2.812.1409-.06186-.03116a41.97436,41.97436,0,0,1,5.223-.078L61.24,3.98733a12.64506,12.64506,0,0,0,1.65954.01773,8.94271,8.94271,0,0,1,1.92163.0274,4.4472,4.4472,0,0,1,1.91129.90912,5.55065,5.55065,0,0,1,1.5549,2.02658,5.82392,5.82392,0,0,1,.29642,1.91516c.01266.59845.038,1.14182.06573,1.67182.05545,1.06.12039,2.06656.11224,3.35348a23.18243,23.18243,0,0,1-.0614,2.94315l-.00161-.27845-.15406.57468.11069.06928c-.02658.46408.00052,1.0365-.08069,1.56442a3.151,3.151,0,0,1-.49826,1.34064,4.58346,4.58346,0,0,1-1.15579,1.76031,5.71762,5.71762,0,0,0,1.12613-1.2709l-.05738.03463a4.92076,4.92076,0,0,0,.507-1.13549,6.52441,6.52441,0,0,0,.224-1.29157A4.79821,4.79821,0,0,1,68.68,18.999c.154-.89.10373-.14056.07745.12076a7.42168,7.42168,0,0,1-.5296,1.43851,3.50876,3.50876,0,0,1-.67313,1.017c-.22479.23336-.71518.59558-.55957.42862a4.53588,4.53588,0,0,1-1.62152.83468c-.636.19516-1.209.19763-1.243.25809l-.16623-.00711A3.44154,3.44154,0,0,0,66.58083,23.00139Z" style="fill:#231f20"/><circle cx="50.86009" cy="13.37975" r="11.91304" style="fill:#00b5ad"/><path d="M63.3766,11.54217a9.17908,9.17908,0,0,0-.49-1.74958,9.09741,9.09741,0,0,0-1.53964-3.233,18.06507,18.06507,0,0,0-2.47549-2.66217,12.96985,12.96985,0,0,0-6.25861-2.79364c-.42236.08151-1.61408-.02994-2.94656.04785a9.59041,9.59041,0,0,0-3.572.93824c-1.103.5563-1.59137,1.0075-.75808.61721A9.72533,9.72533,0,0,0,43.10289,4.101c.09158-.13556.20157-.25116.30331-.37906a7.20821,7.20821,0,0,0-1.24636.99653l-.37973.589A10.96327,10.96327,0,0,0,39.511,9.09038c.48493-1.07608-.12341.53171.01126.43644-.16849.23-.4198,1.29095-.3735.91848a17.89954,17.89954,0,0,0-.33283,3.77542,4.46309,4.46309,0,0,0,.09619.55213,25.66827,25.66827,0,0,0,.5355,2.53134l.102.093c.20794.54065.6542,1.49963.86483,1.96106a10.51046,10.51046,0,0,0,3.42164,3.565,2.8604,2.8604,0,0,0,1.01025.623c.1925.06509.36465.12674.9993.39492A8.86712,8.86712,0,0,0,47.317,24.534c.53616.13943,1.0296.27267,1.2829.36511a9.27494,9.27494,0,0,1-2.59833-.67551c.21228.135-.29013-.089-.7225-.27572-.42191-.2041-.75821-.40293-.28079-.05664a14.596,14.596,0,0,0,3.83841,1.26449,9.75224,9.75224,0,0,0,3.86148-.05072c-.07239.10043.64639.03812,1.48211-.20535a12.53928,12.53928,0,0,0,1.25247-.44489c.38816-.17382.72147-.35959.94855-.47088l.08039.01315a8.76356,8.76356,0,0,0,2.36389-1.68021,14.85547,14.85547,0,0,0,2.86258-3.69451,8.56058,8.56058,0,0,0,.99389-2.98682,10.0318,10.0318,0,0,0,.03528-2.25571,17.9823,17.9823,0,0,1-.576,3.521,7.58747,7.58747,0,0,1-1.42489,2.71738,7.43186,7.43186,0,0,0,1.21-2.85914c-.08463.21238-.19007.41706-.28318.62442l.15641-.53125c-.13932.24946.01989-.46081-.073-.399a10.26744,10.26744,0,0,1-.70224,1.84259c.51089-.93314.271-.27912.19238.03488a6.81206,6.81206,0,0,1-.508.90091c.15052-.18936.50632-.72644.14579-.06a6.78432,6.78432,0,0,1-.8161,1.18448c.12356-.25208.27246-.48328.37085-.74469a12.16364,12.16364,0,0,1-2.32706,2.53574l-.39.11813a8.119,8.119,0,0,1-.9544.66974l.08682-.1091a8.83015,8.83015,0,0,1-1.23.65045,4.04341,4.04341,0,0,0-.87329.50787,6.4829,6.4829,0,0,1-1.33045.3927l.6355-.25024-.61023.12958c.42011-.0784-.48984.18768-.64383.215a5.85414,5.85414,0,0,1-1.12787.11472l-.74078-.02063A9.6408,9.6408,0,0,1,49.55,24.49572c-.39251-.06537-.67987-.106-.7157-.05554a11.87131,11.87131,0,0,1-4.528-2.01117l-.59833-.36063a21.64269,21.64269,0,0,1-1.6051-1.65533A10.33133,10.33133,0,0,1,40.782,18.45464l.09567.12378c-.1727-.30984-.37656-.60947-.52945-.93365-.11-.35389-.21887-.64661-.31827-.91758l-.22976-.79263a5.11871,5.11871,0,0,1-.178-.85269,4.91451,4.91451,0,0,1-.07962-1.10458c-.00717-1.846.09-2.68177.086-3.30982a8.71044,8.71044,0,0,1,1.04571-2.67486l-.18475.50311.3464-.58188a13.0301,13.0301,0,0,1,1.575-2.24945c1.50473-1.43881,1.19494-1.32062,1.84973-1.96a12.70824,12.70824,0,0,1,1.83755-.86362l-.05288-.00906a4.46844,4.46844,0,0,1,1.14108-.55744,13.73919,13.73919,0,0,1,2.45309-.5119l-.13922-.073c.9686.01862,1.377-.15057,2.62784-.05136a10.90992,10.90992,0,0,1,1.56458.3479c.657.1666,1.33206.44821,1.853.59061A24.78026,24.78026,0,0,1,57.88939,3.877a6.909,6.909,0,0,1,.95477.67956,5.9313,5.9313,0,0,1,.93857.90057c.70563.89365,1.26065,1.50916,1.23682,1.78089l-.10776-.17432.08636.43888.1221-.01218a7.36594,7.36594,0,0,1,.80942,2.08142,12.95323,12.95323,0,0,1,.61466,1.46933c-.104-.37714-.20645-.79681-.30341-1.22192l-.01721.0513c-.13684-.39154-.50012-1.32514-.6983-1.76191l.28241.50312c-.26386-.60807.02285-.13187.12014.03091.41559,1.27268.41767.88477.69583,1.87644.05375.22607.12754.659.06138.50643.047.29722.14306.84015.172,1.31861a2.83419,2.83419,0,0,0,.10462.9158l-.00931.11981A3.76514,3.76514,0,0,0,63.3766,11.54217Z" style="fill:#231f20"/><circle cx="62.88799" cy="1.24256" r="0.98893" style="fill:#3cb0a9"/><path d="M63.53551,2.12536l.07138.00961c.073-.01736.183-.09759.23736-.09729a.23925.23925,0,0,1-.05371.13629,1.1236,1.1236,0,0,1-.50265.1258c-.01877-.00068-.06522.05319-.122.08612l.04254.00427a.897.897,0,0,1-.324.06274.16794.16794,0,0,1,.0371.01929,3.2259,3.2259,0,0,0-.395-.08865.35365.35365,0,0,1-.05234-.04129,1.79549,1.79549,0,0,1-.33911-.16788,1.12738,1.12738,0,0,1-.29428-.34683,2.159,2.159,0,0,1-.14029-.81366.25259.25259,0,0,1,.07-.18076c-.0372-.18487.16642-.45087.35636-.56872a.21718.21718,0,0,1,.17361-.03916A.9502.9502,0,0,1,62.914.00017a1.05074,1.05074,0,0,1,.80731.34327,1.09723,1.09723,0,0,0,.13409.10943l.017.05985a.97513.97513,0,0,1,.2363.4588c.0162.22763-.102.24939-.18082.27106-.06882-.2099-.24106-.3227-.33874-.55478C63.5623.61626,63.46025.559,63.38091.52044c-.07111-.02323-.12534-.10456-.20679-.07276a.44107.44107,0,0,0-.47775-.11627c-.01566-.0036-.001-.01431-.02774-.01571a1.14061,1.14061,0,0,0-.57169.51855.76323.76323,0,0,0-.076.44482.65723.65723,0,0,0,.00318.1298l.02981.04034a2.96119,2.96119,0,0,0,.1221.30444.70059.70059,0,0,0,.17368.21723c.09253.10873.309.151.41607.21841.01365.01148.063.00739.09461.01l.04492.023c.03281-.00094.05173-.03635.08264-.0376.21018-.00409.42856-.13363.56668-.13372C63.54451,2.06692,63.49342,2.12054,63.53551,2.12536Z" style="fill:#231f20"/><path d="M64.15691,1.32339c.0133.012.01928-.02973.018-.05591a.23757.23757,0,0,0-.04834.08188l.00815-.07328c-.03122-.03936-.01349.07141-.02463.02774.00571-.03967.01322-.07138.029-.05191-.00888.00666-.00433.02417-.00888.04831.02234.00519.03367-.03451.04911-.05764l-.00833.11907Z" style="fill:#231f20"/><path d="M64.07558,1.5722l.00924-.0224c-.01089-.01371-.02523.00625-.03955.02545.04657-.09241.04114.01092.07978-.04349C64.11467,1.5274,64.08626,1.58666,64.07558,1.5722Z" style="fill:#231f20"/><path d="M64.04268,1.43114c.03574-.03723.01709-.08365.05054-.09051a1.09719,1.09719,0,0,1-.04786.10773Z" style="fill:#231f20"/><path d="M63.72133,2.08178c-.01709.03-.00864.0152-.05158.04873l.059-.05188Z" style="fill:#231f20"/><path d="M62.287,2.22246a.28143.28143,0,0,0,.1109.1077A.25592.25592,0,0,1,62.287,2.22246Z" style="fill:#231f20"/><path d="M61.94261,1.67791c.0109-.00333.00531-.02268.02194.00043.0001.014-.03271.01013.00058.0426Z" style="fill:#231f20"/><path d="M61.976,1.60985l.01022-.03161A.07309.07309,0,0,0,61.976,1.60985Z" style="fill:#231f20"/><path d="M63.41518,2.38753,63.4081,2.384l-.0087.009Z" style="fill:#231f20"/><path d="M63.30312,2.41216l.08279-.00525.01349-.01382C63.34874,2.4088,63.35774,2.38167,63.30312,2.41216Z" style="fill:#231f20"/><path d="M63.39577,2.37768l.01233.00637c.05316-.046.09951-.02124.17834-.08334A1.37154,1.37154,0,0,0,63.39577,2.37768Z" style="fill:#231f20"/><path d="M63.4557,2.32229l.017-.02442c.02173-.00912.02576.00159.02765.007l.04016-.02972c.00562-.02722-.12713.04309-.16543.05285Z" style="fill:#231f20"/><polygon points="63.673 1.903 63.672 1.905 63.673 1.903 63.673 1.903" style="fill:#231f20"/><path d="M63.55049,1.94942l.02274.03263c.03735-.03809.06161-.02872.09869-.07718l.001-.0015C63.62746,1.89226,63.60451,1.94662,63.55049,1.94942Z" style="fill:#231f20"/><path d="M63.20467,2.39953c.0624-.01313.10672-.03366.11731-.0596a1.06027,1.06027,0,0,1-.11277.02661C63.25664,2.37255,63.21129,2.38341,63.20467,2.39953Z" style="fill:#231f20"/><path d="M63.09493,2.3474l.051-.01266-.02506-.00687C63.12,2.3337,63.11214,2.34148,63.09493,2.3474Z" style="fill:#231f20"/><path d="M63.12083,2.32787c.00083-.00674-.00738-.00943-.02673-.00882Z" style="fill:#231f20"/><path d="M63.212,2.27264c-.038-.01667-.027.01232-.08343.01962C63.13057,2.32076,63.18483,2.27962,63.212,2.27264Z" style="fill:#231f20"/><polygon points="62.981 2.303 62.962 2.284 62.959 2.312 62.981 2.303" style="fill:#231f20"/><path d="M62.5349,2.37438c.06344-.0069-.0253-.03482-.02457-.05194Z" style="fill:#231f20"/><path d="M62.91823,2.2427l.01736.02508.008-.01437a.06824.06824,0,0,1,.04672.00732C62.99843,2.22951,62.94435,2.2477,62.91823,2.2427Z" style="fill:#231f20"/><line x1="62.70537" y1="2.29299" x2="62.65657" y2="2.26491" style="fill:#231f20"/><path d="M63.02382,2.13979c-.001-.01129-.06964-.037.00488-.03763-.0289.00058-.06845.00858-.04547-.01721-.04513.00257-.00049.02875-.03027.04376C62.97731,2.11242,62.99947,2.137,63.02382,2.13979Z" style="fill:#231f20"/><path d="M62.90648,2.12411c-.02292-.00373-.0502-.01725-.06372-.00614C62.86565,2.11938,62.88649,2.14547,62.90648,2.12411Z" style="fill:#231f20"/><polygon points="62.886 2.059 62.916 2.081 62.897 2.054 62.886 2.059" style="fill:#231f20"/><line x1="62.38585" y1="2.11443" x2="62.36858" y2="2.14702" style="fill:#231f20"/><path d="M62.76161,2.04723a.45533.45533,0,0,0,.076.00492.37728.37728,0,0,1-.06552-.02317c-.04294.0102-.02585.02271.003.03708A.02588.02588,0,0,1,62.76161,2.04723Z" style="fill:#231f20"/><path d="M62.83955,2.10345l.0246-.00934c.001-.00669-.03476-.00824-.06463-.016C62.81914,2.086,62.83739,2.09371,62.83955,2.10345Z" style="fill:#231f20"/><path d="M62.79952,2.07815,62.775,2.06606Z" style="fill:#231f20"/><path d="M62.19023,1.99a.75935.75935,0,0,0,.06326.06116A.24676.24676,0,0,0,62.19023,1.99Z" style="fill:#231f20"/><path d="M62.71419,2.00506l-.01-.003-.00974.02664C62.71693,2.02941,62.71223,2.0104,62.71419,2.00506Z" style="fill:#231f20"/><path d="M62.64812,1.92986c-.0102-.0227-.0503-.01633-.06433-.0224.01092.02991.0365.03482.06143.05182C62.62,1.94274,62.64345,1.94012,62.64812,1.92986Z" style="fill:#231f20"/><path d="M62.58766,1.86468a.34161.34161,0,0,0,.04935.024C62.63838,1.85668,62.60957,1.87377,62.58766,1.86468Z" style="fill:#231f20"/><path d="M62.50468,1.83077c-.00579-.00033-.0072.00888-.01882.008.0007.014.02059.02.03088.03027Z" style="fill:#231f20"/><path d="M62.99184,2.22652l-.06537.00669a.61668.61668,0,0,0,.09875.01068A.173.173,0,0,0,62.99184,2.22652Z" style="fill:#231f20"/><path d="M64.06264.70516a3.2399,3.2399,0,0,0-.34137-.36172,1.08941,1.08941,0,0,0-.64786-.25095l.00372-.01086a1.02863,1.02863,0,0,0-.61224.0783l.01584.01041c.03232-.0094.07339-.02377.05545.00421a.61989.61989,0,0,1-.118.01871L62.39681.2278c-.02994.00248-.03339-.05624-.09632-.00256-.014.0654-.17206.07037-.135.125-.049-.00961-.08423.06622-.11108.09332l.03912.00159c-.06653.04468-.15008.079-.16717.11755a.988.988,0,0,0-.13745.32459c-.0416.013.03985-.10977-.01838-.05414a1.4584,1.4584,0,0,0-.01495.76123c.001-.00793-.00168-.0311.00769-.01645-.00955.05588.03577.112.05963.193.013-.02027-.02743-.12006-.03433-.158.06265.00405-.01.02557.04849.114-.00039-.00778-.0011-.02323.00452-.02457.05505.08524-.01581.05237.03085.11743l-.00494-.04657c.03457.06763.01874.018.07251.08438-.03281.00574-.03061.05509-.01834.07532.01742.00028.05981.074.07565.047.02487.12134.10117.08609.13782.19455.0495.00772-.01465-.04874.00448-.06433.08939.05118.00531.04553.02881.0762a.8938.8938,0,0,1,.19287.12234l.01346-.01852c.06729.06632.21134.113.23886.151.04425-.02338-.0267-.03882-.087-.05749-.00711-.0192.05764-.01218.0852.00119-.015-.00415-.01648-.01929-.03628-.01313.00109-.02026.0408.00272.058.00156.10287.0304-.04312.00473-.00229.02573.04114.00253.14047.02008.10275-.01441.0839.01044.02948.03546.0734.05173-.0651-.02362-.09421.01211-.1409-.02057-.01956.008-.015.01743.00577.02976.0733.00933.2145.03866.21222.0075l.0371.01929.03525-.02362.01547.00522c-.037-.02939-.10443-.04248-.12869-.07453-.00455-.01519.03906-.00415.062-.00857l.01889.025c.06073.0022.04325-.04529.12317-.0476-.04623.04006.09677.03845.16077.042.04565-.07242-.01877-.041.01712-.10394.05652-.01682.13236-.06431.2019-.0828-.15225.07645.09522-.00021-.02038.07929a.24951.24951,0,0,0,.07422-.04166c.044.02695-.0214.05472.03232.06308l-.00428-.03351a.26124.26124,0,0,0,.17078-.03512.12577.12577,0,0,1,.05725-.08094c.024.00751.03818.01233.096-.0498.0643-.15515-.16678.06424-.22641.03021-.18247.10864-.25955-.003-.473.03153-.02927.02542-.01508.033-.07969.05249-.039.059.10752.02423.15967.03839a.08275.08275,0,0,1-.061.02377l.03174.02747c-.11377.04376-.07386-.03568-.1716-.00464l.02124-.01117-.05674.01651.01389.00528c-.03561.00384-.04584.02969-.10226.01962l.04586-.02371c-.0307.0173-.03924-.02011-.08267-.01282.02466-.01208.03165-.027.0462-.02872l-.16848-.03759a.67717.67717,0,0,1-.46213-.23661l.00912.02121a.06341.06341,0,0,1-.03814-.05923.51218.51218,0,0,1-.05228-.07929.55232.55232,0,0,1-.125-.1604c.01276-.01153.0206-.00989.02676-.0021-.01754-.023-.03225-.03586-.03262-.00235-.0289-.04306-.02127-.07242-.03659-.10617l.06216.0635c-.00393-.03671-.03662-.01968-.04583-.068-.035-.06732-.01517.04215-.0394.04358l-.0098-.03052-.01776.04529a.21651.21651,0,0,1,.00882-.147l.00363.05038c.041.00485-.02139-.079-.002-.10687l.00415.00568c-.01651-.07242-.01578.02023-.03247-.02829l.01978-.09327-.02344.018c-.0231-.05142.013-.15607.0332-.2367.01251-.04608.00549-.11254.02142-.17385-.01037.00875-.02249.03048-.02841.021.01206-.03613.04132-.1131.05631-.07553L62.032.83727a.09468.09468,0,0,1,.02875-.037L62.044.80776a.506.506,0,0,1,.02362-.06091c.00443.00348.02677-.01026.01209.01773.05853-.04419.06784-.14929.16064-.21857l-.01547.0318c.03531-.05878.0672-.03174.113-.08636L62.31291.48473c.03458-.04257.134-.06781.128-.04629-.01861-.049.03214.0003.04007-.053L62.52779.414c.02365-.02462.05206-.04171.02319-.05633.05609-.00025.09558-.00513.11765-.042l.001-.0015.00083-.00131.00012.00073c.01013-.00806.06271-.00781.03625-.0249.12149-.01819.06922.03363.18039.02423l.00467-.03369A1.89248,1.89248,0,0,0,63.1425.27135l.00138.02985c.047.00592-.00061-.03256.072-.01477.00824.00839.01382.01993.00955.02646a.86041.86041,0,0,1,.23031.141c-.004.00409-.01791.00024-.02487-.00162l.14691.0907.17386.41223a.59821.59821,0,0,0,.27359.17627A.50973.50973,0,0,0,64.06264.70516Z" style="fill:#231f20"/><path d="M50.86176,4.90887a.18649.18649,0,0,0-.1868.1868V6.113a.1868.1868,0,1,0,.37359,0V5.09567A.18649.18649,0,0,0,50.86176,4.90887Z" style="fill:#fff"/><path d="M47.61951,5.55265a.19186.19186,0,0,0-.10341.24684l.39027.94065a.18924.18924,0,1,0,.35025-.14343l-.39027-.94065A.189.189,0,0,0,47.61951,5.55265Z" style="fill:#fff"/><path d="M44.87093,7.39059a.18925.18925,0,0,0,0,.26685l.7205.71717a.18869.18869,0,1,0,.26686-.26685l-.7205-.71717A.18927.18927,0,0,0,44.87093,7.39059Z" style="fill:#fff"/><path d="M43.033,10.13917a.189.189,0,0,0,.10341.24683l.94065.39027a.18924.18924,0,1,0,.14343-.35024l-.94065-.39027A.19186.19186,0,0,0,43.033,10.13917Z" style="fill:#fff"/><path d="M42.38921,13.38141a.18649.18649,0,0,0,.1868.1868h1.01737a.1868.1868,0,1,0,0-.37359H42.576A.18649.18649,0,0,0,42.38921,13.38141Z" style="fill:#fff"/><path d="M57.94,13.38141a.18649.18649,0,0,0,.1868.1868h1.01737a.1868.1868,0,1,0,0-.37359H58.1268A.18649.18649,0,0,0,57.94,13.38141Z" style="fill:#fff"/><path d="M57.403,10.67287a.19186.19186,0,0,0,.24684.1034l.94065-.39027a.18924.18924,0,1,0-.14343-.35024l-.94065.39027A.18631.18631,0,0,0,57.403,10.67287Z" style="fill:#fff"/><path d="M55.86856,8.37461a.18927.18927,0,0,0,.26686,0l.72049-.7205a.18869.18869,0,1,0-.26685-.26685l-.7205.72383A.18524.18524,0,0,0,55.86856,8.37461Z" style="fill:#fff"/><path d="M53.5703,6.84021a.189.189,0,0,0,.24684-.1034l.39027-.94066a.18924.18924,0,0,0-.35024-.14343l-.39027.94065A.19186.19186,0,0,0,53.5703,6.84021Z" style="fill:#fff"/><path d="M53.3685,8.68181A3.17959,3.17959,0,0,0,50.86009,9.906a3.18887,3.18887,0,0,0-5.70062,1.968c0,3.01876,5.70062,6.708,5.70062,6.708s5.70062-3.63919,5.70062-6.708A3.19237,3.19237,0,0,0,53.3685,8.68181Z" style="fill:#fff"/><path d="M49.02489,8.90221a1.48377,1.48377,0,0,1,.205.12552,2.23466,2.23466,0,0,1,.81219.55863c-.01718.0003-.41028-.173-.474-.205a2.78876,2.78876,0,0,0-1.91782-.42139,1.97555,1.97555,0,0,0-.56008.26462l.16015-.05136a3.19093,3.19093,0,0,0-1.07614.80063,1.20989,1.20989,0,0,1,.11981-.09052,2.36966,2.36966,0,0,0-.7944,1.40241l-.06751.255a2.74927,2.74927,0,0,0,.3082,1.53473A7.40241,7.40241,0,0,0,46.824,14.72774a12.659,12.659,0,0,0,2.71686,2.52961,5.43906,5.43906,0,0,1,.66965.53851c.11859.05752.24887.13385.391.217l.209.12637.05078.02173.03739-.03088.17721-.12464.4206-.2951c.2673-.19562.55-.40253.79687-.58325a3.41631,3.41631,0,0,1,.62482-.39423,22.11969,22.11969,0,0,0,1.98993-2.08676,4.49014,4.49014,0,0,0,1.28366-3.27783,2.03347,2.03347,0,0,0-.221-.6319l-.07047-.21634A3.03513,3.03513,0,0,0,54.39446,9.23c-.8013-.30417-.92475-.32876-1.026-.47937a3.31667,3.31667,0,0,1,1.58576.24857,2.73238,2.73238,0,0,1,1.418,1.46911,3.61764,3.61764,0,0,1,.31668,1.65329c-.0072.12213-.01911.24744-.036.37143l-.11316.35245c-.06192.23865-.16873.44421-.225.64911a18.73846,18.73846,0,0,1-1.91784,2.33469c-.06589.05358-.00605-.02121-.11612.07684a14.92112,14.92112,0,0,1-1.53861,1.44208c-.28512.22958-.57818.45889-.88061.68277l-.45972.33267-.54218.37127-.3327-.21722c-.69455-.451-1.45035-1.06332-2.24472-1.70163-.07666-.05759-.38562-.3631-.587-.55157l-.22715-.17841a9.45678,9.45678,0,0,1-1.36248-1.56662,6.91545,6.91545,0,0,1-.82093-1.50226,3.71314,3.71314,0,0,1-.2062-1.43576,2.64947,2.64947,0,0,1,.44113-1.27472c.05057-.06949.18924-.3096.30658-.44934.0574-.06262.12719-.114.18976-.1708a3.029,3.029,0,0,1,.32193-.35807,3.2131,3.2131,0,0,1,1.67846-.65881,2.30306,2.30306,0,0,1,1.31082.25015C49.23735,8.89,48.88524,8.83086,49.02489,8.90221Z" style="fill:#231f20"/><path d="M53.06572,9.08193c-.03848.02445.11505.00913.211.00656a.96986.96986,0,0,0-.32221-.03119,2.58251,2.58251,0,0,1,.28418-.02148c.14957-.0546-.28314.00516-.11416-.02377.1593-.00824.28351.00271.20788.02551a.7708.7708,0,0,0-.18783-.00028c-.01285.02918.13946.03446.22387.05292a2.90681,2.90681,0,0,0-.43594.03189Z" style="fill:#231f20"/><path d="M52.10341,9.30761l.08713-.0354c.03048-.03382-.05747-.00989-.14411.02185.37888-.147.02625.047.2573-.02036C52.30452,9.25252,52.07442,9.34234,52.10341,9.30761Z" style="fill:#231f20"/><path d="M52.57106,9.0385c.17932-.01281.35339-.06976.40039-.02984a2.86175,2.86175,0,0,0-.46561.056Z" style="fill:#231f20"/><path d="M49.69045,9.27013c-.13138-.04825-.06324-.02862-.27128-.12127a2.5301,2.5301,0,0,1,.297.13958Z" style="fill:#231f20"/><path d="M45.46187,12.48009c-.02759-.1874.0054-.339-.02512-.624C45.47575,12.14257,45.43083,12.41765,45.46187,12.48009Z" style="fill:#231f20"/><path d="M46.93391,15.18075c-.01687.00375.0485.08609-.05273-.02048-.03775-.05594.05127-.01065-.113-.16745Z" style="fill:#231f20"/><path d="M47.05357,15.427l.07947.122A.79312.79312,0,0,0,47.05357,15.427Z" style="fill:#231f20"/><path d="M48.01894,9.07116l-.01975-.00537-.043.01272Z" style="fill:#231f20"/><path d="M47.58937,9.13006a2.10753,2.10753,0,0,1,.30136-.03235l.06549-.0192A.97551.97551,0,0,0,47.58937,9.13006Z" style="fill:#231f20"/><path d="M47.96455,9.056l.03464.00977a2.37228,2.37228,0,0,1,.74228.02136A1.98037,1.98037,0,0,0,47.96455,9.056Z" style="fill:#231f20"/><path d="M48.26781,8.99868c.03537-.007.071-.018.10678-.0221.0954.00745.08655.02234.08218.02982.066-.00208.13156.00427.19748.00742.08621-.03608-.5328-.06925-.69375-.03058A2.33365,2.33365,0,0,1,48.26781,8.99868Z" style="fill:#231f20"/><polygon points="50.191 9.331 50.183 9.326 50.191 9.331 50.191 9.331" style="fill:#231f20"/><path d="M49.68147,8.94607l-.04968.03564a3.23793,3.23793,0,0,1,.55127.34415l.00772.00482A2.11509,2.11509,0,0,0,49.68147,8.94607Z" style="fill:#231f20"/><path d="M47.23094,9.19192c.24326-.09543.43357-.13565.50675-.18564a3.13882,3.13882,0,0,0-.47046.12829C47.45,9.09365,47.26363,9.16024,47.23094,9.19192Z" style="fill:#231f20"/><path d="M46.82027,9.28756a1.45723,1.45723,0,0,1,.2081-.1149l-.10245.02994A.56125.56125,0,0,1,46.82027,9.28756Z" style="fill:#231f20"/><path d="M46.92592,9.2026c.005-.01239-.02979-.00446-.10742.04153Z" style="fill:#231f20"/><path d="M47.35085,8.97478c-.15513.02173-.13486.04618-.38065.15772C46.96742,9.17443,47.21669,9.01284,47.35085,8.97478Z" style="fill:#231f20"/><polygon points="46.362 9.513 46.279 9.552 46.288 9.595 46.362 9.513" style="fill:#231f20"/><path d="M45.49,11.26177c.02716-.2493-.06913.13425-.08146.15765C45.43623,11.36593,45.45915,11.31249,45.49,11.26177Z" style="fill:#231f20"/><path d="M46.08183,9.6563a.69517.69517,0,0,1,.08615-.03579l.02082-.04432a.93643.93643,0,0,1,.18921-.1499C46.39561,9.35323,46.18385,9.56408,46.08183,9.6563Z" style="fill:#231f20"/><path d="M45.54973,10.5852a1.90712,1.90712,0,0,0-.12256.23544" style="fill:#231f20"/><path d="M46.5041,9.13875c.0015-.01684-.37069.18961.02994-.07623-.15817.09644-.36529.26526-.24893.13788-.238.18683.00284.04147-.1358.1853A1.29627,1.29627,0,0,1,46.5041,9.13875Z" style="fill:#231f20"/><path d="M45.93153,9.58263a1.28508,1.28508,0,0,0-.267.30979C45.75176,9.76934,45.86333,9.6939,45.93153,9.58263Z" style="fill:#231f20"/><polygon points="45.775 9.623 45.94 9.489 45.824 9.558 45.775 9.623" style="fill:#231f20"/><line x1="45.24065" y1="12.38274" x2="45.28871" y2="12.36657" style="fill:#231f20"/><path d="M45.28331,10.356a3.10526,3.10526,0,0,1,.27377-.4675,3.3816,3.3816,0,0,0-.27343.40594c-.10981.27894-.03437.15271.06848-.0292A.2951.2951,0,0,1,45.28331,10.356Z" style="fill:#231f20"/><path d="M45.63338,9.90172l.08474-.137a2.58971,2.58971,0,0,0-.266.3537A.81615.81615,0,0,1,45.63338,9.90172Z" style="fill:#231f20"/><path d="M45.4521,10.1184l-.1.14682Z" style="fill:#231f20"/><path d="M45.69017,13.51589l-.19235-.4162A3.73751,3.73751,0,0,0,45.69017,13.51589Z" style="fill:#231f20"/><path d="M45.08656,10.70556l-.02719.07315.02826.03387C45.13533,10.66189,45.09227,10.71224,45.08656,10.70556Z" style="fill:#231f20"/><path d="M44.85371,11.33031a1.93466,1.93466,0,0,0-.03985.55808c.03308-.18082.035-.37991.0863-.6062C44.85634,11.50893,44.86717,11.343,44.85371,11.33031Z" style="fill:#231f20"/><path d="M44.77248,12.01656a2.49255,2.49255,0,0,1,.00567-.484A1.02351,1.02351,0,0,0,44.77248,12.01656Z" style="fill:#231f20"/><path d="M44.92271,12.78167c.016.03952.01761.00543.04929.08365a3.26177,3.26177,0,0,0-.08844-.33487Z" style="fill:#231f20"/><path d="M46.37062,9.37478c-.10318.07925-.18277.16507-.26575.23919a3.70339,3.70339,0,0,1,.41764-.3153Z" style="fill:#231f20"/><path d="M55.21327,9.79586a2.55828,2.55828,0,0,1,.97852,1.57245,3.80128,3.80128,0,0,1-.7572,2.76379l-.0073-.01568a14.493,14.493,0,0,1-1.88882,2.10043l.0513-.01923c.11517-.10434.26394-.24426.19476-.14126a3.831,3.831,0,0,1-.42886.34378l-.10056.12744c-.11172.074-.06943-.046-.33691.20532-.12183.19687-.67.48047-.63022.5556a3.582,3.582,0,0,0-.543.40094l.123-.04153c-.31638.21164-.644.36673-.78894.47888l-.21808.15534-.36249-.2389-.48224-.33065c-.06622-.10428.43112.31482.19428.08328A18.48156,18.48156,0,0,1,47.5536,15.552c.01975.02625.08851.10392.03113.05487-.12646-.19168-.37942-.37216-.60162-.675a3.36746,3.36746,0,0,0,.45929.55337c-.13111-.03119-.05707-.07788-.39231-.41025.01853.02756.056.08325.04731.08487-.3187-.34344-.08567-.171-.331-.43435l.11109.16522c-.22431-.26993-.0907-.07111-.34577-.3743.06787.0209-.02227-.15179-.08023-.236-.04474-.02463-.25634-.33423-.25525-.277-.183-.443-.34835-.49863-.45593-.928-.1124-.1568.04309.18024.00848.17893-.22134-.40519-.02456-.15021-.08419-.30271a2.33121,2.33121,0,0,1-.21512-.92383l-.03223-.01413a2.33059,2.33059,0,0,1,.236-1.09835c.011-.15952-.09637.11505-.15359.37039-.03391.04873.01361-.22022.06378-.33808a.37734.37734,0,0,0-.05032.15433c-.03314.01013.03351-.16922.05655-.23587.17025-.42578-.04541.17087.03726-.00156.03537-.16888.25433-.53842.131-.40237.19138-.31451.10788-.10321.22626-.25a3.75574,3.75574,0,0,0-.29.50986c-.01324.07382.00339.0509.05481-.02475a5.84494,5.84494,0,0,1,.44516-.72342l.11981-.09052a1.09375,1.09375,0,0,1,.08347-.12176l.05075-.0351a2.83015,2.83015,0,0,0-.44272.32511c-.03207.00427.09775-.14533.16937-.22016l.07981-.036c.19961-.16882.09671-.195.401-.40207-.16126.16269.36783-.1745.61462-.22015.22992-.16712-.05536-.04492.14734-.19058a2.70457,2.70457,0,0,1,1.00735-.146c-.78045.02975.37424.03448-.24514.09067.129-.00034.23382-.014.36651-.006.09394.0664-.1911.04187-.02325.09484l.05661-.0379c.176.04749.27463.10083.59866.2027a.79182.79182,0,0,1,.35321.09952c.02909.051.05371.05984.32166.22335.27316.13874.17117.02662-.03037-.12719-.19946-.15634-.52182-.29718-.573-.34882a7.23772,7.23772,0,0,0-.95945-.24924,2.124,2.124,0,0,0-1.2023.12626l-.41656.27484c-.1817.18289.48428-.24076.72256-.2331-.09961.05106-.20148.08893-.29227.12513a1.00847,1.00847,0,0,1,.12064-.0029c-.4906.25692-.3128.05938-.7139.35235l.082-.07464c-.07232.06262-.15072.11718-.2174.18536l.05389-.03656-.33972.35767c.0437-.06006.0831-.1254.13147-.18277-.08777.12387-.15814.11309-.28433.2915a.97379.97379,0,0,1,.12042-.20309,2.54329,2.54329,0,0,0-.53235.72326,3.47391,3.47391,0,0,0-.32056,1.39087,3.86011,3.86011,0,0,0,.30536,1.37314l-.03467-.108a1.29232,1.29232,0,0,1,.1377.34924,3.92716,3.92716,0,0,0,.24356.47009,10.85175,10.85175,0,0,0,.69266.93522c-.00372.03051-.02994.01229-.069-.03022.114.12537.18732.19785.097.057.19635.21551.26014.33292.40558.49249l-.35437-.3443c.12464.16727.15439.13175.32859.35047.31463.30774-.107-.16553-.03794-.15177q.05479.0695.11563.13358c-.03289-.05493-.06314-.112-.09167-.17032a5.68875,5.68875,0,0,1,.45364.59424l-.181-.212c-.109-.03808.31482.34162.38944.44467l-.02988-.02346c.31073.29855-.04828-.08347.16751.11322.11466.12793.22577.26049.34622.38308l-.04242-.0841c.23633.18518.63956.60751,1.02283.92746.216.18362.53015.394.8252.60522-.04923-.047-.15515-.13736-.11447-.12076.16928.13291.55191.40351.39508.33734l.26535.15339c.09228.06283.15118.11315.2178.16665l-.06741-.065.29144.1824.04663-.03244c-.00516.01218.12766-.05468-.047.06168a14.53759,14.53759,0,0,0,1.29819-.93643l-.14172.12768c.28589-.24572.34811-.22415.65808-.49408l-.08948.035a3.21181,3.21181,0,0,1,.6221-.4513c-.01239-.0769.14054-.09533.23639-.25836l.17673-.07205c.13315-.13721.2615-.27353.14822-.21045a2.35082,2.35082,0,0,0,.51267-.49478l.00427-.00672.00326-.00546.00058.00086c.04233-.051.25354-.25275.14322-.18006a9.32192,9.32192,0,0,0,.72525-.70923l-.0176-.0495a5.28843,5.28843,0,0,0,.7521-1.13552l.05917-.022c.12034-.22683-.04269.03064.12775-.329.03-.04724.06223-.08676.06732-.07357a3.60727,3.60727,0,0,0,.42551-1.42023.50284.50284,0,0,1,.00525.12063,2.44247,2.44247,0,0,0-.09406-.94979,2.91869,2.91869,0,0,0-1.41009-2.0922c-.66764-.28906-1.14554-.217-1.21414-.12088A4.247,4.247,0,0,1,55.21327,9.79586Z" style="fill:#231f20"/><path d="M35.80715,31.75929a1.862,1.862,0,0,1,.84674-.365,1.62544,1.62544,0,0,1,.85563.0701.98226.98226,0,0,1,.64423.61418,1.46574,1.46574,0,0,1-.1235,1.11934,3.59592,3.59592,0,0,1-2.21531,1.6701.05645.05645,0,0,0-.02336.0089q.015,1.165.10125,2.04285a.129.129,0,0,1-.03116.1057.15776.15776,0,0,1-.09791.05007.11487.11487,0,0,1-.10014-.03115.14848.14848,0,0,1-.05118-.09347q-.10014-1.0548-.10125-2.57247,0-.41892.01223-1.27733c.00779-.573.01113-1.00362.01113-1.29514a.14682.14682,0,0,1,.1402-.13908A.12731.12731,0,0,1,35.80715,31.75929ZM35.79158,34.581A3.30083,3.30083,0,0,0,37.781,33.08892a1.24867,1.24867,0,0,0,.109-.91683.7472.7472,0,0,0-.474-.45063,1.38441,1.38441,0,0,0-.80445-.03115,1.49513,1.49513,0,0,0-.7733.41947.07.07,0,0,0-.02337.01558c0,.217-.00445.57969-.01224,1.08484s-.01112.89458-.01112,1.16829V34.581Z" style="fill:#231f20"/><path d="M38.84583,31.58905q-.06175,1.79416-.03116,2.992a2.13481,2.13481,0,0,1,.59083-1.02588.70913.70913,0,0,1,.49735-.22475.6688.6688,0,0,1,.44284.15577,1.49413,1.49413,0,0,1,.50515.80779A5.25661,5.25661,0,0,1,41.03,35.6536a5.19625,5.19625,0,0,1-.15577,1.36857.1126.1126,0,0,1-.05786.089.16063.16063,0,0,1-.109.01557.1191.1191,0,0,1-.08568-.06231.13258.13258,0,0,1-.01112-.10459,5.62667,5.62667,0,0,0-.02337-2.588,1.19961,1.19961,0,0,0-.4128-.66092.37258.37258,0,0,0-.2637-.10126.48456.48456,0,0,0-.31822.148,2.26021,2.26021,0,0,0-.6064,1.4765,7.96506,7.96506,0,0,0-.03894.88679c0,.48067-.00334.76551-.00779.85452v.13129a.17131.17131,0,0,1-.00779.04674.07028.07028,0,0,1-.00779.02336.13385.13385,0,0,1-.06231.05452.12971.12971,0,0,1-.148-.01557.11842.11842,0,0,1-.03894-.04674l-.01558-.04673v-.15577q-.00668-.15356-.02337-.38053-.00668-.04673-.069-1.28957-.07845-1.48374,0-3.723a.11915.11915,0,0,1,.04228-.09347.14791.14791,0,0,1,.10125-.03894.12637.12637,0,0,1,.0968.04228A.155.155,0,0,1,38.84583,31.58905Z" style="fill:#231f20"/><path d="M42.47532,33.24469a1.57688,1.57688,0,0,1,.80446.44618,1.77172,1.77172,0,0,1,.43171.72768,2.573,2.573,0,0,1,.07789.84673,2.43257,2.43257,0,0,1-.41614,1.23172,1.23453,1.23453,0,0,1-.94354.58748.94361.94361,0,0,1-.95688-.49847,2.10015,2.10015,0,0,1-.24034-1.18832,3.303,3.303,0,0,1,.31822-1.32184,1.64513,1.64513,0,0,1,.76218-.86231A.12311.12311,0,0,1,42.47532,33.24469Zm-.11571.257a1.56461,1.56461,0,0,0-.59083.75661,3.17571,3.17571,0,0,0-.257,1.146,1.89145,1.89145,0,0,0,.2025,1.03477.68362.68362,0,0,0,.69987.365.9793.9793,0,0,0,.73769-.48957,1.99289,1.99289,0,0,0,.35717-1.06481,1.88419,1.88419,0,0,0-.24034-1.12713A1.34418,1.34418,0,0,0,42.35961,33.50172Z" style="fill:#231f20"/><path d="M44.37909,32.981a3.06277,3.06277,0,0,0-.44284.03.12982.12982,0,0,1-.10126-.0267.13595.13595,0,0,1-.05452-.09346.14329.14329,0,0,1,.02782-.10571.13336.13336,0,0,1,.0968-.0534,3.687,3.687,0,0,1,.48178-.03116c.02559-.46732.04117-.80556.04674-1.01808a.12281.12281,0,0,1,.04228-.09347.14791.14791,0,0,1,.10125-.03894.13048.13048,0,0,1,.09791.04228.155.155,0,0,1,.03895.1057q-.00835.32545-.04674,1.00251c.15021.00445.32379.01558.52073.03116a.15507.15507,0,0,1,.10014.05007.117.117,0,0,1,.03115.10125.15776.15776,0,0,1-.05007.09791.11733.11733,0,0,1-.0968.03c-.2025-.01446-.37385-.02559-.51293-.03a20.52578,20.52578,0,0,0,.03894,3.27122.963.963,0,0,0,.28706.63756.45315.45315,0,0,0,.56746.00778.14516.14516,0,0,1,.10459-.00778.13072.13072,0,0,1,.08568.06119.13757.13757,0,0,1,.01224.10571.159.159,0,0,1-.06231.09012.718.718,0,0,1-.89458-.04673,1.25667,1.25667,0,0,1-.38053-.81669A21.07532,21.07532,0,0,1,44.37909,32.981Z" style="fill:#231f20"/><path d="M47.27756,33.24469a1.57688,1.57688,0,0,1,.80446.44618,1.77172,1.77172,0,0,1,.43171.72768,2.573,2.573,0,0,1,.07789.84673,2.43257,2.43257,0,0,1-.41614,1.23172,1.23453,1.23453,0,0,1-.94353.58748.94362.94362,0,0,1-.95689-.49847,2.10015,2.10015,0,0,1-.24034-1.18832,3.303,3.303,0,0,1,.31822-1.32184,1.64513,1.64513,0,0,1,.76218-.86231A.12311.12311,0,0,1,47.27756,33.24469Zm-.11571.257a1.5646,1.5646,0,0,0-.59082.75661,3.17551,3.17551,0,0,0-.257,1.146,1.89145,1.89145,0,0,0,.2025,1.03477.68362.68362,0,0,0,.69987.365.9793.9793,0,0,0,.73769-.48957,1.99289,1.99289,0,0,0,.35717-1.06481,1.88419,1.88419,0,0,0-.24034-1.12713A1.34418,1.34418,0,0,0,47.16185,33.50172Z" style="fill:#231f20"/><path d="M51.094,33.76542a.48093.48093,0,0,0-.62865-.02337,2.57064,2.57064,0,0,0-.77775.79221,3.38914,3.38914,0,0,0-.50515,1.096.85406.85406,0,0,0,.08567.77774.26035.26035,0,0,0,.31822.03783,1.442,1.442,0,0,0,.48179-.38052,3.54458,3.54458,0,0,0,.43616-.53631,3.1772,3.1772,0,0,0,.28706-.46509,3.09869,3.09869,0,0,0,.21809-.64534.91563.91563,0,0,1,.05452-.19472.19649.19649,0,0,1,.09235-.10125.18308.18308,0,0,1,.21808.05452.08463.08463,0,0,1,.01558.02337.08031.08031,0,0,1,.00778.03115.35637.35637,0,0,1,.01558.05452c.00445.03672.01558.0879.03116.15466.01557.109.03894.26036.07009.45174q.07678.5441.09235.69208a5.53818,5.53818,0,0,1-.00667,1.65452,1.88324,1.88324,0,0,1-.42059.83116,1.59638,1.59638,0,0,1-.64868.46732,1.36675,1.36675,0,0,1-.66426.07788.7773.7773,0,0,1-.41947-.17914.564.564,0,0,1-.19471-.38831c-.01558-.12017.00111-.18916.05007-.2103.05007-.02114.12573.03895.2292.17914q.02337.27038.37386.326a1.05108,1.05108,0,0,0,.52851-.06565,1.40994,1.40994,0,0,0,.5363-.39277,1.55973,1.55973,0,0,0,.34938-.70765,4.92689,4.92689,0,0,0,.00779-1.56217c-.01-.09235-.04117-.32156-.09347-.68429l-.02336-.17024q-.07009.202-.17024.42727a3.89537,3.89537,0,0,1-.30376.50514,4.46131,4.46131,0,0,1-.4662.56746,1.735,1.735,0,0,1-.57525.44284.50919.50919,0,0,1-.62976-.10793A1.09216,1.09216,0,0,1,48.911,35.569a3.6238,3.6238,0,0,1,.54409-1.19055,2.696,2.696,0,0,1,.87789-.87677.73111.73111,0,0,1,.96356.06119.15857.15857,0,0,1,.03895.10125.13967.13967,0,0,1-.04229.09792.13769.13769,0,0,1-.09791.04228A.15852.15852,0,0,1,51.094,33.76542Z" style="fill:#231f20"/><path d="M51.91068,36.93539v-.19361a.06174.06174,0,0,1-.00779-.03115V36.408c0-.09791-.00222-.27371-.00445-.52517s-.00334-.444-.00334-.57858c.00445-.27483.01558-.70209.03116-1.28179a.11913.11913,0,0,1,.04228-.09346.14392.14392,0,0,1,.10125-.04006.12739.12739,0,0,1,.0968.0434.15109.15109,0,0,1,.03895.1057q-.015.56578-.02337.82337l.01558-.04673a2.59676,2.59676,0,0,1,1.36746-1.67122.12751.12751,0,0,1,.10125-.00445.12985.12985,0,0,1,.07788.07121.136.136,0,0,1,.00445.10459.13187.13187,0,0,1-.07454.07789,2.3135,2.3135,0,0,0-1.21169,1.50654A6.7986,6.7986,0,0,0,52.19,36.8664v.1402a.02294.02294,0,0,1-.00779.01557.09153.09153,0,0,1-.02337.05341.12409.12409,0,0,1-.10125.04673.12273.12273,0,0,1-.11572-.04673.09158.09158,0,0,1-.02336-.05341.03247.03247,0,0,1-.00779-.02448v-.0623Z" style="fill:#231f20"/><path d="M56.03754,33.55512a.58871.58871,0,0,0-.77.03116,2.64525,2.64525,0,0,0-.76106.99472,3.587,3.587,0,0,0-.38165,1.30626q-.04673.63756.24924.84673a.38527.38527,0,0,0,.52072-.01557A2.09587,2.09587,0,0,0,55.4,35.94957q.17859-.40391.38053-1.02587.2103-.65425.23366-.69208v-.09346a.31822.31822,0,0,1,.03115-.11572.17153.17153,0,0,1,.178-.09346.13674.13674,0,0,1,.109.07788.05929.05929,0,0,1,.01558.04562.17122.17122,0,0,1,.01224.05007c.00222.02448.00334.07121.00334.14465.00556.21252.01335.40723.02336.583.00556.09792.01.24034.01558.42726.01.207.02.365.03115.474a9.85332,9.85332,0,0,0,.148,1.25063.15108.15108,0,0,1-.02337.10236.136.136,0,0,1-.09012.05786.13208.13208,0,0,1-.10459-.02.14582.14582,0,0,1-.06231-.09346q-.08512-.46564-.148-1.28179l-.02336-.474q-.015-.30375-.02337-.42726v-.01558l-.05341.178a10.36659,10.36659,0,0,1-.39722,1.057,2.40208,2.40208,0,0,1-.583.86342.64388.64388,0,0,1-.8701.03783,1.16852,1.16852,0,0,1-.35716-1.09486,3.92611,3.92611,0,0,1,.41168-1.4153,2.96283,2.96283,0,0,1,.85452-1.09486.82719.82719,0,0,1,1.096-.02448.1466.1466,0,0,1,.05452.09347.12013.12013,0,0,1-.03115.10125.14142.14142,0,0,1-.09346.05452A.12.12,0,0,1,56.03754,33.55512Z" style="fill:#231f20"/><path d="M57.21807,36.78851V38.265a.137.137,0,0,1-.237.09681.12926.12926,0,0,1-.04228-.09681q0-.83115.00779-2.49458.00668-1.664.00779-2.4957a.12861.12861,0,0,1,.04228-.09568.13223.13223,0,0,1,.0968-.0434.13456.13456,0,0,1,.09791.0434.13283.13283,0,0,1,.04229.09568v1.25953a3.23585,3.23585,0,0,1,.24144-.48957q.489-.83115,1.126-.81558a.77211.77211,0,0,1,.65258.3338,1.51264,1.51264,0,0,1-.0701,1.55439,3.88207,3.88207,0,0,1-.44228.71544,2.8346,2.8346,0,0,1-.50515.51294A2.5506,2.5506,0,0,1,57.21807,36.78851Zm.00779-1.36857v1.08151a2.22827,2.22827,0,0,0,.83894-.37386,2.50276,2.50276,0,0,0,.45842-.474,3.54774,3.54774,0,0,0,.40445-.652,1.29149,1.29149,0,0,0,.09346-1.28289.49649.49649,0,0,0-.42-.2103q-.48066-.015-.88567.68429A5.15809,5.15809,0,0,0,57.22586,35.41994Z" style="fill:#231f20"/><path d="M60.10153,31.58905q-.06175,1.79416-.03116,2.992a2.13488,2.13488,0,0,1,.59082-1.02588.70917.70917,0,0,1,.49736-.22475.6688.6688,0,0,1,.44284.15577,1.49413,1.49413,0,0,1,.50515.80779,5.25661,5.25661,0,0,1,.17914,1.35967,5.19625,5.19625,0,0,1-.15577,1.36857.1126.1126,0,0,1-.05786.089.16063.16063,0,0,1-.109.01557.1191.1191,0,0,1-.08568-.06231.13258.13258,0,0,1-.01112-.10459,5.62667,5.62667,0,0,0-.02337-2.588,1.19961,1.19961,0,0,0-.4128-.66092.37258.37258,0,0,0-.2637-.10126.48456.48456,0,0,0-.31822.148,2.26021,2.26021,0,0,0-.6064,1.4765,7.96506,7.96506,0,0,0-.03894.88679c0,.48067-.00334.76551-.00779.85452v.13129a.17131.17131,0,0,1-.00779.04674.07028.07028,0,0,1-.00779.02336.13385.13385,0,0,1-.06231.05452.12971.12971,0,0,1-.148-.01557.11842.11842,0,0,1-.03894-.04674l-.01558-.04673v-.15577q-.00667-.15356-.02337-.38053-.00667-.04673-.069-1.28957-.07845-1.48374,0-3.723a.11915.11915,0,0,1,.04228-.09347.14791.14791,0,0,1,.10125-.03894.12637.12637,0,0,1,.0968.04228A.155.155,0,0,1,60.10153,31.58905Z" style="fill:#231f20"/><path d="M62.5338,34.80687a3.16609,3.16609,0,0,1,.27928-.89347,1.21359,1.21359,0,0,1,.89347-.76217.64771.64771,0,0,1,.43171.07788.576.576,0,0,1,.24478.31823,1.1656,1.1656,0,0,1-.10125.84673,1.38626,1.38626,0,0,1-.652.69986,1.15776,1.15776,0,0,1-.85563.06231c-.00445.04673-.00779.0968-.00779.148a2.09345,2.09345,0,0,0,.24144,1.16606.739.739,0,0,0,.8078.365,1.10265,1.10265,0,0,0,.56745-.28039,2.11959,2.11959,0,0,0,.45063-.56746.15227.15227,0,0,1,.08567-.06231.14242.14242,0,0,1,.10459.01224.13391.13391,0,0,1,.06676.08122.16037.16037,0,0,1-.00778.109,2.79975,2.79975,0,0,1-.52852.64535,1.34981,1.34981,0,0,1-.69207.3427,1.01139,1.01139,0,0,1-1.096-.49848,2.3152,2.3152,0,0,1-.27928-1.32072,2.08322,2.08322,0,0,1,.01558-.2637.12622.12622,0,0,1-.03116-.16468A.11507.11507,0,0,1,62.5338,34.80687Zm.27149.06119a.88079.88079,0,0,0,.69986-.02225,1.11536,1.11536,0,0,0,.52073-.56746.905.905,0,0,0,.08567-.64534.30211.30211,0,0,0-.37385-.2025q-.38887.04673-.67538.60751A3.02472,3.02472,0,0,0,62.80529,34.86806Z" style="fill:#231f20"/><path d="M65.449,36.93539v-.19361a.06174.06174,0,0,1-.00779-.03115V36.408c0-.09791-.00222-.27371-.00445-.52517s-.00334-.444-.00334-.57858c.00445-.27483.01558-.70209.03116-1.28179a.11913.11913,0,0,1,.04228-.09346.14392.14392,0,0,1,.10125-.04006.12739.12739,0,0,1,.0968.0434.15109.15109,0,0,1,.03895.1057q-.015.56578-.02337.82337l.01558-.04673a2.59679,2.59679,0,0,1,1.36746-1.67122.12751.12751,0,0,1,.10125-.00445.12985.12985,0,0,1,.07788.07121.136.136,0,0,1,.00445.10459.13187.13187,0,0,1-.07454.07789,2.3135,2.3135,0,0,0-1.21169,1.50654,6.7986,6.7986,0,0,0-.2726,1.96718v.1402a.02294.02294,0,0,1-.00779.01557.09153.09153,0,0,1-.02337.05341.12409.12409,0,0,1-.10125.04673.1227.1227,0,0,1-.11571-.04673.09153.09153,0,0,1-.02337-.05341.03247.03247,0,0,1-.00779-.02448v-.0623Z" style="fill:#231f20"/><path d="M.49364,7.821a4.26124,4.26124,0,0,1,1.95312.54931A5.54287,5.54287,0,0,1,4.09422,9.77508a4.97278,4.97278,0,0,1,.97071,1.92822,4.13723,4.13723,0,0,1-.05078,2.13281,4.24309,4.24309,0,0,1-1.75,2.145,4.405,4.405,0,0,1-1.14942.58106,4.78878,4.78878,0,0,1-1.26367.19824.23473.23473,0,0,1-.166.166.25454.25454,0,0,1-.17871-.03857.24144.24144,0,0,1-.10254-.14014A18.89481,18.89481,0,0,1,.104,14.45525Q.00731,13.18449.00145,12.38006q-.00586-.80421.0127-2.39453.019-1.59009.01953-2.11329A.22007.22007,0,0,1,.104,7.71258a.219.219,0,0,1,.15918-.07032A.22129.22129,0,0,1,.49364,7.821Zm.293,8.47949a4.28723,4.28723,0,0,0,1.1748-.166,3.82629,3.82629,0,0,0,1.04785-.53613,3.72922,3.72922,0,0,0,1.57031-1.89014,3.65429,3.65429,0,0,0,.03809-1.89013,4.6427,4.6427,0,0,0-.88086-1.76221A5.3116,5.3116,0,0,0,2.24266,8.79168a3.72513,3.72513,0,0,0-1.749-.51074q0,.45923-.01953,1.5708-.019,1.11108-.01954,1.71093,0,.60058.0254,1.51319.02635.91332.10253,1.69873Q.65869,15.55975.78661,16.30047Z" style="fill:#231f20"/><path d="M9.20165,10.988a.96638.96638,0,0,0-1.26368.05127A4.34617,4.34617,0,0,0,6.686,12.674a5.90264,5.90264,0,0,0-.625,2.145q-.07764,1.04736.4082,1.39209a.6343.6343,0,0,0,.85547-.02539,3.46293,3.46293,0,0,0,.83008-1.26416q.29444-.6643.626-1.686.34423-1.07228.38281-1.13623V11.946a.55352.55352,0,0,1,.05176-.19141.28348.28348,0,0,1,.293-.15332.22514.22514,0,0,1,.17871.12744.10286.10286,0,0,1,.02636.07666.28024.28024,0,0,1,.01856.083c.0039.03857.00683.11719.00683.23633q.01173.52368.03809.95752.01171.24315.02539.70263c.0166.34082.03418.6001.05078.77881a16.40079,16.40079,0,0,0,.24317,2.05615.23905.23905,0,0,1-.03809.166.2368.2368,0,0,1-.31934.064.24524.24524,0,0,1-.10253-.15332A21.07651,21.07651,0,0,1,9.394,14.58953l-.03906-.7793q-.02492-.498-.03809-.70215v-.02587l-.08887.29394A17.48453,17.48453,0,0,1,8.57665,15.113a3.94932,3.94932,0,0,1-.958,1.41748,1.061,1.061,0,0,1-1.43067.064,1.92544,1.92544,0,0,1-.58691-1.80078,6.46073,6.46073,0,0,1,.67676-2.32422,4.84782,4.84782,0,0,1,1.40429-1.80078,1.35931,1.35931,0,0,1,1.80079-.03808.24285.24285,0,0,1,.08984.15332.20722.20722,0,0,1-.05176.166.23883.23883,0,0,1-.15332.08936A.2056.2056,0,0,1,9.20165,10.988Z" style="fill:#231f20"/><path d="M10.98973,13.24822a8.398,8.398,0,0,1,.81738-1.7749,2.68115,2.68115,0,0,1,.89356-.94483.96633.96633,0,0,1,1.17578.11475,2.11926,2.11926,0,0,1,.625,1.17481,9.38288,9.38288,0,0,1,.23047,1.67285q.0249.51123.03125,1.09863c.00488.3916.00195.794-.00586,1.20654q-.01319.61964-.0127.75977a.23006.23006,0,0,1-.46,0q0-.13989.0127-.75342.01318-.613.00683-1.1875-.00732-.57495-.03222-1.09814a9.33146,9.33146,0,0,0-.2168-1.5835,1.792,1.792,0,0,0-.46-.93262.57361.57361,0,0,0-.67676-.06347,2.21067,2.21067,0,0,0-.71582.7915,6.96863,6.96863,0,0,0-.54883,1.0791,9.02648,9.02648,0,0,0-.34472.96436q-.06446.25562-.11524.52343a5.35445,5.35445,0,0,0-.07617.59375c-.01758.21729-.03223.38965-.04492.51709q-.019.19189-.03809.60694-.019.41528-.03222.55517a.17249.17249,0,0,1-.0127.07666v.02588a.10859.10859,0,0,0-.01269.05078.22971.22971,0,0,1-.17872.12793.2108.2108,0,0,1-.22949-.12793l-.02636-.05078a.09517.09517,0,0,0-.0127-.03857v-1.877q0-2.74585-.07617-3.71631a.18889.18889,0,0,1,.05078-.15967.25637.25637,0,0,1,.16016-.083.19839.19839,0,0,1,.166.05127.26.26,0,0,1,.083.166Q10.98973,11.92059,10.98973,13.24822Z" style="fill:#231f20"/><path d="M15.63915,8.82976a.19453.19453,0,0,1,.07617.15332.23006.23006,0,1,1-.38965-.15966.22306.22306,0,0,1,.16015-.07032A.19507.19507,0,0,1,15.63915,8.82976Zm.22949,1.86475a39.679,39.679,0,0,0,.1914,5.98926.21288.21288,0,0,1-.04492.166.22111.22111,0,0,1-.15332.08936.231.231,0,0,1-.26172-.20459,40.78275,40.78275,0,0,1-.1914-6.04.21334.21334,0,0,1,.07031-.166.23987.23987,0,0,1,.166-.064.20748.20748,0,0,1,.16016.07031A.2333.2333,0,0,1,15.86864,10.69451Z" style="fill:#231f20"/><path d="M16.59618,13.04412a5.22163,5.22163,0,0,1,.46-1.46875,1.99654,1.99654,0,0,1,1.46875-1.25147,1.06718,1.06718,0,0,1,.709.12793.94807.94807,0,0,1,.40235.52344,1.92294,1.92294,0,0,1-.166,1.39209A2.28919,2.28919,0,0,1,18.397,13.51678a1.89965,1.89965,0,0,1-1.4043.10205,2.13731,2.13731,0,0,0-.01269.24267,3.454,3.454,0,0,0,.3955,1.91553,1.21489,1.21489,0,0,0,1.32813.6001,1.81827,1.81827,0,0,0,.93262-.45948,3.51258,3.51258,0,0,0,.74023-.93261.24648.24648,0,0,1,.14062-.10205.22533.22533,0,0,1,.17286.019.21882.21882,0,0,1,.10839.13428.26321.26321,0,0,1-.01269.17871,4.54084,4.54084,0,0,1-.86914,1.06006,2.20569,2.20569,0,0,1-1.13574.562A1.65869,1.65869,0,0,1,16.98,16.01971a3.80809,3.80809,0,0,1-.46-2.1709,3.81244,3.81244,0,0,1,.0254-.43457.20547.20547,0,0,1-.05079-.26807A.20038.20038,0,0,1,16.59618,13.04412Zm.44726.10205a1.4494,1.4494,0,0,0,1.14942-.03809,1.83773,1.83773,0,0,0,.85546-.93212,1.47783,1.47783,0,0,0,.14063-1.06006.49352.49352,0,0,0-.61328-.332Q17.937,10.86,17.46532,11.78A4.9243,4.9243,0,0,0,17.04344,13.14617Z" style="fill:#231f20"/><path d="M22.10008,7.91033a80.38777,80.38777,0,0,0,.05176,8.95215.24683.24683,0,0,1-.05762.15967.20769.20769,0,0,1-.15332.07666.22975.22975,0,0,1-.166-.05127.23468.23468,0,0,1-.083-.15967,81.06211,81.06211,0,0,1-.05078-9.00293.20071.20071,0,0,1,.07031-.15332.2365.2365,0,0,1,.166-.064.20854.20854,0,0,1,.15918.07032A.24523.24523,0,0,1,22.10008,7.91033Z" style="fill:#231f20"/><path d="M25.95653,10.988a.96636.96636,0,0,0-1.26367.05127,4.34619,4.34619,0,0,0-1.252,1.63476,5.90264,5.90264,0,0,0-.625,2.145q-.07762,1.04736.40821,1.39209a.63429.63429,0,0,0,.85546-.02539,3.46293,3.46293,0,0,0,.83008-1.26416q.29444-.6643.626-1.686.34423-1.07228.38281-1.13623V11.946a.55352.55352,0,0,1,.05176-.19141.28349.28349,0,0,1,.293-.15332.22511.22511,0,0,1,.17871.12744.10282.10282,0,0,1,.02637.07666.28029.28029,0,0,1,.01855.083c.00391.03857.00684.11719.00684.23633q.01171.52368.03808.95752.01173.24315.02539.70263c.01661.34082.03418.6001.05079.77881a16.4011,16.4011,0,0,0,.24316,2.05615.239.239,0,0,1-.03809.166.23679.23679,0,0,1-.31933.064.24521.24521,0,0,1-.10254-.15332,21.07651,21.07651,0,0,1-.24219-2.10693l-.03906-.7793q-.0249-.498-.03809-.70215v-.02587l-.08886.29394a17.48426,17.48426,0,0,1-.65137,1.73682,3.94919,3.94919,0,0,1-.958,1.41748,1.061,1.061,0,0,1-1.43066.064,1.92541,1.92541,0,0,1-.58692-1.80078,6.46073,6.46073,0,0,1,.67676-2.32422,4.84773,4.84773,0,0,1,1.4043-1.80078,1.35929,1.35929,0,0,1,1.80078-.03808.24285.24285,0,0,1,.08984.15332.20722.20722,0,0,1-.05176.166.23883.23883,0,0,1-.15332.08936A.20561.20561,0,0,1,25.95653,10.988Z" style="fill:#231f20"/><path d="M78.7368,10.29851a.99164.99164,0,0,0-.01269-.12793q-.07618-.5105-.10254-.70214a2.62519,2.62519,0,0,0-.19727-.55567,1.51267,1.51267,0,0,0-.38965-.51709,1.11718,1.11718,0,0,0-.72851-.28711,1.68781,1.68781,0,0,0-.84278.18506,1.9462,1.9462,0,0,0-.70214.52979,1.23755,1.23755,0,0,0-.30665.709,2.10586,2.10586,0,0,0,.53711,1.41748,14.82185,14.82185,0,0,0,1.4043,1.44287,11.42366,11.42366,0,0,1,1.43067,1.53272,2.5905,2.5905,0,0,1,.56152,1.813,1.317,1.317,0,0,1-.83008,1.188,2.14282,2.14282,0,0,1-1.45605-.08935,4.11482,4.11482,0,0,1-1.41114-.92578,2.77484,2.77484,0,0,1-.81054-1.36035.2506.2506,0,0,1,.03808-.17237.21337.21337,0,0,1,.14063-.10205.22767.22767,0,0,1,.17187.03174.24024.24024,0,0,1,.10938.14062,2.32336,2.32336,0,0,0,.67675,1.14942,3.523,3.523,0,0,0,1.251.8042,1.61353,1.61353,0,0,0,1.124.08984.871.871,0,0,0,.53614-.80469,2.12412,2.12412,0,0,0-.47266-1.49414,12.38975,12.38975,0,0,0-1.3789-1.46875,14.17733,14.17733,0,0,1-1.45606-1.49414,2.54714,2.54714,0,0,1-.625-1.72412A1.65392,1.65392,0,0,1,75.397,8.549a2.5646,2.5646,0,0,1,.875-.67676A2.08642,2.08642,0,0,1,77.3325,7.655a1.62612,1.62612,0,0,1,1.00879.3833,1.75041,1.75041,0,0,1,.19141.19775c.05957.07227.11035.13868.15332.19825a1.7459,1.7459,0,0,1,.12793.21679l.10156.21729a1.23637,1.23637,0,0,1,.07715.23c.02539.10205.04395.17676.05664.22314.01367.04688.03027.12793.05176.24268.02051.11523.0332.18945.03809.22363.0039.03418.01269.11279.02539.23633a1.49284,1.49284,0,0,0,.03222.22314.23011.23011,0,0,1-.19824.25538.23017.23017,0,0,1-.26172-.20411Z" style="fill:#231f20"/><path d="M82.30028,12.12469a2.4254,2.4254,0,0,0-.23047-1.08545.39784.39784,0,0,0-.35742-.24268.86387.86387,0,0,0-.55567.313,3.27908,3.27908,0,0,0-.59375.90039,6.02808,6.02808,0,0,0-.35058,1.11084,6.35766,6.35766,0,0,0-.16016,1.27686q-.01318,1.51977.85547,1.89013a.891.891,0,0,0,.91992-.11474q.10254-.07691.2168-.17237a1.90677,1.90677,0,0,0,.1914-.1792c.05176-.05517.11719-.13183.19825-.22949.081-.09814.14062-.168.17871-.21094a2.56025,2.56025,0,0,0,.18554-.25537c.085-.12744.14063-.20849.166-.24267l.17871-.25537c.09375-.14454.14453-.22559.15332-.24268a.21966.21966,0,0,1,.14649-.0957.22226.22226,0,0,1,.26855.17871.22033.22033,0,0,1-.03223.17236l-.15332.24268q-.12744.1919-.17871.25537c-.03418.043-.09179.126-.17187.249-.08106.12354-.14356.21094-.18555.26172l-.2041.24268c-.08594.10253-.16016.18554-.22363.249-.06446.064-.13868.13428-.22364.21094a2.598,2.598,0,0,1-.25586.2041,1.32643,1.32643,0,0,1-1.35351.166q-1.14844-.498-1.13672-2.32421a6.80913,6.80913,0,0,1,.17285-1.37891,5.80208,5.80208,0,0,1,.38965-1.188,3.3915,3.3915,0,0,1,.709-1.08545,1.20785,1.20785,0,0,1,.83594-.40869.82965.82965,0,0,1,.7666.47266,2.7562,2.7562,0,0,1,.29395,1.29.246.246,0,0,1-.06445.17236.20691.20691,0,0,1-.15918.07031.23649.23649,0,0,1-.166-.064A.2.2,0,0,1,82.30028,12.12469Z" style="fill:#231f20"/><path d="M84.8159,7.757q-.10254,2.9502-.05078,4.917a3.50744,3.50744,0,0,1,.96973-1.686,1.16705,1.16705,0,0,1,.81738-.37012,1.10779,1.10779,0,0,1,.72852.25537,2.46906,2.46906,0,0,1,.83007,1.32813,8.70226,8.70226,0,0,1,.29395,2.23486,8.52278,8.52278,0,0,1-.25586,2.24756.18258.18258,0,0,1-.0957.147.25969.25969,0,0,1-.17871.02539.19313.19313,0,0,1-.14063-.10205.22215.22215,0,0,1-.01953-.17236,8.45036,8.45036,0,0,0,.23047-2.13916,8.48894,8.48894,0,0,0-.26856-2.11377,1.97966,1.97966,0,0,0-.67675-1.08545.62369.62369,0,0,0-.43457-.166.796.796,0,0,0-.52344.24268,3.72088,3.72088,0,0,0-.99609,2.42627,13.56493,13.56493,0,0,0-.06348,1.456q0,1.188-.0127,1.40479v.21728a.25941.25941,0,0,1-.01269.07617.11062.11062,0,0,1-.0127.03858.20659.20659,0,0,1-.10254.08935.213.213,0,0,1-.24218-.02539.19474.19474,0,0,1-.06446-.07666l-.02539-.07666v-.25537q-.01318-.25562-.03808-.626-.01319-.07618-.11524-2.11963-.12744-2.439,0-6.11719a.20071.20071,0,0,1,.07031-.15332.23991.23991,0,0,1,.166-.064.21058.21058,0,0,1,.16016.07032A.24966.24966,0,0,1,84.8159,7.757Z" style="fill:#231f20"/><path d="M92.29832,10.988a.96636.96636,0,0,0-1.26367.05127A4.34617,4.34617,0,0,0,89.7827,12.674a5.90264,5.90264,0,0,0-.625,2.145q-.07764,1.04736.4082,1.39209a.6343.6343,0,0,0,.85547-.02539,3.46293,3.46293,0,0,0,.83008-1.26416q.29443-.6643.626-1.686.34423-1.07228.38281-1.13623V11.946a.55352.55352,0,0,1,.05176-.19141.28348.28348,0,0,1,.293-.15332.22514.22514,0,0,1,.17871.12744.10286.10286,0,0,1,.02636.07666.28024.28024,0,0,1,.01856.083c.0039.03857.00683.11719.00683.23633q.01173.52368.03809.95752.01172.24315.02539.70263c.0166.34082.03418.6001.05078.77881a16.40079,16.40079,0,0,0,.24317,2.05615.23905.23905,0,0,1-.03809.166.2368.2368,0,0,1-.31934.064.24524.24524,0,0,1-.10253-.15332,21.07651,21.07651,0,0,1-.24219-2.10693l-.03906-.7793q-.02491-.498-.03809-.70215v-.02587l-.08887.29394a17.48175,17.48175,0,0,1-.65137,1.73682,3.94919,3.94919,0,0,1-.958,1.41748,1.061,1.061,0,0,1-1.43067.064,1.92544,1.92544,0,0,1-.58691-1.80078,6.46073,6.46073,0,0,1,.67676-2.32422,4.84782,4.84782,0,0,1,1.40429-1.80078,1.35929,1.35929,0,0,1,1.80078-.03808.24282.24282,0,0,1,.08985.15332.20722.20722,0,0,1-.05176.166.23883.23883,0,0,1-.15332.08936A.20563.20563,0,0,1,92.29832,10.988Z" style="fill:#231f20"/><path d="M93.75438,16.54314v-.31933a.10719.10719,0,0,1-.0127-.05078V15.675q0-.24243-.00586-.86231-.00732-.61888-.00683-.95117.01319-.67675.05078-2.10693a.2.2,0,0,1,.07031-.15332.23991.23991,0,0,1,.166-.064.20743.20743,0,0,1,.16015.07032.24876.24876,0,0,1,.06348.17236c-.0166.62158-.03027,1.07275-.03808,1.35352l.02539-.07667a4.26827,4.26827,0,0,1,2.248-2.7456.20547.20547,0,0,1,.166-.00635.21541.21541,0,0,1,.127.11475.22536.22536,0,0,1,.00684.17285.21368.21368,0,0,1-.1211.12744,3.80074,3.80074,0,0,0-1.99218,2.47754,11.16888,11.16888,0,0,0-.44727,3.231v.23a.03945.03945,0,0,1-.01269.02539.15877.15877,0,0,1-.03809.08935.20694.20694,0,0,1-.166.07666.21091.21091,0,0,1-.19238-.07666.15877.15877,0,0,1-.03809-.08935.05046.05046,0,0,1-.01269-.03858v-.102Z" style="fill:#231f20"/><path d="M100.53465,10.988a.96636.96636,0,0,0-1.26367.05127A4.34617,4.34617,0,0,0,98.019,12.674a5.90264,5.90264,0,0,0-.625,2.145q-.07764,1.04736.4082,1.39209a.6343.6343,0,0,0,.85547-.02539,3.46293,3.46293,0,0,0,.83008-1.26416q.29444-.6643.626-1.686.34425-1.07228.38282-1.13623V11.946a.55375.55375,0,0,1,.05175-.19141.2835.2835,0,0,1,.293-.15332.22511.22511,0,0,1,.17871.12744.10282.10282,0,0,1,.02637.07666.28056.28056,0,0,1,.01856.083c.0039.03857.00683.11719.00683.23633q.01172.52368.03809.95752.01172.24315.02539.70263c.0166.34082.03418.6001.05078.77881a16.403,16.403,0,0,0,.24316,2.05615.239.239,0,0,1-.03808.166.2368.2368,0,0,1-.31934.064.24521.24521,0,0,1-.10254-.15332,21.077,21.077,0,0,1-.24218-2.10693l-.03907-.7793q-.0249-.498-.03808-.70215v-.02587l-.08887.29394a17.48426,17.48426,0,0,1-.65137,1.73682,3.94919,3.94919,0,0,1-.958,1.41748,1.061,1.061,0,0,1-1.43067.064,1.92544,1.92544,0,0,1-.58691-1.80078,6.4607,6.4607,0,0,1,.67675-2.32422,4.84793,4.84793,0,0,1,1.4043-1.80078,1.35929,1.35929,0,0,1,1.80078-.03808.24286.24286,0,0,1,.08985.15332.20722.20722,0,0,1-.05176.166.23883.23883,0,0,1-.15332.08936A.20563.20563,0,0,1,100.53465,10.988Z" style="fill:#231f20"/><path d="M102.32274,13.24822a8.398,8.398,0,0,1,.81738-1.7749,2.68106,2.68106,0,0,1,.89356-.94483.96633.96633,0,0,1,1.17578.11475,2.11926,2.11926,0,0,1,.625,1.17481,9.38288,9.38288,0,0,1,.23047,1.67285q.0249.51123.03125,1.09863c.00488.3916.00195.794-.00586,1.20654q-.01319.61964-.0127.75977a.23006.23006,0,0,1-.46,0q0-.13989.0127-.75342.01319-.613.00683-1.1875-.00732-.57495-.03222-1.09814a9.33146,9.33146,0,0,0-.2168-1.5835,1.792,1.792,0,0,0-.46-.93262.57361.57361,0,0,0-.67676-.06347,2.21067,2.21067,0,0,0-.71582.7915,6.96863,6.96863,0,0,0-.54883,1.0791,9.02692,9.02692,0,0,0-.34473.96436q-.06444.25562-.11523.52343a5.35445,5.35445,0,0,0-.07617.59375c-.01758.21729-.03223.38965-.04492.51709q-.019.19189-.03809.60694-.019.41528-.03223.55517a.17251.17251,0,0,1-.01269.07666v.02588a.1086.1086,0,0,0-.0127.05078.22971.22971,0,0,1-.17871.12793.2108.2108,0,0,1-.22949-.12793l-.02637-.05078a.09511.09511,0,0,0-.01269-.03857v-1.877q0-2.74585-.07617-3.71631a.18889.18889,0,0,1,.05078-.15967.25637.25637,0,0,1,.16015-.083.19841.19841,0,0,1,.166.05127.26008.26008,0,0,1,.083.166Q102.32274,11.92059,102.32274,13.24822Z" style="fill:#231f20"/></g></g></svg>