<svg xmlns="http://www.w3.org/2000/svg" viewBox="0 0 106.8 38.33"><defs><style>.cls-1{fill:#fff;}.cls-2,.cls-5,.cls-6{fill:#231f20;}.cls-3{fill:#00b5ad;}.cls-4{fill:#3cb0a9;}.cls-5{font-size:6.82px;letter-spacing:0.05em;}.cls-5,.cls-6{font-family:Alittlesunshine, A little sunshine;}.cls-6{font-size:12.77px;}.cls-11,.cls-7{fill:none;}.cls-10,.cls-8,.cls-9{fill:#afb1b4;}.cls-11,.cls-9{stroke:#231f20;}.cls-10,.cls-11,.cls-9{stroke-linecap:round;stroke-linejoin:round;stroke-width:0;}.cls-10{stroke:#fff;}</style></defs><title>Asset 1</title><g id="Layer_2" data-name="Layer 2"><g id="Layer_1-2" data-name="Layer 1"><rect class="cls-1" x="33.42" y="3.85" width="35.74" height="19.06" rx="4.77" ry="4.77"/><path class="cls-2" d="M67,23a5.29,5.29,0,0,0,1.88-1.85,5,5,0,0,0,.92-2.63c0-.84,0-1.48,0-2.2-.06-1.4-.13-2.82-.1-4.72,0-.85,0-1.63,0-2.38a6.35,6.35,0,0,0-.31-2.31A5.42,5.42,0,0,0,66,3.58c-.3,0-.87-.11-1.6-.09s-1.51,0-2.39,0c-1.75,0-3.67-.07-4.87,0-1.62,0-2.5.17-1.26.23-2.24,0-1.67-.13-3.53-.08l.63-.11c-.62,0-1.3-.09-2.11-.07l-.91.12c-2.22-.13-3.48.1-5.9,0,1.58.08-.72.07-.54.16-.37,0-1.82-.07-1.33-.1-1,0-2,0-2.87,0s-1.64,0-2.24.09a4.48,4.48,0,0,0-.72.28,5.47,5.47,0,0,0-2.57,2.38v.18a6.1,6.1,0,0,0-.37,1.45l-.07,1.41c0,2.05.1,4.61.18,6.72a7,7,0,0,0,0,1.62,13.11,13.11,0,0,0,.26,1.4,4.23,4.23,0,0,0,1,1.85,6.4,6.4,0,0,0,1.35,1.11,5.59,5.59,0,0,1-1.43-1,3.68,3.68,0,0,1-1-1.57c.09.33-.22-.36-.29-1s-.07-1.17-.1-.37a5,5,0,0,0,3,4.3,5.45,5.45,0,0,0,1.36.35c.46,0,.91,0,1.36,0,.88,0,1.73,0,2.51-.06-.23.17,3.87.1,5.24.08l.08,0c1.18,0,2.05,0,3.92,0,2.23,0,4.44,0,6.32.06a61.21,61.21,0,0,0,7.28-.19c-3.4-.15-6.59.11-9.11-.18a40.62,40.62,0,0,0,4.33-.1l-1-.06.78,0c-.4-.06.63-.11.51-.17H57.12c1.51.05.51.12.07.19l-1.45,0c.34,0,1.23.06.17.1-.58,0-1.36,0-2,0l1.16-.13c-1.78.1-3.12-.16-4.9-.05l-.54-.14H47.94l.19-.05-2,0a5.66,5.66,0,0,0-1.45.13c-.83,0-1.64,0-2,0l1-.08-.9,0c.62,0-.75.05-1,.08-2,0-1.42,0-2.69-.07-.32,0-.68,0-1,0a4.72,4.72,0,0,1-.8-.1,6.77,6.77,0,0,0-.85-.23,4.24,4.24,0,0,1-2-2.25,4.12,4.12,0,0,1-.28-1.51V16.37l-.06-1c.07-2.69,0-3.91,0-6.71l0,.22a4.68,4.68,0,0,1,.06-1.36,4.84,4.84,0,0,1,1.13-1.93,3.71,3.71,0,0,1,2.18-1.11,7.73,7.73,0,0,1,.81-.06h.8l1.29,0A14.92,14.92,0,0,0,42,4.2c1.27-.07,2.88,0,4,0l-.74,0,1,.06c1.65,0,1.74,0,3.89,0a15.65,15.65,0,0,0,3.74-.26l2.81.14-.06,0a41.86,41.86,0,0,1,5.23-.08L61.67,4a13.39,13.39,0,0,0,1.66,0,8.88,8.88,0,0,1,1.92,0,4.43,4.43,0,0,1,1.91.91,5.57,5.57,0,0,1,1.55,2A5.65,5.65,0,0,1,69,8.88c0,.6,0,1.15.07,1.68,0,1.06.12,2.06.11,3.35a24.58,24.58,0,0,1-.06,2.94v-.28l-.15.58.11.07A14.43,14.43,0,0,1,69,18.78a3.16,3.16,0,0,1-.5,1.34,4.52,4.52,0,0,1-1.15,1.76,5.54,5.54,0,0,0,1.12-1.27l0,0a5,5,0,0,0,.5-1.14,6.19,6.19,0,0,0,.23-1.29,6.79,6.79,0,0,1,0,.78c.15-.89.1-.14.07.12a6.78,6.78,0,0,1-.53,1.44,3.49,3.49,0,0,1-.67,1c-.22.23-.71.59-.56.42a4.61,4.61,0,0,1-1.62.84c-.64.19-1.21.2-1.24.26h-.17A3.42,3.42,0,0,0,67,23Z"/><circle class="cls-3" cx="51.29" cy="13.38" r="11.91"/><path class="cls-2" d="M63.8,11.54a9.16,9.16,0,0,0-.49-1.75,9.08,9.08,0,0,0-1.54-3.23A17.72,17.72,0,0,0,59.3,3.9,13.05,13.05,0,0,0,53,1.1c-.42.09-1.61,0-2.95,0a9.67,9.67,0,0,0-3.57.94c-1.1.56-1.59,1-.76.62A9.74,9.74,0,0,0,43.53,4.1c.09-.13.2-.25.3-.38a7.34,7.34,0,0,0-1.24,1l-.38.59a10.78,10.78,0,0,0-2.27,3.78c.48-1.08-.13.53,0,.44-.17.23-.42,1.29-.37.92a17.91,17.91,0,0,0-.34,3.77,3.33,3.33,0,0,0,.1.55,25,25,0,0,0,.53,2.53l.11.1c.2.54.65,1.5.86,2a10.58,10.58,0,0,0,3.42,3.56,3,3,0,0,0,1,.63,8.67,8.67,0,0,1,1,.39,8.48,8.48,0,0,0,1.47.59c.54.14,1,.28,1.29.37a9.26,9.26,0,0,1-2.6-.68c.21.14-.29-.09-.72-.27s-.76-.41-.29-.06a14.81,14.81,0,0,0,3.84,1.27,9.74,9.74,0,0,0,3.86-.06c-.07.11.65,0,1.49-.2a10.94,10.94,0,0,0,1.25-.45c.39-.17.72-.35,1-.47l.08,0a8.8,8.8,0,0,0,2.36-1.68,14.76,14.76,0,0,0,2.86-3.7,8.41,8.41,0,0,0,1-3,9.56,9.56,0,0,0,0-2.26,17.38,17.38,0,0,1-.57,3.52,7.71,7.71,0,0,1-1.43,2.72,7.36,7.36,0,0,0,1.21-2.86c-.08.21-.19.42-.28.62l.16-.53c-.14.25,0-.46-.08-.4a10.34,10.34,0,0,1-.7,1.85c.51-.94.27-.28.19,0a6.13,6.13,0,0,1-.51.9c.16-.19.51-.72.15-.06a6.85,6.85,0,0,1-.82,1.19c.13-.26.28-.49.38-.75a12.22,12.22,0,0,1-2.33,2.54l-.39.12a9.07,9.07,0,0,1-1,.66l.09-.1a9,9,0,0,1-1.23.65,3.78,3.78,0,0,0-.87.5,6.08,6.08,0,0,1-1.33.4l.63-.25-.61.13c.42-.08-.49.18-.64.21a6.86,6.86,0,0,1-1.13.12l-.74,0A11.48,11.48,0,0,1,50,24.5c-.4-.07-.68-.11-.72-.06a12.07,12.07,0,0,1-4.53-2l-.6-.36a21.4,21.4,0,0,1-1.6-1.66,9.48,9.48,0,0,1-1.32-2l.09.13c-.17-.31-.37-.61-.53-.94s-.21-.64-.31-.91l-.23-.8a4.69,4.69,0,0,1-.18-.85A4.57,4.57,0,0,1,40,14c0-1.85.09-2.68.08-3.31A9.08,9.08,0,0,1,41.1,8l-.18.51.34-.59a12.92,12.92,0,0,1,1.58-2.25c1.5-1.43,1.19-1.32,1.85-2a12.7,12.7,0,0,1,1.83-.86h-.05a4.93,4.93,0,0,1,1.14-.56,14.3,14.3,0,0,1,2.46-.51l-.14-.07c1,0,1.37-.15,2.62-.05A10.2,10.2,0,0,1,54.12,2c.66.16,1.33.44,1.85.59a23.32,23.32,0,0,1,2.35,1.3,6.13,6.13,0,0,1,1,.68,5.61,5.61,0,0,1,.94.9c.7.89,1.26,1.51,1.24,1.78l-.11-.18.08.44h.13a7.58,7.58,0,0,1,.81,2.08A14.65,14.65,0,0,1,63,11c-.1-.38-.21-.8-.3-1.22l0,0c-.14-.39-.5-1.32-.7-1.76l.28.5c-.26-.61,0-.13.12,0,.42,1.28.42.89.7,1.88.05.23.13.66.06.51,0,.29.14.84.17,1.31a2.7,2.7,0,0,0,.11.92v.12A3.71,3.71,0,0,0,63.8,11.54Z"/><circle class="cls-4" cx="63.31" cy="1.24" r="0.99"/><path class="cls-2" d="M64,2.13H64c.08,0,.19-.09.24-.09s0,.13,0,.13a1.14,1.14,0,0,1-.51.13l-.12.09h0a.76.76,0,0,1-.32.06l0,0a3,3,0,0,0-.4-.09l-.05,0a1.54,1.54,0,0,1-.34-.17,1.1,1.1,0,0,1-.29-.34A2,2,0,0,1,62.13,1,.22.22,0,0,1,62.2.83c0-.18.16-.45.35-.57a.21.21,0,0,1,.18,0A.92.92,0,0,1,63.34,0a1.07,1.07,0,0,1,.81.34.69.69,0,0,0,.13.11l0,.06a1,1,0,0,1,.23.46c0,.23-.1.25-.18.27C64.29,1,64.11.92,64,.69a.45.45,0,0,0-.21-.17c-.07,0-.13-.1-.21-.07a.45.45,0,0,0-.48-.12s0,0,0,0a1.13,1.13,0,0,0-.57.51.83.83,0,0,0-.07.45.55.55,0,0,0,0,.13l0,0a3.11,3.11,0,0,0,.12.3.67.67,0,0,0,.18.22c.09.11.3.15.41.22h.1l0,0s.05,0,.08,0c.21,0,.43-.13.57-.13S63.92,2.12,64,2.13Z"/><path class="cls-2" d="M64.58,1.32s0,0,0-.05a.38.38,0,0,0,0,.08V1.28s0,.07,0,0,0-.07,0-.05a.07.07,0,0,0,0,.05s0,0,0-.06v.12Z"/><path class="cls-2" d="M64.5,1.57v0s0,0,0,0,0,0,.08-.05S64.51,1.59,64.5,1.57Z"/><path class="cls-2" d="M64.47,1.43s0-.08,0-.09a.54.54,0,0,1,0,.11Z"/><path class="cls-2" d="M64.15,2.08l-.05,0,.05,0Z"/><path class="cls-2" d="M62.71,2.22a.29.29,0,0,0,.11.11A.28.28,0,0,1,62.71,2.22Z"/><path class="cls-2" d="M62.37,1.68s0,0,0,0,0,0,0,0Z"/><path class="cls-2" d="M62.4,1.61v0A0,0,0,0,0,62.4,1.61Z"/><path class="cls-2" d="M63.84,2.39h0Z"/><path class="cls-2" d="M63.73,2.41h.08l0,0S63.78,2.38,63.73,2.41Z"/><path class="cls-2" d="M63.82,2.38h0c.06,0,.1,0,.18-.08Z"/><path class="cls-2" d="M63.88,2.32l0,0h0l0,0s-.13,0-.17.05Z"/><polygon class="cls-2" points="64.1 1.9 64.1 1.91 64.1 1.9 64.1 1.9"/><path class="cls-2" d="M64,2l0,0s.06,0,.1-.08h0S64,2,64,2Z"/><path class="cls-2" d="M63.63,2.4c.06,0,.11,0,.12-.06l-.11,0S63.64,2.38,63.63,2.4Z"/><path class="cls-2" d="M63.52,2.35l0,0h0Z"/><path class="cls-2" d="M63.55,2.33s0,0,0,0Z"/><path class="cls-2" d="M63.64,2.27s0,0-.09,0S63.61,2.28,63.64,2.27Z"/><polygon class="cls-2" points="63.41 2.3 63.39 2.28 63.38 2.31 63.41 2.3"/><path class="cls-2" d="M63,2.37c.06,0,0,0,0-.05Z"/><path class="cls-2" d="M63.34,2.24l0,0v0h.05S63.37,2.25,63.34,2.24Z"/><line class="cls-2" x1="63.13" y1="2.29" x2="63.08" y2="2.26"/><path class="cls-2" d="M63.45,2.14s-.07,0,0,0-.06,0,0,0,0,0,0,0S63.43,2.14,63.45,2.14Z"/><path class="cls-2" d="M63.33,2.12s0,0-.06,0S63.31,2.15,63.33,2.12Z"/><polygon class="cls-2" points="63.31 2.06 63.34 2.08 63.32 2.05 63.31 2.06"/><line class="cls-2" x1="62.81" y1="2.11" x2="62.79" y2="2.15"/><path class="cls-2" d="M63.19,2.05h.07L63.2,2s0,0,0,0A0,0,0,0,1,63.19,2.05Z"/><path class="cls-2" d="M63.27,2.1h0Z"/><path class="cls-2" d="M63.23,2.08h0Z"/><path class="cls-2" d="M62.62,2l.06.06S62.64,2,62.62,2Z"/><path class="cls-2" d="M63.14,2h0V2A0,0,0,0,0,63.14,2Z"/><path class="cls-2" d="M63.07,1.93s0,0-.06,0,0,0,.06.05S63.07,1.94,63.07,1.93Z"/><path class="cls-2" d="M63,1.86l.05,0S63,1.87,63,1.86Z"/><path class="cls-2" d="M62.93,1.83h0s0,0,0,0Z"/><path class="cls-2" d="M63.42,2.23h0Z"/><path class="cls-2" d="M64.49.71a3,3,0,0,0-.34-.37A1.1,1.1,0,0,0,63.5.09h0a1,1,0,0,0-.61.08h0s.07,0,.05,0-.1,0-.12,0l0,0s0-.06-.09,0-.18.07-.14.12-.08.07-.11.09h0c-.07,0-.15.07-.17.11a1,1,0,0,0-.13.33s0-.11,0-.06a1.49,1.49,0,0,0,0,.76s0,0,0,0,0,.11.06.19,0-.12,0-.16,0,0,0,.12,0,0,0,0,0,.05,0,.12V1.77c0,.07,0,0,.08.09s0,0,0,.07.06.08.07.05.1.09.14.19,0,0,0-.06,0,.05,0,.08a.62.62,0,0,1,.2.12v0c.07.07.21.11.24.15s0,0-.09-.06.06,0,.09,0h0s0,0,.06,0,0,0,0,0,.14,0,.1,0,0,0,.07.06-.09,0-.14,0,0,0,0,0,.21,0,.21,0l0,0,0,0h0s-.11,0-.13-.07,0,0,.06,0l0,0c.06,0,0,0,.12,0s.1,0,.16,0,0,0,0-.1.13-.07.2-.09c-.15.08.1,0,0,.08,0,0,.05,0,.08,0s0,.06,0,.06v0a.29.29,0,0,0,.17,0,.14.14,0,0,1,0-.09s0,0,.1,0-.17.07-.23,0c-.18.11-.26,0-.47,0,0,0,0,0-.08.05s.11,0,.16,0l-.06,0,0,0c-.11,0-.07,0-.17,0h0l-.06,0h0s-.05,0-.1,0l0,0s0,0-.08,0l0,0-.16,0A.7.7,0,0,1,62.69,2V2a.06.06,0,0,1,0-.06l-.06-.08a.67.67,0,0,1-.12-.16h0s0,0,0,0,0-.07,0-.1l.06.06s0,0,0-.07,0,0,0,0v0l0,0a.24.24,0,0,1,0-.15v.05s0-.08,0-.1h0c0-.07,0,0,0,0l0-.09,0,0a.57.57,0,0,1,0-.24,1.28,1.28,0,0,1,0-.17s0,0,0,0,0-.11.06-.08V.84l0,0h0a.14.14,0,0,0,0-.06s0,0,0,0,.06-.14.16-.21l0,0c0-.06.07,0,.11-.09h0s.13-.06.13,0,0,0,0,0l0,0s.06,0,0,0a.12.12,0,0,0,.11,0h0s.06,0,0,0,.07,0,.18,0v0a1.93,1.93,0,0,0,.25,0v0s0,0,.07,0,0,0,0,0a.83.83,0,0,1,.23.14s0,0,0,0L64,.54l.18.42c.1.08.19.17.27.17A.5.5,0,0,0,64.49.71Z"/><path class="cls-1" d="M51.29,4.91a.18.18,0,0,0-.19.19v1a.18.18,0,0,0,.19.19.18.18,0,0,0,.18-.19v-1A.18.18,0,0,0,51.29,4.91Z"/><path class="cls-1" d="M48.05,5.55a.2.2,0,0,0-.11.25l.39.94a.19.19,0,0,0,.25.1.18.18,0,0,0,.1-.24l-.39-.94A.18.18,0,0,0,48.05,5.55Z"/><path class="cls-1" d="M45.3,7.39a.18.18,0,0,0,0,.27l.72.71a.18.18,0,1,0,.26-.26l-.72-.72A.19.19,0,0,0,45.3,7.39Z"/><path class="cls-1" d="M43.46,10.14a.2.2,0,0,0,.1.25l.94.39a.19.19,0,0,0,.25-.11.19.19,0,0,0-.1-.24L43.71,10A.19.19,0,0,0,43.46,10.14Z"/><path class="cls-1" d="M42.82,13.38a.19.19,0,0,0,.18.19h1a.19.19,0,1,0,0-.38H43A.19.19,0,0,0,42.82,13.38Z"/><path class="cls-1" d="M58.37,13.38a.19.19,0,0,0,.18.19h1a.19.19,0,0,0,0-.38h-1A.19.19,0,0,0,58.37,13.38Z"/><path class="cls-1" d="M57.83,10.67a.2.2,0,0,0,.25.11l.94-.39a.2.2,0,0,0,.1-.25.19.19,0,0,0-.25-.1l-.94.39A.18.18,0,0,0,57.83,10.67Z"/><path class="cls-1" d="M56.29,8.37a.18.18,0,0,0,.27,0l.72-.72A.18.18,0,1,0,57,7.39l-.73.72A.19.19,0,0,0,56.29,8.37Z"/><path class="cls-1" d="M54,6.84a.19.19,0,0,0,.24-.1l.39-.94a.19.19,0,0,0-.1-.25.2.2,0,0,0-.25.1l-.39.94A.2.2,0,0,0,54,6.84Z"/><path class="cls-1" d="M53.79,8.68a3.15,3.15,0,0,0-2.5,1.23,3.19,3.19,0,0,0-5.7,2c0,3,5.7,6.71,5.7,6.71S57,14.94,57,11.87A3.19,3.19,0,0,0,53.79,8.68Z"/><path class="cls-2" d="M49.45,8.9l.21.13a2.15,2.15,0,0,1,.81.56L50,9.38A2.74,2.74,0,0,0,48.08,9a2.06,2.06,0,0,0-.56.26l.16-.05a3.23,3.23,0,0,0-1.08.8l.12-.09a2.36,2.36,0,0,0-.79,1.41l-.07.25a2.69,2.69,0,0,0,.31,1.54,7.45,7.45,0,0,0,1.08,1.65A12.69,12.69,0,0,0,50,17.26a5.64,5.64,0,0,1,.67.54A3.85,3.85,0,0,1,51,18l.21.13,0,0,0,0L51.5,18l.42-.3.8-.58a3.27,3.27,0,0,1,.62-.4,19.61,19.61,0,0,0,2-2.08,4.51,4.51,0,0,0,1.29-3.28,2.24,2.24,0,0,0-.22-.63l-.07-.22a3,3,0,0,0-1.51-1.29c-.8-.3-.92-.33-1-.48A3.36,3.36,0,0,1,55.38,9a2.69,2.69,0,0,1,1.42,1.47,3.69,3.69,0,0,1,.32,1.65c0,.12,0,.25,0,.37l-.11.36c-.07.23-.17.44-.23.64a18,18,0,0,1-1.92,2.34c-.06.05,0,0-.11.08a16.52,16.52,0,0,1-1.54,1.44c-.29.23-.58.46-.88.68l-.46.33-.54.37L51,18.52c-.69-.45-1.45-1.07-2.24-1.7-.08-.06-.39-.37-.59-.56l-.23-.17a9.65,9.65,0,0,1-1.36-1.57,7.2,7.2,0,0,1-.82-1.5,3.8,3.8,0,0,1-.21-1.44A2.6,2.6,0,0,1,46,10.31c0-.07.19-.31.3-.45a1.45,1.45,0,0,1,.19-.17,2.74,2.74,0,0,1,.32-.36,3.19,3.19,0,0,1,1.68-.66,2.33,2.33,0,0,1,1.31.25C49.66,8.89,49.31,8.83,49.45,8.9Z"/><path class="cls-2" d="M53.49,9.08s.12,0,.21,0a.84.84,0,0,0-.32,0,1.37,1.37,0,0,1,.29,0c.14-.06-.29,0-.12,0s.28,0,.21,0h-.19s.14,0,.22.05a3.11,3.11,0,0,0-.43,0Z"/><path class="cls-2" d="M52.53,9.31l.09,0s-.06,0-.15,0c.38-.14,0,.05.26,0C52.73,9.25,52.5,9.34,52.53,9.31Z"/><path class="cls-2" d="M53,9c.18,0,.35-.07.4,0a3.75,3.75,0,0,0-.47.05Z"/><path class="cls-2" d="M50.12,9.27l-.27-.12.29.14Z"/><path class="cls-2" d="M45.89,12.48c0-.19,0-.34,0-.62C45.9,12.14,45.86,12.42,45.89,12.48Z"/><path class="cls-2" d="M47.36,15.18s0,.09,0,0,0,0-.12-.17Z"/><path class="cls-2" d="M47.48,15.43l.08.12A.49.49,0,0,0,47.48,15.43Z"/><path class="cls-2" d="M48.45,9.07h0Z"/><path class="cls-2" d="M48,9.13l.3,0,.06,0A1,1,0,0,0,48,9.13Z"/><path class="cls-2" d="M48.39,9.06h0a2.09,2.09,0,0,1,.74,0A1.9,1.9,0,0,0,48.39,9.06Z"/><path class="cls-2" d="M48.69,9l.11,0c.1,0,.09,0,.08,0h.2a1.84,1.84,0,0,0-.69,0Z"/><polygon class="cls-2" points="50.62 9.33 50.61 9.33 50.62 9.33 50.62 9.33"/><path class="cls-2" d="M50.11,9l0,0a3.36,3.36,0,0,1,.55.35h0A2.16,2.16,0,0,0,50.11,9Z"/><path class="cls-2" d="M47.66,9.19a4.44,4.44,0,0,0,.5-.18,4.05,4.05,0,0,0-.47.12C47.88,9.09,47.69,9.16,47.66,9.19Z"/><path class="cls-2" d="M47.25,9.29a1.32,1.32,0,0,1,.2-.12l-.1,0S47.31,9.24,47.25,9.29Z"/><path class="cls-2" d="M47.35,9.2s0,0-.11,0Z"/><path class="cls-2" d="M47.78,9c-.16,0-.14,0-.38.16C47.39,9.17,47.64,9,47.78,9Z"/><polygon class="cls-2" points="46.79 9.51 46.7 9.55 46.71 9.6 46.79 9.51"/><path class="cls-2" d="M45.92,11.26c0-.25-.07.14-.09.16Z"/><path class="cls-2" d="M46.51,9.66l.08,0,0,0a.63.63,0,0,1,.18-.15C46.82,9.35,46.61,9.56,46.51,9.66Z"/><path class="cls-2" d="M46,10.59a1.71,1.71,0,0,0-.13.23"/><path class="cls-2" d="M46.93,9.14s-.37.19,0-.08c-.16.1-.36.27-.25.14-.24.19,0,0-.13.19C46.68,9.25,46.81,9.22,46.93,9.14Z"/><path class="cls-2" d="M46.36,9.58a1.41,1.41,0,0,0-.27.31C46.18,9.77,46.29,9.69,46.36,9.58Z"/><polygon class="cls-2" points="46.2 9.62 46.37 9.49 46.25 9.56 46.2 9.62"/><line class="cls-2" x1="45.67" y1="12.38" x2="45.71" y2="12.37"/><path class="cls-2" d="M45.71,10.36A2.73,2.73,0,0,1,46,9.89a3.51,3.51,0,0,0-.27.4c-.11.28,0,.16.07,0Z"/><path class="cls-2" d="M46.06,9.9l.08-.14a3.55,3.55,0,0,0-.26.36A.79.79,0,0,1,46.06,9.9Z"/><path class="cls-2" d="M45.88,10.12l-.1.15Z"/><path class="cls-2" d="M46.12,13.52l-.2-.42C46,13.26,46.05,13.39,46.12,13.52Z"/><path class="cls-2" d="M45.51,10.71l0,.07,0,0C45.56,10.66,45.52,10.71,45.51,10.71Z"/><path class="cls-2" d="M45.28,11.33a2.18,2.18,0,0,0,0,.56c0-.18,0-.38.09-.61C45.28,11.51,45.29,11.34,45.28,11.33Z"/><path class="cls-2" d="M45.2,12a2.67,2.67,0,0,1,0-.49A1.12,1.12,0,0,0,45.2,12Z"/><path class="cls-2" d="M45.35,12.78s0,0,0,.09c0-.08-.06-.23-.09-.34Z"/><path class="cls-2" d="M46.8,9.37a3.48,3.48,0,0,0-.27.24A4.13,4.13,0,0,1,47,9.3Z"/><path class="cls-2" d="M55.64,9.8a2.51,2.51,0,0,1,1,1.57,3.78,3.78,0,0,1-.76,2.76h0A14.57,14.57,0,0,1,54,16.22l.06,0c.11-.11.26-.25.19-.14a3.18,3.18,0,0,1-.43.34l-.1.13c-.11.07-.07-.05-.34.2s-.67.48-.63.56a3.56,3.56,0,0,0-.54.4l.12,0c-.31.21-.64.36-.78.48l-.22.15L50.92,18l-.48-.33c-.06-.1.43.32.2.09A18.94,18.94,0,0,1,48,15.55s.09.11,0,.06-.38-.38-.6-.68a3.16,3.16,0,0,0,.46.56c-.13,0-.06-.08-.39-.42,0,0,.05.09,0,.09-.32-.34-.08-.17-.33-.43l.11.16c-.22-.27-.09-.07-.34-.37.07,0,0-.16-.08-.24s-.26-.33-.26-.28c-.18-.44-.35-.5-.45-.92-.12-.16,0,.18,0,.17-.23-.4,0-.15-.09-.3a2.4,2.4,0,0,1-.21-.92l0,0a2.31,2.31,0,0,1,.24-1.09c0-.16-.1.11-.15.37,0,0,0-.22.06-.34a.27.27,0,0,0-.05.15s0-.17.06-.23c.17-.43,0,.17,0,0s.26-.53.13-.4c.2-.31.11-.1.23-.25a4.15,4.15,0,0,0-.29.51c0,.08,0,0,.06,0A5.4,5.4,0,0,1,46.6,10l.12-.09.08-.12.05,0a2.92,2.92,0,0,0-.44.32s.1-.14.17-.22l.08,0c.2-.17.1-.2.4-.41-.16.17.37-.17.62-.22s-.06,0,.14-.19a2.72,2.72,0,0,1,1-.14c-.78,0,.38,0-.24.09.13,0,.23,0,.36,0s-.19,0,0,.1L49,9l.59.2a.85.85,0,0,1,.36.1c0,.05.05.06.32.22s.17,0,0-.12-.52-.3-.57-.35a6.9,6.9,0,0,0-1-.25,2.11,2.11,0,0,0-1.21.12l-.41.28c-.18.18.48-.24.72-.23l-.29.12h.12c-.49.26-.31.06-.72.35L47,9.35a1.92,1.92,0,0,0-.22.18l0,0-.34.35.14-.18c-.09.12-.16.11-.29.29a1,1,0,0,1,.12-.2,2.52,2.52,0,0,0-.53.72,3.4,3.4,0,0,0-.32,1.39,3.89,3.89,0,0,0,.3,1.38l0-.11a1.49,1.49,0,0,1,.14.35,5.21,5.21,0,0,0,.24.47,11,11,0,0,0,.69.93s0,0-.07,0c.12.13.19.2.1.06.2.21.26.33.41.49L47,15.07c.13.16.16.13.33.35s-.11-.17,0-.15l.12.13-.09-.17a4.83,4.83,0,0,1,.45.59l-.18-.21c-.11,0,.31.34.39.45l0,0c.31.3,0-.08.17.12s.22.26.34.38l0-.09c.24.19.64.61,1,.93.22.19.53.4.83.61,0-.05-.16-.14-.12-.12s.56.4.4.33l.26.16a1.58,1.58,0,0,1,.22.16L51,18.45l.3.18,0,0s.13-.06,0,.06a15.57,15.57,0,0,0,1.29-.94l-.14.13c.29-.24.35-.22.66-.49l-.09,0a3.68,3.68,0,0,1,.62-.45c0-.08.14-.09.24-.26l.18-.07c.13-.14.26-.27.14-.21a2.51,2.51,0,0,0,.52-.49h0c0-.05.25-.25.14-.18.47-.49.3-.21.72-.7v0a5.55,5.55,0,0,0,.75-1.14l.06,0c.12-.23-.05,0,.13-.33,0-.05.06-.09.06-.07A3.61,3.61,0,0,0,57,12s0,.08,0,.12a2.4,2.4,0,0,0-.09-.95,2.93,2.93,0,0,0-1.41-2.1c-.67-.28-1.15-.21-1.22-.12A4.21,4.21,0,0,1,55.64,9.8Z"/><text class="cls-5" transform="translate(35.64 36.78)">Photographer</text><text class="cls-6" transform="translate(0 16.7)">Daniela</text><line class="cls-1" x1="45.65" y1="30.11" x2="59.11" y2="30.11"/><path class="cls-7" d="M56.22,30.2l-.12,0S56,30.21,56.22,30.2Z"/><path class="cls-7" d="M53.27,30.16h.09l-.26,0C53,30.14,53.34,30.14,53.27,30.16Z"/><path class="cls-7" d="M50.89,30.14s0,0,0,0h0Z"/><path class="cls-7" d="M54,30.17h0Z"/><path class="cls-7" d="M53.49,30.15h0Z"/><path class="cls-7" d="M51.65,30.13h0Z"/><path class="cls-7" d="M54.12,30.17h0Z"/><path class="cls-7" d="M51.57,30.15h0Z"/><path class="cls-7" d="M54.23,30.18h0Z"/><path class="cls-7" d="M51.76,30.12h0l.08,0Z"/><path class="cls-7" d="M54.67,30.16h.13s0,0,0,0h0l-.08,0h-.08Z"/><path class="cls-7" d="M54.66,30.15h0Z"/><path class="cls-7" d="M54.35,30.11l0,0,.11,0Z"/><path class="cls-7" d="M52.19,30.14h-.11s0,0,0,0h.1Z"/><path class="cls-7" d="M52.63,30.1h0S52.7,30.1,52.63,30.1Z"/><path class="cls-7" d="M52.69,30.12h0S52.62,30.12,52.69,30.12Z"/><path class="cls-7" d="M52.54,30.16h0Z"/><path class="cls-7" d="M52.1,30.16h0Z"/><path class="cls-7" d="M48.28,30.22h0Z"/><path class="cls-7" d="M52,30.12Z"/><path class="cls-8" d="M46.17,30.19h0Z"/><path class="cls-8" d="M46,30.14a2.09,2.09,0,0,1-.25,0v0h-.07s0,0,0,0,.26,0,.15,0a2.32,2.32,0,0,0,.31,0l-.09,0,0,0C45.84,30.17,45.87,30.14,46,30.14Z"/><path class="cls-8" d="M51.69,30.12h0Z"/><path class="cls-8" d="M52,30.15h0Z"/><path class="cls-8" d="M52.3,30.15h0Z"/><path class="cls-8" d="M52.35,30.15l0,0h0s0,0,0,0h0Z"/><polygon class="cls-8" points="51.96 30.17 51.98 30.17 51.97 30.17 51.96 30.17"/><path class="cls-8" d="M52.12,30.15h0s0,0,0,0h-.14l.15,0h0l0,0h0Z"/><path class="cls-8" d="M52.41,30.15h0Z"/><polygon class="cls-8" points="51.76 30.12 51.75 30.12 51.76 30.12 51.76 30.12"/><path class="cls-8" d="M51.88,30.13h0Z"/><path class="cls-8" d="M52.38,30.19h0S52.35,30.19,52.38,30.19Z"/><path class="cls-8" d="M51.83,30.16l0,0-.08,0h.12Z"/><path class="cls-8" d="M51.84,30.16h-.09s0,0,0,0l.14,0h-.09s0,0,0,0Z"/><path class="cls-8" d="M51.54,30.14h.05s0,0-.06,0h0l-.1,0h0c.06,0,.05,0,.08,0h0Z"/><path class="cls-8" d="M51.59,30.16h0Z"/><path class="cls-8" d="M51.59,30.16h0Z"/><path class="cls-8" d="M51.26,30.13h0Z"/><path class="cls-8" d="M51.33,30.16h0l0,0Z"/><path class="cls-8" d="M51.44,30.15h0Z"/><path class="cls-8" d="M52.23,30.12s-.08,0,0,0h0s-.06,0-.06,0-.07,0-.14,0,.1,0,.14,0Z"/><path class="cls-8" d="M52.2,30.14Z"/><path class="cls-8" d="M52.26,30.1h0Z"/><path class="cls-9" d="M52.53,30.12h0S52.45,30.12,52.53,30.12Z"/><path class="cls-9" d="M52.47,30.1h0S52.54,30.1,52.47,30.1Z"/><path class="cls-8" d="M52.42,30.12h0Z"/><path class="cls-8" d="M52.37,30.12h0Z"/><path class="cls-9" d="M51.68,30.19l.14,0C51.72,30.2,51.8,30.19,51.68,30.19Z"/><polygon class="cls-8" points="52.14 30.19 52.15 30.19 52 30.18 52.14 30.19"/><path class="cls-8" d="M53.31,30.18s0,0,0,0Z"/><path class="cls-8" d="M53.14,30.12h0Z"/><path class="cls-8" d="M53.49,30.15h-.1l0,0h.05Z"/><path class="cls-8" d="M53.27,30.16c.07,0-.27,0-.17,0h-.05l-.11,0s.3,0,.36.05h0Z"/><path class="cls-8" d="M53.41,30.16s0,0,0,0h.09A.24.24,0,0,0,53.41,30.16Z"/><path class="cls-8" d="M53.39,30.13Z"/><path class="cls-8" d="M53.34,30.11h0Z"/><path class="cls-8" d="M53.25,30.12h0a.39.39,0,0,1-.11,0h.06Z"/><path class="cls-8" d="M52.57,30.2h.1l-.09,0h.05s0,0,0,0h-.06s0,0,0,0h-.12l.23.05s.06,0,.1,0h-.06S52.61,30.2,52.57,30.2Z"/><path class="cls-10" d="M52.57,30.2s.11,0,.11,0h-.11Z"/><path class="cls-10" d="M52.68,30.19h0Z"/><path class="cls-10" d="M52.53,30.19h0Z"/><path class="cls-9" d="M53.42,30.18c.14,0-.07,0,.09,0S53.49,30.18,53.42,30.18Z"/><polygon class="cls-8" points="55.2 30.16 55.22 30.16 55.13 30.14 55.11 30.14 55.2 30.16"/><path class="cls-8" d="M54,30.15h0s0,0-.1,0C53.91,30.13,53.86,30.14,54,30.15Z"/><path class="cls-9" d="M54.13,30.13c-.06,0,0,0,0,0h0S54.18,30.13,54.13,30.13Z"/><path class="cls-8" d="M55.07,30.11h0Z"/><path class="cls-8" d="M55.4,30.15h0Z"/><path class="cls-8" d="M55.5,30.16h.09C55.54,30.16,55.49,30.15,55.5,30.16Z"/><path class="cls-8" d="M55.51,30.13h0Z"/><path class="cls-8" d="M55.34,30.15h0Z"/><path class="cls-8" d="M54.7,30.19c.06,0,.07,0,.06,0h-.07S54.71,30.18,54.7,30.19Z"/><path class="cls-8" d="M54.73,30.17h0Z"/><path class="cls-8" d="M54.46,30.15h0a.28.28,0,0,1,.14,0Z"/><path class="cls-8" d="M54.83,30.18h0Z"/><path class="cls-8" d="M54.91,30.13h.24s.1,0,.15,0-.15,0,0,0c-.25,0,0,0-.28,0,0,0,0,0,0,0S54.9,30.12,54.91,30.13Z"/><path class="cls-8" d="M54.73,30.14h0Z"/><path class="cls-8" d="M55.09,30.19h.06s0,0-.11,0h.05Z"/><path class="cls-8" d="M55.29,30.15Z"/><path class="cls-8" d="M54.88,30.17h-.1s0,0,0,0h.08Z"/><path class="cls-8" d="M54.42,30.11h0Z"/><path class="cls-8" d="M54.54,30.12l.05,0h-.06S54.53,30.12,54.54,30.12Z"/><path class="cls-8" d="M55.14,30.15H55s0,0,0,0l.09,0c.05,0,.21,0,.19,0h-.17Z"/><path class="cls-8" d="M54.66,30.12h0Z"/><path class="cls-8" d="M54.66,30.15h0s0,0,0,0Z"/><path class="cls-8" d="M54.77,30.13h0Z"/><path class="cls-8" d="M54.92,30.11h0Z"/><path class="cls-8" d="M54.33,30.11h0Z"/><path class="cls-8" d="M54.45,30.14h0s0,0,0,0S54.42,30.15,54.45,30.14Z"/><path class="cls-8" d="M54.41,30.16a.21.21,0,0,0-.08,0,.2.2,0,0,0,.11,0Z"/><path class="cls-8" d="M54,30.17h0a.33.33,0,0,0-.1,0H54Z"/><path class="cls-8" d="M53.92,30.17h0Z"/><polygon class="cls-8" points="54.17 30.19 54.17 30.18 54.17 30.18 54.17 30.19"/><path class="cls-8" d="M54.16,30.18h0Z"/><path class="cls-8" d="M54.33,30.17h0Z"/><path class="cls-8" d="M54.33,30.17h-.06c.09,0,.21,0,.18,0s-.08,0-.17,0Z"/><polygon class="cls-8" points="54.66 30.13 54.67 30.12 54.66 30.12 54.66 30.13"/><path class="cls-8" d="M55.56,30.13l.23,0s.08,0,.14,0A1.64,1.64,0,0,0,55.56,30.13Z"/><path class="cls-8" d="M56.06,30.13h.06l-.11,0c.15,0-.14,0-.09,0a.64.64,0,0,0,.14,0h0Z"/><path class="cls-9" d="M55.24,30.18c.12,0,0,0,.12,0Z"/><path class="cls-8" d="M56.42,30.13h0Z"/><path class="cls-8" d="M56.42,30.13h0Z"/><path class="cls-9" d="M56.58,30.2s-.06,0-.13,0S56.35,30.22,56.58,30.2Z"/><path class="cls-8" d="M47,30.21s0,0-.06,0h0s-.06,0-.06,0h0S46.86,30.17,47,30.21Z"/><path class="cls-9" d="M46.28,30.19h0Z"/><path class="cls-9" d="M47.6,30.21h0Z"/><polygon class="cls-8" points="47.93 30.21 47.92 30.21 47.92 30.22 47.93 30.21"/><path class="cls-8" d="M58.8,30a0,0,0,0,1,0,0c-.14,0-.29,0-.45,0,.1,0,.23.11.21.15h.19l0,0,.34,0c.08-.08-.24-.2-.31-.22Z"/><path class="cls-8" d="M57.59,30.19h-.41a.7.7,0,0,0,.21,0h.83l0,0C58,30.2,57.83,30.17,57.59,30.19Z"/><path class="cls-8" d="M48.88,30.22h0s.07,0,0,0l.08,0h-.1Z"/><path class="cls-8" d="M49,30.22Z"/><polygon class="cls-8" points="48.87 30.22 48.87 30.22 48.88 30.22 48.87 30.22"/><path class="cls-8" d="M51,30.16h-.06s0,0,0,0h-.13s.05,0,.15,0H51l.06,0h0Z"/><path class="cls-8" d="M51.21,30.12s0,0,0,0S51.17,30.12,51.21,30.12Z"/><path class="cls-8" d="M51.15,30.1l-.07,0h0Z"/><path class="cls-8" d="M50.94,30.12h0c-.16,0,0,0-.08,0l0,0Z"/><path class="cls-8" d="M48.87,30.22v0h-.39s.12,0,.21,0Z"/><path class="cls-8" d="M49,30.19h.13Z"/><path class="cls-8" d="M47.71,30.19s0,0-.1,0l0,0c-.13,0,0,0-.15,0h0s.14,0,.14.05.13,0,.12,0h-.1a0,0,0,0,1,0,0c.17,0,.13,0,.24,0Z"/><path class="cls-8" d="M48.64,30h0Z"/><path class="cls-8" d="M48.73,30h0Z"/><path class="cls-8" d="M46.45,30.17a1.78,1.78,0,0,0,.25,0h0a1,1,0,0,1-.19,0C46.58,30.17,46.51,30.17,46.45,30.17Z"/><path class="cls-8" d="M47.93,30.21Z"/><path class="cls-8" d="M46.92,30.12h-.16c-.09,0-.07,0,0,0h0c-.08,0-.1,0-.08,0h0s-.05,0-.05,0h-.06c-.06,0,0,0,0,0s-.13,0-.1,0,0,0,.13,0h-.06a0,0,0,0,1,0,0,.56.56,0,0,0-.13,0l.14,0h-.11c-.11,0,0,0-.18,0a2.55,2.55,0,0,1,.32-.07h.39s.3-.06.48-.08h.11a9,9,0,0,1,1-.09c.09,0,.17,0,.21,0h0c-.24,0-.45,0-.62.07h-.1c-.16,0-.47,0-.44.07h-.37s0,0-.08,0,0,0,0,0H47c-.05,0-.1,0-.08,0l0,0Zm-.32,0h-.07a.29.29,0,0,0-.12,0l.12,0Z"/><path class="cls-8" d="M48.33,30.21h.1l0,0A.23.23,0,0,0,48.33,30.21Z"/><path class="cls-8" d="M46.42,30.15h0Z"/><path class="cls-8" d="M49.77,30.07h0Z"/><path class="cls-8" d="M48.1,30.18s-.07,0,0,0c-.25,0,0,0-.24,0l0,0h-.07l.11,0h.33S48.17,30.19,48.1,30.18Z"/><path class="cls-8" d="M49.56,30.2h-.13l-.07,0s0,0,0,0h-.09c.1,0,.1.05.2.05a4,4,0,0,0,.52,0h-.1C49.73,30.25,49.77,30.2,49.56,30.2Z"/><path class="cls-8" d="M46.93,30.15l.1,0h0c.13,0,.16,0,.11,0,.21,0,.13,0,.29,0a.66.66,0,0,0-.15,0h.06C47.16,30.18,47.1,30.15,46.93,30.15Z"/><path class="cls-8" d="M47.54,30.19h0s-.07,0,0,0c-.21,0-.1,0-.17,0s-.05,0,0,0h0c.14,0,.09,0,.11,0h-.06Zm-.11,0,0,0c-.07,0,0,0,0,0h0Z"/><path class="cls-8" d="M46.41,30.1l.12,0A.29.29,0,0,0,46.41,30.1Z"/><path class="cls-8" d="M46.6,30.13h0Z"/><path class="cls-8" d="M46.56,30.14s-.05,0-.05,0h.05Z"/><path class="cls-8" d="M46.65,30.15h0Z"/><path class="cls-8" d="M46.42,30.13c-.07,0-.13,0-.1,0s0,0,.13,0h0C46.39,30.14,46.41,30.12,46.42,30.13Z"/><path class="cls-8" d="M46.45,30.15Z"/><path class="cls-8" d="M47,30.08c.07,0,0,0,0,0h0S47.07,30.08,47,30.08Z"/><path class="cls-8" d="M46.88,30.1l0,0H47C46.91,30.11,46.86,30.11,46.88,30.1Z"/><polygon class="cls-8" points="47.35 30.13 47.35 30.14 47.37 30.14 47.35 30.13"/><path class="cls-8" d="M47.43,30.17h0Z"/><path class="cls-8" d="M47.43,30.17l0,0C47.31,30.16,47.39,30.16,47.43,30.17Z"/><path class="cls-8" d="M48.88,30.22h0Z"/><path class="cls-8" d="M48.94,30.2h-.08v0h.07Z"/><path class="cls-2" d="M46.85,30.18h0Z"/><path class="cls-2" d="M46.38,30.17s0,0,.07,0h-.07S46.36,30.17,46.38,30.17Z"/><path class="cls-2" d="M46.8,30.18l-.08,0h0s0,0,0,0Z"/><path class="cls-2" d="M46.6,30.15h-.21a0,0,0,0,1,0,0h.07c.06,0,.13,0,.07,0a1,1,0,0,0,.19,0s0,0,0,0h0C46.6,30.17,46.58,30.16,46.6,30.15Z"/><path class="cls-2" d="M46.45,30.14Z"/><path class="cls-2" d="M46.62,30.14h0Z"/><path class="cls-2" d="M46.45,30.14h0Z"/><path class="cls-2" d="M46.42,30.15h0Z"/><path class="cls-2" d="M46.6,30.15h0Z"/><path class="cls-2" d="M51.92,30.12h0Z"/><path class="cls-2" d="M52.2,30.14h.09s0,0-.06,0S52.26,30.14,52.2,30.14Z"/><path class="cls-2" d="M52.2,30.16h0l.15,0H52.2Z"/><path class="cls-2" d="M52.08,30.13h.12s0,0,0,0h-.12Z"/><path class="cls-2" d="M52.27,30.15h-.15A.75.75,0,0,0,52.27,30.15Z"/><path class="cls-2" d="M52.54,30.16h.06l0,0h0Z"/><path class="cls-2" d="M52.32,30.15h0a.75.75,0,0,1-.15,0h.2l0,0h0Z"/><path class="cls-2" d="M52,30.12h0Z"/><path class="cls-2" d="M52.2,30.14h0c.06,0,0,0,0,0h0S52.23,30.13,52.2,30.14Z"/><path class="cls-2" d="M52.58,30.16h0Z"/><path class="cls-2" d="M52.54,30.16h0Z"/><path class="cls-2" d="M52.55,30.18h0S52.53,30.18,52.55,30.18Z"/><path class="cls-2" d="M51.94,30.12h0Z"/><path class="cls-2" d="M52,30.17h0Z"/><path class="cls-2" d="M52,30.16h0Z"/><path class="cls-2" d="M52.09,30.15l-.33,0,0,0h.3Z"/><path class="cls-2" d="M51.7,30.11h0Z"/><path class="cls-2" d="M52.1,30.16h0Z"/><path class="cls-2" d="M52.09,30.15l-.15,0h-.18Z"/><path class="cls-2" d="M51.83,30.16s0,0,0,0h0Z"/><path class="cls-2" d="M51.74,30.16h0Z"/><path class="cls-2" d="M51.75,30.16Z"/><path class="cls-2" d="M51.84,30.16h0Z"/><path class="cls-2" d="M51.59,30.14h0l0,0h0Z"/><path class="cls-2" d="M51.63,30.12Z"/><path class="cls-2" d="M51.56,30.15s0,0,0,0h0Z"/><path class="cls-2" d="M51.61,30.13h-.08c.09,0,.09,0,.06,0h0Z"/><polygon class="cls-2" points="51.63 30.12 51.63 30.12 51.63 30.12 51.63 30.12"/><path class="cls-2" d="M51.6,30.16h0Z"/><polygon class="cls-2" points="51.59 30.16 51.6 30.16 51.59 30.16 51.59 30.16"/><path class="cls-2" d="M52.37,30.12h.07c.08,0-.06,0,0,0h0Z"/><path class="cls-2" d="M52.38,30.14s0,0,0,0h0Z"/><polygon class="cls-2" points="52.26 30.1 52.26 30.1 52.26 30.1 52.26 30.1"/><path class="cls-2" d="M52.28,30.1h0Z"/><path class="cls-2" d="M52.37,30.12h0Z"/><polygon class="cls-2" points="52.54 30.13 52.61 30.12 52.54 30.11 52.54 30.13"/><path class="cls-11" d="M51.91,30.18s0,0,.13,0C52,30.19,52,30.18,51.91,30.18Z"/><polygon class="cls-2" points="52.34 30.19 52.34 30.18 52.2 30.18 52.34 30.19"/><path class="cls-2" d="M53.41,30.17a0,0,0,0,0,0,0S53.39,30.17,53.41,30.17Z"/><path class="cls-2" d="M53.39,30.16h0Z"/><path class="cls-2" d="M53.48,30.13h0Z"/><path class="cls-2" d="M53.1,30.12h0Z"/><path class="cls-2" d="M53.48,30.13h.05c.19,0,0,0,.08,0A.56.56,0,0,1,53.48,30.13Z"/><path class="cls-2" d="M53.36,30.15h0s-.27,0-.15,0H53.1Z"/><path class="cls-2" d="M53.49,30.15h-.08a.24.24,0,0,1,.12,0Z"/><path class="cls-2" d="M53.53,30.14h0Z"/><path class="cls-2" d="M53.12,30.13h0Z"/><path class="cls-2" d="M53.25,30.12h0Z"/><path class="cls-2" d="M53.33,30.13a.42.42,0,0,0,.11,0h-.11Z"/><path class="cls-2" d="M53.29,30.11h0Z"/><path class="cls-2" d="M53.34,30.11h0Z"/><path class="cls-2" d="M52.76,30.16h0a.67.67,0,0,0-.16,0l.11,0h0s.11,0,.16,0S52.76,30.18,52.76,30.16Z"/><path class="cls-2" d="M52.83,30.19h0Z"/><path class="cls-2" d="M52.83,30.19Z"/><path class="cls-2" d="M52.82,30.2h-.08l-.11,0h-.05l.09,0h.15Z"/><path class="cls-2" d="M52.69,30.19h0Z"/><path class="cls-2" d="M52.79,30.19h0Z"/><polygon class="cls-2" points="52.68 30.2 52.68 30.19 52.67 30.19 52.68 30.2"/><polygon class="cls-2" points="52.68 30.19 52.67 30.19 52.67 30.19 52.68 30.19"/><path class="cls-2" d="M52.68,30.19Z"/><path class="cls-11" d="M53.5,30.17c.14,0-.06,0,.09,0S53.57,30.17,53.5,30.17Z"/><polygon class="cls-2" points="55.14 30.16 55.15 30.16 55.08 30.14 55.06 30.14 55.14 30.16"/><path class="cls-2" d="M53.84,30.14h0c-.09,0,0,0-.11,0C53.78,30.13,53.72,30.14,53.84,30.14Z"/><path class="cls-11" d="M54,30.15h0a.34.34,0,0,0,.1,0c-.12,0,0,0-.11,0s0,0,0,0h0Z"/><path class="cls-8" d="M54,30.15h0Z"/><path class="cls-2" d="M54.77,30.11h0Z"/><path class="cls-2" d="M55.31,30.15h0Z"/><path class="cls-2" d="M55.24,30.13h0S55.22,30.13,55.24,30.13Z"/><path class="cls-2" d="M55.22,30.14h0Z"/><path class="cls-2" d="M55.08,30.14h0Z"/><path class="cls-2" d="M54.74,30.12h0Z"/><path class="cls-2" d="M54.91,30.17H55l-.07,0C54.89,30.16,54.88,30.16,54.91,30.17Z"/><path class="cls-2" d="M54.55,30.13h0Z"/><path class="cls-2" d="M54.49,30.18c.12,0,0,0,0,0h0S54.51,30.17,54.49,30.18Z"/><path class="cls-2" d="M55,30.12h0s0,0,0,0Z"/><path class="cls-2" d="M54.88,30.13h0Z"/><path class="cls-2" d="M55,30.12h0Z"/><path class="cls-2" d="M54.48,30.11s0,0,0,0,0,0,0,0h0Z"/><path class="cls-2" d="M54.62,30.16h0s.06,0,.12,0S54.58,30.17,54.62,30.16Z"/><path class="cls-2" d="M54.66,30.15h0Z"/><path class="cls-2" d="M54.73,30.17h0Z"/><path class="cls-2" d="M54.9,30.15h-.15l.08,0Z"/><path class="cls-2" d="M54.83,30.18h.08s0,0,0,0Z"/><polygon class="cls-2" points="54.41 30.16 54.41 30.16 54.41 30.16 54.41 30.16"/><path class="cls-2" d="M54.62,30.15h0Z"/><path class="cls-2" d="M54.36,30.11h0c-.09,0,0,0-.06,0Z"/><path class="cls-2" d="M54.42,30.13h0l0,0-.11,0,0,0h-.06s-.1,0-.14,0c.22,0,0,0,.08,0h-.08a1.24,1.24,0,0,0,.27,0h0Z"/><path class="cls-2" d="M54.25,30.16h0Z"/><path class="cls-2" d="M55.05,30.11h0Z"/><path class="cls-2" d="M54.73,30.17h-.11s0,0,.07,0h0Z"/><path class="cls-2" d="M54.81,30.18h0Z"/><path class="cls-2" d="M54.36,30.11h0Z"/><path class="cls-2" d="M54.68,30.13h0Z"/><path class="cls-2" d="M55,30.14h-.12s0,0,.09,0h-.32c.06,0,0,0,0,0s.09,0,.21,0c0,0-.13,0-.23,0a2.21,2.21,0,0,1-.26,0h0s0,0,0,0h.5s0,0,.05,0l.07,0S55.07,30.15,55,30.14Z"/><path class="cls-2" d="M54.49,30.12s0,0,0,0h0s0,0,0,0h0S54.55,30.12,54.49,30.12Z"/><path class="cls-2" d="M54.44,30.13h0Z"/><path class="cls-2" d="M54.62,30.14l0,0h0Z"/><path class="cls-2" d="M54.66,30.12l0,0h.07c.1,0,.2,0,.23,0-.12,0-.1,0-.21,0s0,0,0,0h0Z"/><path class="cls-2" d="M54,30.17h0Z"/><path class="cls-2" d="M53.84,30.15l-.06,0a.47.47,0,0,1,.17,0h-.11Z"/><path class="cls-2" d="M54,30.16h0Z"/><path class="cls-2" d="M54.15,30.17h0Z"/><path class="cls-2" d="M54.11,30.18h0Z"/><path class="cls-2" d="M54.15,30.17h0Z"/><path class="cls-2" d="M54.18,30.18h0c.06,0,.11,0,.09,0s0,0,0,0h-.09Z"/><path class="cls-2" d="M54,30.17h0Z"/><path class="cls-2" d="M54.16,30.18h0Z"/><path class="cls-2" d="M54.27,30.19h0Z"/><path class="cls-1" d="M54.55,30.13h0Z"/><path class="cls-1" d="M54.47,30.12h0s0,0,0,0Z"/><path class="cls-1" d="M54.42,30.13h0Z"/><path class="cls-1" d="M54.62,30.14H54.5s0,0,0,0h-.06a2.21,2.21,0,0,0,.26,0h-.07Z"/><path class="cls-1" d="M54.68,30.13h0Z"/><polygon class="cls-1" points="54.36 30.11 54.62 30.14 54.62 30.14 54.36 30.11"/><polygon class="cls-2" points="55.5 30.16 55.5 30.16 55.49 30.16 55.5 30.16"/><path class="cls-2" d="M55.5,30.14s.11,0,.09,0h0A.25.25,0,0,0,55.5,30.14Z"/><path class="cls-2" d="M55.29,30.13l.12,0,.08,0Z"/><path class="cls-2" d="M55.5,30.14h0l-.08,0h.09s0,0,.09,0S55.46,30.15,55.5,30.14Z"/><path class="cls-2" d="M55.72,30.12h0c.14,0-.13,0-.07,0S55.79,30.14,55.72,30.12Z"/><path class="cls-11" d="M55,30.18s0,0,0,0Z"/><path class="cls-11" d="M55.1,30.17s-.07,0-.11,0h.11Z"/><path class="cls-8" d="M55,30.18h0Z"/><path class="cls-2" d="M56.06,30.13h0Z"/><path class="cls-2" d="M56,30.13h0Z"/><path class="cls-2" d="M56.08,30.13h.08s0,0,0,0Z"/><path class="cls-2" d="M47.6,30.2h0Z"/><path class="cls-2" d="M47.47,30.15h0l.09,0h.07S47.46,30.17,47.47,30.15Z"/><path class="cls-11" d="M47,30.18h0Z"/><path class="cls-8" d="M46.92,30.18h0Z"/><polygon class="cls-2" points="47.52 30.15 47.52 30.15 47.51 30.15 47.52 30.15"/><path class="cls-11" d="M50.61,30.09h0Z"/><polygon class="cls-2" points="48.47 30.2 48.47 30.2 48.46 30.21 48.47 30.2"/><path class="cls-2" d="M58.23,30.19l.31,0v0h-.32Z"/><path class="cls-2" d="M57,30.08h.13c.38,0,.84,0,1.26-.05l-.08,0h0s0,0,0,0c-.49,0-1.09,0-1.58.07h-.11s-.38,0-.15.05h.14s0,0,0,0a2.14,2.14,0,0,0,.45.05h.22a3.8,3.8,0,0,0-.4-.06C56.54,30.1,57,30.1,57,30.08Z"/><path class="cls-2" d="M56.55,30.12h0S56.54,30.12,56.55,30.12Z"/><path class="cls-2" d="M57.08,30.09H57s-.41,0-.17.05a3.8,3.8,0,0,1,.4.06h.41c.24,0,.4,0,.61,0l0,0h.33s-.11-.11-.21-.15C57.92,30.05,57.46,30.06,57.08,30.09Z"/><path class="cls-1" d="M49.34,30.21h0s.07,0,0,0l.07,0h-.09Z"/><path class="cls-1" d="M49.43,30.21Z"/><polygon class="cls-1" points="49.34 30.21 49.33 30.21 49.33 30.21 49.34 30.21"/><path class="cls-2" d="M50.89,30.14H51a.18.18,0,0,0,.1,0H51l.06,0h-.12Z"/><path class="cls-2" d="M50.82,30.12s0,0,0,0h0Z"/><path class="cls-2" d="M51.18,30.1s0,0,0,0l0,0h0Z"/><path class="cls-2" d="M51.48,30.11h0l-.08,0h0c-.06,0,0,0,0,0l.09,0h0Z"/><path class="cls-2" d="M51.34,30.13a.33.33,0,0,1-.13,0s0,0,0,0h0l-.11,0,.23,0h0C51.23,30.16,51.39,30.14,51.34,30.13Z"/><path class="cls-2" d="M51.35,30.15h0Z"/><path class="cls-2" d="M51.45,30.11h0Z"/><path class="cls-2" d="M51.38,30.12h0s-.11,0,0,0h.06S51.32,30.13,51.38,30.12Z"/><path class="cls-2" d="M51.21,30.12s0,0,0,0h0l0,0h0a.18.18,0,0,1-.1,0h0l.11,0h0Z"/><path class="cls-2" d="M50.89,30.14l0,0h0Z"/><path class="cls-2" d="M49.12,30.21h0Z"/><path class="cls-2" d="M48.64,30h0Z"/><path class="cls-2" d="M47.93,30.21h0Z"/><path class="cls-2" d="M47.88,30.2h0Z"/><path class="cls-2" d="M48.28,30.21h0Z"/><path class="cls-2" d="M50.91,30.16s-.06,0-.14,0l.16,0s0,0,0,0c.18,0-.07,0,.07,0h-.06a.14.14,0,0,0-.09,0c-.38,0-.49.06-.87.05.16,0,.3,0,.54,0h.17c-.15,0,.11,0-.07,0h0l-.18,0c.1,0,.12,0,.16,0-.16,0-.15,0-.19-.07h-.09c-.08,0-.1,0-.08,0h0c-.1,0-.26,0-.24,0a.88.88,0,0,1-.23,0h0l.56,0s.13,0,.23,0h0s0,0,.07,0h.08l0,0h-.07l.06,0a2.44,2.44,0,0,0-.26,0s.16,0,.18,0l.12,0S50.84,30.16,50.91,30.16Zm-.65-.08h0Z"/><path class="cls-2" d="M46.89,30.16s0,0,0,0l-.07,0h.06s0,0,.11,0H47C46.92,30.18,47,30.16,46.89,30.16Z"/><polygon class="cls-2" points="48.47 30.2 48.47 30.19 48.46 30.2 48.47 30.2"/><path class="cls-2" d="M47.27,30.17h0Z"/><path class="cls-2" d="M48.88,30h0c.08,0,0,0,.12,0L49,30l.07,0h0c.12,0,0,0,.07,0h.08l.21,0h0c.12,0,0,0-.07,0h.16s0,0-.14,0h.07l-.06,0-.07,0c-.15,0,0,0-.11,0h0c-.1,0-.09,0-.14,0s-.09,0-.09,0h0a1,1,0,0,0-.2,0h-.1A.2.2,0,0,0,48.88,30Z"/><path class="cls-2" d="M48.7,30h0Z"/><path class="cls-2" d="M49.31,30s0,0,0,0h-.13s0,.05.21,0l0,0h0l0,0Z"/><path class="cls-2" d="M46.88,30.16h0Z"/><polygon class="cls-2" points="46.89 30.16 46.88 30.16 46.89 30.16 46.89 30.16"/><path class="cls-2" d="M50.26,30.08h0Z"/><path class="cls-2" d="M50.76,30.12h-.07l.06,0a2.44,2.44,0,0,0-.26,0s.16,0,.18,0l.12,0s.05,0,.12,0h0C50.81,30.15,50.78,30.14,50.76,30.12Z"/><path class="cls-2" d="M48,30.16h0C47.9,30.16,48,30.16,48,30.16Z"/><path class="cls-2" d="M50,30.26h-.1c-.13,0-.09-.06-.3-.06h-.08l-.16,0v0h-.24l-.13,0h-.5a.23.23,0,0,0-.13,0h0s-.11,0-.18,0-.07,0,0,0c-.25,0,0,0-.24,0l0,0h-.07l.11,0h0v0h-.22s0,0-.1,0l0,0c-.13,0,0,0-.15,0s0,0-.11,0h-.16l.11,0c-.05,0,0,0,0,0H47.3c-.14,0-.2,0-.37,0l.1,0c-.11,0,0,0-.14,0s0,0,0,0H47l.11,0h.19s-.11,0-.12,0h0c-.08,0-.06,0-.05,0H47s0,0,0,0,0,0,0,0h.48s.28-.06.44-.07H48c.17,0,.38-.05.62-.07h.16a.2.2,0,0,0,.12,0h0c.08,0,0,0,.12,0L49,30l.07,0h-.05s0,0,0,0h0c-.07,0-.2,0-.24,0l0,0h-.06c-.09,0,0,0-.08,0h-.11c-.05,0,.08,0,.19,0h.06s0,0,0,0h.1L49,30s.2,0,.11,0h0s0,.05.21,0l0,0h.39a.88.88,0,0,0,.23,0s.14,0,.24,0h0s0,0,.08,0h.09s0,0,.19.07c0,0-.06,0-.16,0l.18,0h0c.18,0-.08,0,.07,0H50.5C50.26,30.22,50.12,30.25,50,30.26Zm-2.77-.14-.12,0a.29.29,0,0,1,.12,0h0Zm.42,0c-.06,0-.12,0-.1,0h-.12l.12,0h0l.21,0S47.58,30.12,47.61,30.11Zm.09,0h0c-.05,0,0,0-.06,0C47.73,30.08,47.64,30.1,47.7,30.11Zm.33.06h0s-.11,0,0,0h0S48,30.17,48,30.17Zm-.07,0-.12,0H48Zm.12,0-.11,0C48,30.12,48.09,30.11,48.08,30.12Zm.18.06c-.07,0,0,0,.08,0S48.28,30.18,48.26,30.18Zm.59,0c-.07,0-.14,0-.08,0S48.87,30.18,48.85,30.19Z"/><path class="cls-2" d="M47.1,30.15h0c-.12,0,0,0-.13,0Z"/><path class="cls-2" d="M47.07,30.1l.12,0A.29.29,0,0,0,47.07,30.1Z"/><path class="cls-2" d="M47.25,30.12h0Z"/><path class="cls-2" d="M48,30.16h0S48,30.16,48,30.16Z"/><path class="cls-2" d="M47.06,30.11h0Z"/><path class="cls-2" d="M47,30.13h0s0,0,0,0,0,0,0,0h0Z"/><path class="cls-2" d="M47,30.13h0l.11,0h0Z"/><path class="cls-2" d="M48.67,30h-.11c-.05,0,.08,0,.19,0C48.66,30,48.8,30,48.67,30Z"/><path class="cls-2" d="M49.07,30h0c-.07,0-.2,0-.24,0l0,0s0,0,0,0h.1L49,30s.2,0,.11,0Z"/><path class="cls-2" d="M48.75,30h0Z"/><polygon class="cls-2" points="47.34 30.13 47.24 30.12 47.35 30.14 47.35 30.13 47.34 30.13"/><path class="cls-2" d="M47.48,30.11h-.09l.12,0h0Z"/><path class="cls-2" d="M48.34,30.2s-.06,0-.08,0S48.27,30.19,48.34,30.2Z"/><path class="cls-2" d="M48.94,30.2h0Z"/><path class="cls-2" d="M50.6,30.21h0Z"/><path class="cls-2" d="M47.14,30.14h.15s-.11,0-.12,0h0c-.08,0-.06,0-.05,0H47C47.12,30.12,47,30.15,47.14,30.14Z"/><path class="cls-2" d="M47,30.13Z"/><polygon class="cls-2" points="47.1 30.15 47.1 30.15 47.1 30.15 47.1 30.15"/><path class="cls-2" d="M47,30.13Z"/><path class="cls-2" d="M47.61,30.08c.1,0,0,0,.06,0h0C47.64,30.1,47.73,30.08,47.61,30.08Z"/><path class="cls-2" d="M47.61,30.11c-.06,0-.12,0-.1,0h0l.21,0S47.58,30.12,47.61,30.11Z"/><path class="cls-2" d="M47.48,30.11h0Z"/><path class="cls-2" d="M49.15,30h-.1l.09,0h.08C49.14,30,49.27,30,49.15,30Z"/><path class="cls-2" d="M49.05,30s0,0,0,0h.07Z"/><path class="cls-2" d="M49.07,30h0Z"/><path class="cls-2" d="M49.52,30h0l-.21,0h0s0,0,0,0l.09,0,0,0h0S49.64,30.05,49.52,30Z"/><path class="cls-2" d="M49.44,30.05h0Z"/><path class="cls-2" d="M49.27,30h0Z"/><polygon class="cls-2" points="47.96 30.14 47.93 30.13 47.84 30.11 47.96 30.14"/><path class="cls-2" d="M48,30.1l.11,0S48,30.12,48,30.1Z"/><path class="cls-2" d="M48.85,30.19s-.06,0-.08,0S48.78,30.19,48.85,30.19Z"/><path class="cls-2" d="M49.34,30.21h0Z"/><path class="cls-2" d="M49.4,30.21h.08l-.16,0v0h.07Z"/><path class="cls-2" d="M50.92,30.21h0Z"/><text class="cls-6" transform="translate(75 16.7)">Scharan</text></g></g></svg>