<svg xmlns="http://www.w3.org/2000/svg" viewBox="0 0 106.1 38.18"><defs><style>.cls-1{fill:#fff;}.cls-2{fill:#231f20;}.cls-3{fill:#00b5ad;}.cls-4{fill:#3cb0a9;}.cls-5,.cls-9{fill:none;}.cls-6,.cls-7,.cls-8{fill:#afb1b4;}.cls-7,.cls-9{stroke:#231f20;}.cls-7,.cls-8,.cls-9{stroke-linecap:round;stroke-linejoin:round;stroke-width:0;}.cls-8{stroke:#fff;}</style></defs><title>Asset 2</title><g id="Layer_2" data-name="Layer 2"><g id="Layer_1-2" data-name="Layer 1"><rect class="cls-1" x="32.99" y="3.85" width="35.74" height="19.06" rx="4.77" ry="4.77"/><path class="cls-2" d="M66.58,23a5.21,5.21,0,0,0,1.88-1.85,4.93,4.93,0,0,0,.92-2.63c0-.84,0-1.48,0-2.2-.06-1.4-.13-2.82-.09-4.72,0-.85,0-1.63,0-2.38a6.14,6.14,0,0,0-.31-2.31,5.42,5.42,0,0,0-3.38-3.33c-.31,0-.88-.11-1.6-.09s-1.52,0-2.39,0c-1.75,0-3.67-.07-4.88,0-1.62,0-2.49.17-1.26.23-2.24,0-1.66-.13-3.53-.08l.63-.11c-.62,0-1.3-.09-2.1-.07l-.91.12c-2.23-.13-3.49.1-5.9,0,1.57.08-.72.07-.55.16-.36,0-1.82-.07-1.32-.1-1,0-2,0-2.88,0s-1.63,0-2.24.09a4.87,4.87,0,0,0-.72.28,5.45,5.45,0,0,0-2.56,2.38l0,.18a6.13,6.13,0,0,0-.36,1.45l-.08,1.41c0,2.05.11,4.61.18,6.72a8.56,8.56,0,0,0,0,1.62c.06.27.05.52.27,1.4a4.1,4.1,0,0,0,.95,1.85,6.66,6.66,0,0,0,1.35,1.11,5.59,5.59,0,0,1-1.43-1,3.68,3.68,0,0,1-1-1.57c.1.33-.22-.36-.28-1s-.07-1.17-.11-.37a5,5,0,0,0,3,4.3,5.26,5.26,0,0,0,1.35.35c.46,0,.92,0,1.36,0,.88,0,1.73,0,2.51-.06-.23.17,3.87.1,5.24.08l.09,0c1.17,0,2,0,3.91,0,2.24,0,4.44,0,6.33.06A61,61,0,0,0,64,22.85c-3.39-.15-6.58.11-9.1-.18a40.5,40.5,0,0,0,4.32-.1l-1-.06.77,0c-.39-.06.64-.11.52-.17H56.69c1.52.05.52.12.08.19l-1.46,0c.34,0,1.24.06.18.1-.59,0-1.37,0-2,0l1.16-.13c-1.78.1-3.12-.16-4.9-.05l-.54-.14H47.51l.19-.05-2,0a5.45,5.45,0,0,0-1.44.13c-.84,0-1.65,0-2,0l1-.08-.9,0c.61,0-.75.05-1,.08-2,0-1.43,0-2.7-.07-.32,0-.68,0-1,0a4.72,4.72,0,0,1-.8-.1,6.32,6.32,0,0,0-.85-.23,4.24,4.24,0,0,1-2-2.25,4.11,4.11,0,0,1-.27-1.51V16.37l-.07-1c.08-2.69,0-3.91,0-6.71l0,.22a4.67,4.67,0,0,1,.07-1.36,4.71,4.71,0,0,1,1.12-1.93A3.78,3.78,0,0,1,37,4.48a7.92,7.92,0,0,1,.82-.06h.8l1.28,0a14.92,14.92,0,0,0,1.67-.18c1.28-.07,2.88,0,4,0l-.75,0,1,.06c1.65,0,1.74,0,3.89,0a15.76,15.76,0,0,0,3.75-.26l2.81.14-.06,0a41.67,41.67,0,0,1,5.22-.08L61.24,4A13.41,13.41,0,0,0,62.9,4a8.88,8.88,0,0,1,1.92,0,4.38,4.38,0,0,1,1.91.91,5.61,5.61,0,0,1,1.56,2,5.62,5.62,0,0,1,.29,1.91c0,.6,0,1.15.07,1.68,0,1.06.12,2.06.11,3.35a22.46,22.46,0,0,1-.06,2.94v-.28l-.16.58.12.07a14.56,14.56,0,0,1-.09,1.56,3.16,3.16,0,0,1-.49,1.34,4.55,4.55,0,0,1-1.16,1.76,5.82,5.82,0,0,0,1.13-1.27l-.06,0a5,5,0,0,0,.51-1.14,6.81,6.81,0,0,0,.22-1.29,4.08,4.08,0,0,1,0,.78c.15-.89.1-.14.08.12a8.23,8.23,0,0,1-.53,1.44,3.6,3.6,0,0,1-.68,1c-.22.23-.71.59-.55.42a4.67,4.67,0,0,1-1.63.84c-.63.19-1.21.2-1.24.26H64A3.43,3.43,0,0,0,66.58,23Z"/><circle class="cls-3" cx="50.86" cy="13.38" r="11.91"/><path class="cls-2" d="M63.38,11.54a9.16,9.16,0,0,0-.49-1.75,9.25,9.25,0,0,0-1.54-3.23A17.84,17.84,0,0,0,58.87,3.9a13,13,0,0,0-6.26-2.8c-.42.09-1.61,0-2.94,0a9.73,9.73,0,0,0-3.58.94c-1.1.56-1.59,1-.75.62A9.61,9.61,0,0,0,43.1,4.1c.09-.13.2-.25.31-.38a7,7,0,0,0-1.25,1l-.38.59a11.09,11.09,0,0,0-2.27,3.78c.49-1.08-.12.53,0,.44-.17.23-.42,1.29-.37.92a17.79,17.79,0,0,0-.33,3.77,4.85,4.85,0,0,0,.09.55,25,25,0,0,0,.54,2.53l.1.1c.21.54.65,1.5.86,2a10.52,10.52,0,0,0,3.43,3.56,2.89,2.89,0,0,0,1,.63,10.52,10.52,0,0,1,1,.39,8.17,8.17,0,0,0,1.47.59c.53.14,1,.28,1.28.37a9.35,9.35,0,0,1-2.6-.68c.21.14-.29-.09-.72-.27s-.76-.41-.28-.06a14.56,14.56,0,0,0,3.84,1.27,9.75,9.75,0,0,0,3.86-.06c-.07.11.64,0,1.48-.2a10.94,10.94,0,0,0,1.25-.45c.39-.17.72-.35,1-.47l.08,0a9,9,0,0,0,2.37-1.68,15.24,15.24,0,0,0,2.86-3.7,8.59,8.59,0,0,0,1-3,10.3,10.3,0,0,0,0-2.26,18.09,18.09,0,0,1-.58,3.52,7.87,7.87,0,0,1-1.42,2.72,7.51,7.51,0,0,0,1.21-2.86c-.09.21-.19.42-.29.62l.16-.53c-.14.25,0-.46-.07-.4A10.38,10.38,0,0,1,61,18.3c.52-.94.28-.28.2,0a7.2,7.2,0,0,1-.51.9c.15-.19.51-.72.14-.06A6.77,6.77,0,0,1,60,20.36c.12-.26.27-.49.37-.75a12.22,12.22,0,0,1-2.33,2.54l-.39.12a8.94,8.94,0,0,1-.95.66l.08-.1a9,9,0,0,1-1.23.65,3.78,3.78,0,0,0-.87.5,6.08,6.08,0,0,1-1.33.4l.64-.25-.61.13c.42-.08-.49.18-.65.21a6.76,6.76,0,0,1-1.13.12l-.74,0a11.48,11.48,0,0,1-1.35-.07,1.68,1.68,0,0,0-.72-.06,12,12,0,0,1-4.52-2l-.6-.36a20,20,0,0,1-1.61-1.66,10.34,10.34,0,0,1-1.32-2l.1.13c-.17-.31-.38-.61-.53-.94s-.22-.64-.32-.91l-.23-.8a4.69,4.69,0,0,1-.18-.85,5.15,5.15,0,0,1-.08-1.1c0-1.85.09-2.68.09-3.31a8.81,8.81,0,0,1,1-2.68l-.18.51.35-.59a13.36,13.36,0,0,1,1.57-2.25,26.08,26.08,0,0,0,1.85-2,12.81,12.81,0,0,1,1.84-.86h-.05a4.74,4.74,0,0,1,1.14-.56,14.1,14.1,0,0,1,2.45-.51l-.14-.07c1,0,1.38-.15,2.63-.05A10.14,10.14,0,0,1,53.69,2c.66.16,1.33.44,1.86.59a23,23,0,0,1,2.34,1.3,6.13,6.13,0,0,1,1,.68,5.25,5.25,0,0,1,.94.9C60.49,6.35,61,7,61,7.24l-.11-.18L61,7.5h.12a7.28,7.28,0,0,1,.81,2.08A12.63,12.63,0,0,1,62.54,11c-.1-.38-.2-.8-.3-1.22l0,0c-.13-.39-.5-1.32-.69-1.76l.28.5c-.27-.61,0-.13.12,0,.41,1.28.42.89.69,1.88.06.23.13.66.07.51,0,.29.14.84.17,1.31a3.19,3.19,0,0,0,.1.92v.12A3.8,3.8,0,0,0,63.38,11.54Z"/><circle class="cls-4" cx="62.89" cy="1.24" r="0.99"/><path class="cls-2" d="M63.54,2.13h.07c.07,0,.18-.09.23-.09s0,.13-.05.13a1.09,1.09,0,0,1-.5.13s-.07.05-.12.09h0a.84.84,0,0,1-.33.06l0,0a2.84,2.84,0,0,0-.39-.09.13.13,0,0,1-.06,0,1.48,1.48,0,0,1-.33-.17,1.12,1.12,0,0,1-.3-.34A2.15,2.15,0,0,1,61.7,1a.32.32,0,0,1,.07-.18c0-.18.17-.45.36-.57a.19.19,0,0,1,.17,0A1,1,0,0,1,62.91,0a1.07,1.07,0,0,1,.81.34.76.76,0,0,0,.14.11V.51a1.08,1.08,0,0,1,.24.46c0,.23-.1.25-.18.27-.07-.21-.24-.32-.34-.55a.45.45,0,0,0-.21-.17c-.07,0-.12-.1-.21-.07A.44.44,0,0,0,62.7.33s0,0,0,0a1.13,1.13,0,0,0-.57.51.75.75,0,0,0-.08.45s0,.09,0,.13l0,0a3,3,0,0,0,.13.3.54.54,0,0,0,.17.22c.09.11.31.15.42.22h.09l0,0s.05,0,.08,0c.21,0,.43-.13.56-.13S63.49,2.12,63.54,2.13Z"/><path class="cls-2" d="M64.16,1.32s0,0,0-.05a.19.19,0,0,0,0,.08V1.28s0,.07,0,0,0-.07,0-.05a.07.07,0,0,0,0,.05s0,0,.05-.06v.08Z"/><path class="cls-2" d="M64.08,1.57v0s0,0,0,0,0,0,.08-.05S64.09,1.59,64.08,1.57Z"/><path class="cls-2" d="M64,1.43s0-.08,0-.09,0,.07,0,.11Z"/><path class="cls-2" d="M63.72,2.08s0,0,0,0l.06,0Z"/><path class="cls-2" d="M62.29,2.22a.23.23,0,0,0,.11.11A.22.22,0,0,1,62.29,2.22Z"/><path class="cls-2" d="M61.94,1.68s0,0,0,0,0,0,0,0Z"/><path class="cls-2" d="M62,1.61v0A0,0,0,0,0,62,1.61Z"/><path class="cls-2" d="M63.42,2.39h0Z"/><path class="cls-2" d="M63.3,2.41h.09v0S63.36,2.38,63.3,2.41Z"/><path class="cls-2" d="M63.4,2.38h0c.05,0,.1,0,.18-.08A.68.68,0,0,0,63.4,2.38Z"/><path class="cls-2" d="M63.46,2.32v0h0l0,0s-.13,0-.16.05Z"/><polygon class="cls-2" points="63.67 1.9 63.67 1.91 63.67 1.9 63.67 1.9"/><path class="cls-2" d="M63.55,2l0,0s.06,0,.1-.08h0S63.6,2,63.55,2Z"/><path class="cls-2" d="M63.2,2.4q.11,0,.12-.06l-.11,0S63.21,2.38,63.2,2.4Z"/><path class="cls-2" d="M63.09,2.35l.06,0h0Z"/><path class="cls-2" d="M63.12,2.33s0,0,0,0Z"/><path class="cls-2" d="M63.21,2.27s0,0-.08,0S63.18,2.28,63.21,2.27Z"/><polygon class="cls-2" points="62.98 2.3 62.96 2.28 62.96 2.31 62.98 2.3"/><path class="cls-2" d="M62.53,2.37c.07,0,0,0,0-.05Z"/><path class="cls-2" d="M62.92,2.24l0,0v0H63S62.94,2.25,62.92,2.24Z"/><line class="cls-2" x1="62.71" y1="2.29" x2="62.66" y2="2.26"/><path class="cls-2" d="M63,2.14s-.07,0,0,0-.07,0-.05,0,0,0,0,0S63,2.14,63,2.14Z"/><path class="cls-2" d="M62.91,2.12s0,0-.07,0S62.89,2.15,62.91,2.12Z"/><polygon class="cls-2" points="62.89 2.06 62.92 2.08 62.9 2.05 62.89 2.06"/><line class="cls-2" x1="62.39" y1="2.11" x2="62.37" y2="2.15"/><path class="cls-2" d="M62.76,2.05h.08l-.07,0s0,0,0,0Z"/><path class="cls-2" d="M62.84,2.1h0S62.84,2.09,62.84,2.1Z"/><path class="cls-2" d="M62.8,2.08h0Z"/><path class="cls-2" d="M62.19,2l.06.06S62.21,2,62.19,2Z"/><path class="cls-2" d="M62.71,2h0V2S62.71,2,62.71,2Z"/><path class="cls-2" d="M62.65,1.93s0,0-.07,0,0,0,.07.05S62.64,1.94,62.65,1.93Z"/><path class="cls-2" d="M62.59,1.86l0,0S62.61,1.87,62.59,1.86Z"/><path class="cls-2" d="M62.5,1.83a0,0,0,0,1,0,0s0,0,0,0Z"/><path class="cls-2" d="M63,2.23h0Z"/><path class="cls-2" d="M64.06.71a2.41,2.41,0,0,0-.34-.37,1.1,1.1,0,0,0-.65-.25h0a1,1,0,0,0-.62.08h0s.07,0,.06,0-.11,0-.12,0l0,0s0-.06-.1,0-.17.07-.13.12-.09.07-.12.09h0c-.06,0-.15.07-.16.11a1,1,0,0,0-.14.33s0-.11,0-.06a1.39,1.39,0,0,0,0,.76s0,0,0,0,0,.11.06.19,0-.12,0-.16,0,0,.05.12v0c.06.09,0,.05,0,.12V1.77c0,.07,0,0,.07.09s0,0,0,.07S62,2,62,2s.1.09.14.19,0,0,0-.06,0,.05,0,.08a.59.59,0,0,1,.19.12v0c.07.07.22.11.24.15s0,0-.08-.06,0,0,.08,0h0s0,0,.05,0,0,0,0,0,.14,0,.1,0,0,0,.08.06-.1,0-.14,0,0,0,0,0,.22,0,.21,0l0,0,0,0h0s-.1,0-.13-.07,0,0,.07,0v0c.07,0,0,0,.13,0s.09,0,.16,0,0,0,0-.1a2,2,0,0,1,.2-.09c-.15.08.09,0,0,.08a.1.1,0,0,0,.07,0c.05,0,0,.06,0,.06v0a.29.29,0,0,0,.17,0,.12.12,0,0,1,.06-.09s0,0,.09,0-.16.07-.22,0c-.19.11-.26,0-.48,0,0,0,0,0-.08.05s.11,0,.16,0l-.06,0,0,0c-.11,0-.07,0-.17,0h0l-.05,0h0a.14.14,0,0,1-.1,0l0,0s0,0-.09,0,0,0,0,0l-.17,0A.67.67,0,0,1,62.27,2V2a.07.07,0,0,1,0-.06.35.35,0,0,1-.05-.08.7.7,0,0,1-.13-.16h0s0,0,0,0a.26.26,0,0,1,0-.1l.06.06s0,0,0-.07,0,0,0,0v0l0,0a.24.24,0,0,1,0-.15v.05s0-.08,0-.1h0c0-.07,0,0,0,0l0-.09,0,0c0-.05,0-.16,0-.24S62,1,62,1s0,0,0,0,0-.11.06-.08V.84l0,0h0l0-.06s0,0,0,0,.07-.14.16-.21l0,0c0-.06.07,0,.12-.09h0s.14-.06.13,0,0,0,0,0l.05,0s0,0,0,0,.1,0,.12,0h0s.06,0,0,0,.07,0,.18,0v0a1.93,1.93,0,0,0,.25,0v0s0,0,.08,0v0a1.28,1.28,0,0,1,.23.14s0,0,0,0l.15.09.17.42c.1.08.19.17.28.17A.51.51,0,0,0,64.06.71Z"/><path class="cls-1" d="M50.86,4.91a.19.19,0,0,0-.19.19v1a.19.19,0,0,0,.19.19.18.18,0,0,0,.19-.19v-1A.18.18,0,0,0,50.86,4.91Z"/><path class="cls-1" d="M47.62,5.55a.19.19,0,0,0-.1.25l.39.94a.18.18,0,0,0,.24.1.19.19,0,0,0,.11-.24l-.39-.94A.19.19,0,0,0,47.62,5.55Z"/><path class="cls-1" d="M44.87,7.39a.2.2,0,0,0,0,.27l.72.71a.18.18,0,0,0,.27,0,.19.19,0,0,0,0-.26l-.72-.72A.2.2,0,0,0,44.87,7.39Z"/><path class="cls-1" d="M43,10.14a.19.19,0,0,0,.11.25l.94.39a.18.18,0,0,0,.24-.11.18.18,0,0,0-.1-.24L43.28,10A.19.19,0,0,0,43,10.14Z"/><path class="cls-1" d="M42.39,13.38a.19.19,0,0,0,.19.19h1a.19.19,0,1,0,0-.38h-1A.19.19,0,0,0,42.39,13.38Z"/><path class="cls-1" d="M57.94,13.38a.19.19,0,0,0,.19.19h1a.19.19,0,0,0,0-.38h-1A.19.19,0,0,0,57.94,13.38Z"/><path class="cls-1" d="M57.4,10.67a.2.2,0,0,0,.25.11l.94-.39a.19.19,0,0,0,.1-.25.18.18,0,0,0-.24-.1l-.94.39A.18.18,0,0,0,57.4,10.67Z"/><path class="cls-1" d="M55.87,8.37a.18.18,0,0,0,.27,0l.72-.72a.19.19,0,0,0,0-.26.18.18,0,0,0-.27,0l-.72.72A.19.19,0,0,0,55.87,8.37Z"/><path class="cls-1" d="M53.57,6.84a.2.2,0,0,0,.25-.1l.39-.94a.19.19,0,0,0-.11-.25.19.19,0,0,0-.24.1l-.39.94A.19.19,0,0,0,53.57,6.84Z"/><path class="cls-1" d="M53.37,8.68a3.17,3.17,0,0,0-2.51,1.23,3.19,3.19,0,0,0-5.7,2c0,3,5.7,6.71,5.7,6.71s5.7-3.64,5.7-6.71A3.19,3.19,0,0,0,53.37,8.68Z"/><path class="cls-2" d="M49,8.9l.21.13a2.15,2.15,0,0,1,.81.56l-.47-.21A2.78,2.78,0,0,0,47.65,9a2.06,2.06,0,0,0-.56.26l.16-.05a3.33,3.33,0,0,0-1.08.8l.12-.09a2.42,2.42,0,0,0-.79,1.41l-.07.25a2.86,2.86,0,0,0,.31,1.54,7.82,7.82,0,0,0,1.08,1.65,12.69,12.69,0,0,0,2.72,2.53,4.93,4.93,0,0,1,.67.54,3.85,3.85,0,0,1,.39.21l.21.13,0,0,0,0,.18-.12.42-.3.79-.58a3,3,0,0,1,.63-.4,21.84,21.84,0,0,0,2-2.08,4.5,4.5,0,0,0,1.28-3.28,2,2,0,0,0-.22-.63l-.07-.22a3,3,0,0,0-1.51-1.29c-.8-.3-.92-.33-1-.48A3.34,3.34,0,0,1,55,9a2.69,2.69,0,0,1,1.42,1.47,3.55,3.55,0,0,1,.32,1.65c0,.12,0,.25,0,.37l-.11.36c-.06.23-.17.44-.23.64a18.66,18.66,0,0,1-1.91,2.34c-.07.05,0,0-.12.08a15.35,15.35,0,0,1-1.54,1.44c-.28.23-.58.46-.88.68l-.46.33-.54.37-.33-.21c-.7-.45-1.45-1.07-2.25-1.7l-.58-.56-.23-.17a9.19,9.19,0,0,1-1.36-1.57,7.26,7.26,0,0,1-.83-1.5,4,4,0,0,1-.2-1.44,2.6,2.6,0,0,1,.44-1.27,5.45,5.45,0,0,1,.31-.45A.77.77,0,0,1,46,9.69a2.74,2.74,0,0,1,.32-.36A3.16,3.16,0,0,1,48,8.67a2.33,2.33,0,0,1,1.31.25C49.24,8.89,48.89,8.83,49,8.9Z"/><path class="cls-2" d="M53.07,9.08s.11,0,.21,0a.9.9,0,0,0-.33,0,1.42,1.42,0,0,1,.29,0c.15-.06-.28,0-.12,0s.29,0,.21,0h-.19s.14,0,.23.05a3.25,3.25,0,0,0-.44,0Z"/><path class="cls-2" d="M52.1,9.31l.09,0s-.06,0-.14,0c.38-.14,0,.05.25,0C52.3,9.25,52.07,9.34,52.1,9.31Z"/><path class="cls-2" d="M52.57,9c.18,0,.35-.07.4,0a3.59,3.59,0,0,0-.46.05Z"/><path class="cls-2" d="M49.69,9.27l-.27-.12.3.14Z"/><path class="cls-2" d="M45.46,12.48c0-.19,0-.34,0-.62C45.48,12.14,45.43,12.42,45.46,12.48Z"/><path class="cls-2" d="M46.93,15.18s0,.09,0,0,0,0-.11-.17Z"/><path class="cls-2" d="M47.05,15.43l.08.12A.49.49,0,0,0,47.05,15.43Z"/><path class="cls-2" d="M48,9.07h0Z"/><path class="cls-2" d="M47.59,9.13l.3,0,.07,0A1,1,0,0,0,47.59,9.13Z"/><path class="cls-2" d="M48,9.06h0a2.09,2.09,0,0,1,.74,0A1.89,1.89,0,0,0,48,9.06Z"/><path class="cls-2" d="M48.27,9l.1,0c.1,0,.09,0,.09,0h.19A1.84,1.84,0,0,0,48,9Z"/><polygon class="cls-2" points="50.19 9.33 50.18 9.33 50.19 9.33 50.19 9.33"/><path class="cls-2" d="M49.68,9l0,0a3.36,3.36,0,0,1,.55.35h0A2.16,2.16,0,0,0,49.68,9Z"/><path class="cls-2" d="M47.23,9.19c.24-.09.43-.13.51-.18a3.59,3.59,0,0,0-.47.12C47.45,9.09,47.26,9.16,47.23,9.19Z"/><path class="cls-2" d="M46.82,9.29,47,9.17l-.1,0Z"/><path class="cls-2" d="M46.93,9.2s0,0-.11,0Z"/><path class="cls-2" d="M47.35,9a1.55,1.55,0,0,0-.38.16S47.22,9,47.35,9Z"/><polygon class="cls-2" points="46.36 9.51 46.28 9.55 46.29 9.6 46.36 9.51"/><path class="cls-2" d="M45.49,11.26c0-.25-.07.14-.08.16Z"/><path class="cls-2" d="M46.08,9.66l.09,0,0,0a.66.66,0,0,1,.19-.15C46.4,9.35,46.18,9.56,46.08,9.66Z"/><path class="cls-2" d="M45.55,10.59a1.67,1.67,0,0,0-.12.23"/><path class="cls-2" d="M46.5,9.14s-.37.19,0-.08c-.15.1-.36.27-.24.14-.24.19,0,0-.14.19C46.25,9.25,46.39,9.22,46.5,9.14Z"/><path class="cls-2" d="M45.93,9.58a1.41,1.41,0,0,0-.27.31C45.75,9.77,45.86,9.69,45.93,9.58Z"/><polygon class="cls-2" points="45.77 9.62 45.94 9.49 45.82 9.56 45.77 9.62"/><line class="cls-2" x1="45.24" y1="12.38" x2="45.29" y2="12.37"/><path class="cls-2" d="M45.28,10.36a3.64,3.64,0,0,1,.28-.47c-.1.13-.19.26-.28.4s0,.16.07,0C45.32,10.31,45.3,10.35,45.28,10.36Z"/><path class="cls-2" d="M45.63,9.9l.09-.14a3,3,0,0,0-.27.36A1,1,0,0,1,45.63,9.9Z"/><path class="cls-2" d="M45.45,10.12l-.1.15Z"/><path class="cls-2" d="M45.69,13.52l-.19-.42A3.3,3.3,0,0,0,45.69,13.52Z"/><path class="cls-2" d="M45.09,10.71l0,.07,0,0C45.14,10.66,45.09,10.71,45.09,10.71Z"/><path class="cls-2" d="M44.85,11.33a2.18,2.18,0,0,0,0,.56c0-.18,0-.38.09-.61C44.86,11.51,44.87,11.34,44.85,11.33Z"/><path class="cls-2" d="M44.77,12a2.66,2.66,0,0,1,0-.49A1.08,1.08,0,0,0,44.77,12Z"/><path class="cls-2" d="M44.92,12.78s0,0,0,.09a1.93,1.93,0,0,0-.09-.34Z"/><path class="cls-2" d="M46.37,9.37l-.27.24a4.13,4.13,0,0,1,.42-.31Z"/><path class="cls-2" d="M55.21,9.8a2.51,2.51,0,0,1,1,1.57,3.78,3.78,0,0,1-.76,2.76h0a14.57,14.57,0,0,1-1.89,2.1l.05,0c.11-.11.26-.25.19-.14a4.14,4.14,0,0,1-.42.34l-.1.13c-.12.07-.07-.05-.34.2s-.67.48-.63.56a3.18,3.18,0,0,0-.55.4l.13,0c-.32.21-.65.36-.79.48l-.22.15L50.5,18,50,17.71c-.07-.1.43.32.19.09a18.94,18.94,0,0,1-2.66-2.25s.09.11,0,.06-.37-.38-.6-.68a3.69,3.69,0,0,0,.46.56c-.13,0,0-.08-.39-.42,0,0,.06.09.05.09-.32-.34-.09-.17-.33-.43l.11.16c-.23-.27-.09-.07-.35-.37.07,0,0-.16-.08-.24S46.2,14,46.2,14c-.19-.44-.35-.5-.46-.92-.11-.16,0,.18,0,.17-.22-.4,0-.15-.09-.3a2.4,2.4,0,0,1-.21-.92l0,0a2.21,2.21,0,0,1,.23-1.09c0-.16-.09.11-.15.37,0,0,0-.22.06-.34a.66.66,0,0,0-.05.15s0-.17.06-.23c.17-.43,0,.17,0,0s.25-.53.13-.4c.19-.31.11-.1.22-.25-.18.22-.16.34-.29.51s0,0,.06,0a6.77,6.77,0,0,1,.44-.73l.12-.09.09-.12,0,0a2.17,2.17,0,0,0-.44.32s.09-.14.16-.22l.08,0c.2-.17.1-.2.41-.41-.17.17.36-.17.61-.22s-.06,0,.15-.19a2.69,2.69,0,0,1,1-.14c-.79,0,.37,0-.25.09.13,0,.23,0,.37,0s-.19,0,0,.1l.06,0c.18,0,.27.1.6.2a.81.81,0,0,1,.35.1c0,.05.06.06.32.22s.17,0,0-.12-.52-.3-.57-.35a6.9,6.9,0,0,0-1-.25,2.08,2.08,0,0,0-1.2.12l-.42.28c-.18.18.49-.24.72-.23l-.29.12h.12c-.49.26-.31.06-.71.35l.08-.07c-.07.06-.15.11-.22.18l.06,0-.34.35.13-.18c-.09.12-.16.11-.29.29a1,1,0,0,1,.13-.2,2.56,2.56,0,0,0-.54.72,3.57,3.57,0,0,0-.32,1.39,3.9,3.9,0,0,0,.31,1.38l0-.11a.94.94,0,0,1,.14.35,5.21,5.21,0,0,0,.24.47,11.31,11.31,0,0,0,.7.93s0,0-.07,0c.11.13.19.2.09.06.2.21.26.33.41.49l-.35-.34c.12.16.15.13.32.35s-.1-.17,0-.15l.11.13-.09-.17a4.83,4.83,0,0,1,.45.59l-.18-.21c-.11,0,.32.34.39.45l0,0c.31.3,0-.08.17.12s.23.26.35.38l0-.09c.24.19.64.61,1,.93.21.19.53.4.82.61,0-.05-.15-.14-.11-.12s.55.4.39.33l.27.16.22.16-.07-.06.29.18,0,0s.12-.06,0,.06a15.56,15.56,0,0,0,1.3-.94l-.14.13c.28-.24.34-.22.65-.49l-.09,0a3.55,3.55,0,0,1,.63-.45c0-.08.14-.09.23-.26l.18-.07c.13-.14.26-.27.15-.21a2.41,2.41,0,0,0,.51-.49h0c0-.05.25-.25.14-.18a9.85,9.85,0,0,0,.73-.7l0,0a5.17,5.17,0,0,0,.75-1.14l.06,0c.12-.23,0,0,.13-.33,0-.05.06-.09.07-.07A3.62,3.62,0,0,0,56.57,12s0,.08,0,.12a2.41,2.41,0,0,0-.1-.95,2.9,2.9,0,0,0-1.41-2.1c-.66-.28-1.14-.21-1.21-.12A4.32,4.32,0,0,1,55.21,9.8Z"/><path class="cls-2" d="M35.71,32.16a1.58,1.58,0,0,1,.75-.32,1.33,1.33,0,0,1,.75.06.84.84,0,0,1,.56.54,1.29,1.29,0,0,1-.1,1,3.14,3.14,0,0,1-2,1.46h0c0,.68,0,1.28.09,1.79a.12.12,0,0,1,0,.1.12.12,0,0,1-.08,0,.08.08,0,0,1-.09,0,.11.11,0,0,1-.05-.08c0-.62-.08-1.37-.08-2.26,0-.24,0-.61,0-1.12s0-.88,0-1.13a.16.16,0,0,1,0-.09.18.18,0,0,1,.09,0A.1.1,0,0,1,35.71,32.16Zm0,2.47a2.92,2.92,0,0,0,1.75-1.31,1.07,1.07,0,0,0,.09-.8.65.65,0,0,0-.41-.4,1.29,1.29,0,0,0-.71,0,1.37,1.37,0,0,0-.68.37l0,0c0,.19,0,.51,0,1s0,.78,0,1v.18Z"/><path class="cls-2" d="M38.38,32c0,1.05,0,1.92,0,2.62a2,2,0,0,1,.52-.9.66.66,0,0,1,.44-.2.64.64,0,0,1,.39.14,1.26,1.26,0,0,1,.44.71,4.89,4.89,0,0,1,.16,1.19,4.49,4.49,0,0,1-.14,1.2.08.08,0,0,1,0,.08.15.15,0,0,1-.09,0,.12.12,0,0,1-.08-.06.1.1,0,0,1,0-.09,4.16,4.16,0,0,0,.12-1.14,4.31,4.31,0,0,0-.14-1.13,1,1,0,0,0-.36-.58.3.3,0,0,0-.23-.09.4.4,0,0,0-.28.13,2,2,0,0,0-.54,1.3c0,.2,0,.46,0,.77s0,.68,0,.75v.18a.12.12,0,0,1-.05.05.11.11,0,0,1-.13,0s0,0,0,0v-.17c0-.09,0-.21,0-.34s0-.4-.06-1.13,0-2,0-3.27a.11.11,0,0,1,0-.08.16.16,0,0,1,.09,0,.12.12,0,0,1,.09,0A.17.17,0,0,1,38.38,32Z"/><path class="cls-2" d="M41.57,33.46a1.42,1.42,0,0,1,.7.39,1.52,1.52,0,0,1,.38.64,2,2,0,0,1,.07.74,2.17,2.17,0,0,1-.36,1.08,1.11,1.11,0,0,1-.83.52.82.82,0,0,1-.84-.44,1.81,1.81,0,0,1-.21-1,2.72,2.72,0,0,1,.28-1.16,1.44,1.44,0,0,1,.66-.76A.11.11,0,0,1,41.57,33.46Zm-.1.22a1.36,1.36,0,0,0-.52.67,2.86,2.86,0,0,0-.23,1,1.7,1.7,0,0,0,.18.91.58.58,0,0,0,.61.32.84.84,0,0,0,.65-.43,1.7,1.7,0,0,0,.31-.93,1.62,1.62,0,0,0-.21-1A1.19,1.19,0,0,0,41.47,33.68Z"/><path class="cls-2" d="M43.24,33.23l-.39,0a.1.1,0,0,1-.09,0,.14.14,0,0,1,0-.08.12.12,0,0,1,0-.09.1.1,0,0,1,.08-.05,3,3,0,0,1,.43,0c0-.41,0-.71,0-.89a.11.11,0,0,1,0-.08.12.12,0,0,1,.09,0,.11.11,0,0,1,.09,0,.14.14,0,0,1,0,.09c0,.19,0,.49,0,.88L44,33a.18.18,0,0,1,.09,0,.1.1,0,0,1,0,.09.15.15,0,0,1,0,.09.1.1,0,0,1-.09,0l-.45,0a18.06,18.06,0,0,0,0,2.87.84.84,0,0,0,.25.56.4.4,0,0,0,.5,0,.1.1,0,0,1,.09,0,.14.14,0,0,1,.08.05.14.14,0,0,1,0,.09.12.12,0,0,1-.06.08.61.61,0,0,1-.78,0,1.07,1.07,0,0,1-.34-.71A18.72,18.72,0,0,1,43.24,33.23Z"/><path class="cls-2" d="M45.78,33.46a1.45,1.45,0,0,1,.71.39,1.63,1.63,0,0,1,.38.64,2.59,2.59,0,0,1,.07.74,2.09,2.09,0,0,1-.37,1.08,1.09,1.09,0,0,1-.83.52.82.82,0,0,1-.84-.44,1.81,1.81,0,0,1-.21-1A3,3,0,0,1,45,34.19a1.46,1.46,0,0,1,.67-.76A.1.1,0,0,1,45.78,33.46Zm-.1.22a1.42,1.42,0,0,0-.52.67,2.85,2.85,0,0,0-.22,1,1.61,1.61,0,0,0,.17.91.6.6,0,0,0,.62.32.85.85,0,0,0,.65-.43,1.78,1.78,0,0,0,.31-.93,1.62,1.62,0,0,0-.21-1A1.24,1.24,0,0,0,45.68,33.68Z"/><path class="cls-2" d="M49.13,33.92c-.14-.15-.32-.15-.55,0a2.13,2.13,0,0,0-.68.69,3,3,0,0,0-.45,1,.78.78,0,0,0,.08.69.23.23,0,0,0,.28,0,1.27,1.27,0,0,0,.42-.34,2.23,2.23,0,0,0,.38-.47,2.56,2.56,0,0,0,.26-.4,3.47,3.47,0,0,0,.19-.57.59.59,0,0,1,0-.17.14.14,0,0,1,.08-.09.15.15,0,0,1,.13,0l.06.05v0a0,0,0,0,1,0,0s0,0,0,0,0,.08,0,.14,0,.23.06.4.07.52.08.6a5,5,0,0,1,0,1.46,1.7,1.7,0,0,1-.37.72,1.33,1.33,0,0,1-.57.41,1.11,1.11,0,0,1-.59.07.73.73,0,0,1-.36-.15.49.49,0,0,1-.17-.35c0-.1,0-.16,0-.18s.11,0,.2.16.12.25.33.28a.83.83,0,0,0,.46,0,1.26,1.26,0,0,0,.47-.35,1.3,1.3,0,0,0,.31-.62,4.32,4.32,0,0,0,0-1.37q0-.12-.09-.6l0-.15a3.59,3.59,0,0,1-.15.37,3,3,0,0,1-.26.45,5.21,5.21,0,0,1-.41.5,1.46,1.46,0,0,1-.51.38.44.44,0,0,1-.55-.09,1,1,0,0,1-.13-.9,3.24,3.24,0,0,1,.47-1,2.55,2.55,0,0,1,.77-.77.65.65,0,0,1,.85.06.16.16,0,0,1,0,.09.11.11,0,0,1,0,.08.12.12,0,0,1-.09,0Z"/><path class="cls-2" d="M49.85,36.7v-.17a0,0,0,0,1,0,0h0v0h0v-.67c0-.22,0-.39,0-.5s0-.62,0-1.13a.09.09,0,0,1,0-.08A.13.13,0,0,1,50,34a.12.12,0,0,1,.08,0,.13.13,0,0,1,0,.1c0,.33,0,.57,0,.72v0a2.3,2.3,0,0,1,1.2-1.47h.09a.13.13,0,0,1,.07.06.14.14,0,0,1,0,.09.11.11,0,0,1-.06.07,2,2,0,0,0-1.07,1.32,6.06,6.06,0,0,0-.24,1.73h0v.1h0s0,0,0,0a.12.12,0,0,1-.09,0,.1.1,0,0,1-.1,0,.06.06,0,0,1,0,0s0,0,0,0h0v0Z"/><path class="cls-2" d="M53.47,33.73a.52.52,0,0,0-.68,0,2.42,2.42,0,0,0-.66.87,3.12,3.12,0,0,0-.34,1.15.78.78,0,0,0,.22.74.34.34,0,0,0,.46,0,1.76,1.76,0,0,0,.44-.68,7.61,7.61,0,0,0,.34-.9c.12-.38.19-.58.2-.6v-.09a.17.17,0,0,1,0-.1.13.13,0,0,1,.15-.08.12.12,0,0,1,.1.07s0,0,0,0,0,0,0,0a.38.38,0,0,1,0,.13c0,.19,0,.36,0,.51s0,.21,0,.38,0,.32,0,.41a7.55,7.55,0,0,0,.13,1.1.15.15,0,0,1,0,.09.14.14,0,0,1-.08.05.09.09,0,0,1-.09,0,.12.12,0,0,1-.06-.08c-.05-.27-.09-.65-.13-1.12l0-.42c0-.18,0-.3,0-.38h0l-.05.16a8.91,8.91,0,0,1-.34.92,2.12,2.12,0,0,1-.52.76.57.57,0,0,1-.76,0,1,1,0,0,1-.31-1,3.4,3.4,0,0,1,.36-1.24,2.72,2.72,0,0,1,.75-1,.72.72,0,0,1,1,0,.14.14,0,0,1,.05.08.16.16,0,0,1,0,.09.1.1,0,0,1-.08,0A.11.11,0,0,1,53.47,33.73Z"/><path class="cls-2" d="M54.51,36.57v1.3a.12.12,0,0,1,0,.08.11.11,0,0,1-.09,0,.14.14,0,0,1-.12-.12c0-.49,0-1.22,0-2.19s0-1.71,0-2.19a.14.14,0,0,1,0-.09.18.18,0,0,1,.09,0,.12.12,0,0,1,.08,0,.11.11,0,0,1,0,.09v1.1a2.46,2.46,0,0,1,.21-.43c.29-.49.62-.72,1-.71a.63.63,0,0,1,.57.29,1.29,1.29,0,0,1-.06,1.36,3.33,3.33,0,0,1-.39.63,2.1,2.1,0,0,1-.44.45A2.18,2.18,0,0,1,54.51,36.57Zm0-1.2v1a2.09,2.09,0,0,0,.74-.33,2,2,0,0,0,.4-.42A3.41,3.41,0,0,0,56,35c.23-.49.26-.86.08-1.12a.45.45,0,0,0-.37-.19q-.42,0-.78.6A5,5,0,0,0,54.51,35.37Z"/><path class="cls-2" d="M57,32c0,1.05,0,1.92,0,2.62a1.87,1.87,0,0,1,.52-.9.58.58,0,0,1,.82-.06,1.33,1.33,0,0,1,.45.71A4.46,4.46,0,0,1,59,35.57a4.51,4.51,0,0,1-.13,1.2s0,.07,0,.08a.16.16,0,0,1-.1,0,.11.11,0,0,1-.07-.06.1.1,0,0,1,0-.09,5.11,5.11,0,0,0,.12-1.14,4.78,4.78,0,0,0-.14-1.13,1.1,1.1,0,0,0-.37-.58.27.27,0,0,0-.23-.09.42.42,0,0,0-.28.13,2,2,0,0,0-.53,1.3c0,.2,0,.46,0,.77s0,.68,0,.75v.12a.06.06,0,0,1,0,0v0l-.06.05a.11.11,0,0,1-.13,0s0,0,0,0l0,0v-.13c0-.09,0-.21,0-.34s0-.4-.06-1.13,0-2,0-3.27a.09.09,0,0,1,0-.08.12.12,0,0,1,.09,0,.11.11,0,0,1,.08,0A.13.13,0,0,1,57,32Z"/><path class="cls-2" d="M59.17,34.83a2.47,2.47,0,0,1,.25-.78,1,1,0,0,1,.78-.67.53.53,0,0,1,.38.07.54.54,0,0,1,.22.27,1.13,1.13,0,0,1-.09.75,1.23,1.23,0,0,1-.58.61,1,1,0,0,1-.75.06v.13a1.74,1.74,0,0,0,.21,1,.65.65,0,0,0,.71.32,1,1,0,0,0,.5-.25,1.92,1.92,0,0,0,.39-.49.12.12,0,0,1,.08-.06.14.14,0,0,1,.09,0,.13.13,0,0,1,.06.07.16.16,0,0,1,0,.1,2.8,2.8,0,0,1-.46.57,1.3,1.3,0,0,1-.61.3.9.9,0,0,1-1-.44,2,2,0,0,1-.25-1.16,1.64,1.64,0,0,1,0-.23.11.11,0,0,1,0-.15Zm.24.05a.72.72,0,0,0,.61,0,.92.92,0,0,0,.46-.49.81.81,0,0,0,.08-.57.27.27,0,0,0-.33-.18c-.23,0-.43.21-.59.54A2.54,2.54,0,0,0,59.41,34.88Z"/><path class="cls-2" d="M61.73,36.7v-.2h0v0h0V35.27c0-.24,0-.62,0-1.13a.12.12,0,0,1,0-.08.12.12,0,0,1,.18,0,.17.17,0,0,1,0,.1c0,.33,0,.57,0,.72v0a2.3,2.3,0,0,1,1.2-1.47h.09a.11.11,0,0,1,.07.06.14.14,0,0,1,0,.09.11.11,0,0,1-.06.07,2,2,0,0,0-1.06,1.32A5.43,5.43,0,0,0,62,36.64h0v.1h0s0,0,0,0a.1.1,0,0,1-.09,0,.1.1,0,0,1-.1,0,.06.06,0,0,1,0,0s0,0,0,0h0v0Z"/><path class="cls-2" d="M.49,7.82a4.3,4.3,0,0,1,2,.55A5.54,5.54,0,0,1,4.09,9.78a4.72,4.72,0,0,1,1,1.92,4.1,4.1,0,0,1,0,2.14A4.16,4.16,0,0,1,3.26,16a4.29,4.29,0,0,1-1.15.58,4.62,4.62,0,0,1-1.26.2.23.23,0,0,1-.16.17.34.34,0,0,1-.18,0,.25.25,0,0,1-.11-.14,22.11,22.11,0,0,1-.3-2.29C0,13.61,0,12.92,0,12.38S0,11.05,0,10,0,8.22,0,7.87A.26.26,0,0,1,.1,7.71a.26.26,0,0,1,.16-.07A.22.22,0,0,1,.49,7.82Zm.3,8.48A4,4,0,0,0,2,16.13a4,4,0,0,0,1-.53,3.73,3.73,0,0,0,1.57-1.89,3.68,3.68,0,0,0,0-1.89,4.78,4.78,0,0,0-.88-1.76,5.51,5.51,0,0,0-1.5-1.27A3.79,3.79,0,0,0,.49,8.28c0,.31,0,.83,0,1.57s0,1.31,0,1.71,0,.91,0,1.52.05,1.17.1,1.69S.7,15.81.79,16.3Z"/><path class="cls-2" d="M9.2,11a1,1,0,0,0-1.26,0,4.32,4.32,0,0,0-1.25,1.63,5.86,5.86,0,0,0-.63,2.15c0,.7.09,1.16.41,1.39a.63.63,0,0,0,.85,0,3.38,3.38,0,0,0,.83-1.27,16.23,16.23,0,0,0,.63-1.68c.23-.72.36-1.1.38-1.14V12a.59.59,0,0,1,.06-.2.27.27,0,0,1,.29-.15.22.22,0,0,1,.18.13.15.15,0,0,1,0,.08.13.13,0,0,1,0,.08,1.29,1.29,0,0,1,0,.23c0,.35,0,.67,0,1s0,.4,0,.7,0,.6,0,.78a15,15,0,0,0,.25,2.06.35.35,0,0,1,0,.17.21.21,0,0,1-.15.09.25.25,0,0,1-.17,0,.23.23,0,0,1-.1-.15,19.86,19.86,0,0,1-.25-2.11l0-.78c0-.33,0-.57,0-.7v0l-.09.3c-.23.7-.45,1.28-.65,1.73a3.94,3.94,0,0,1-1,1.42,1.06,1.06,0,0,1-1.43.06,1.92,1.92,0,0,1-.59-1.8,6.48,6.48,0,0,1,.68-2.32,4.78,4.78,0,0,1,1.4-1.8,1.36,1.36,0,0,1,1.8,0,.24.24,0,0,1,.09.15.22.22,0,0,1-.05.17.24.24,0,0,1-.15.09A.22.22,0,0,1,9.2,11Z"/><path class="cls-2" d="M11,13.25a8.39,8.39,0,0,1,.82-1.78,2.71,2.71,0,0,1,.89-.94,1,1,0,0,1,1.18.11,2.14,2.14,0,0,1,.62,1.18,9.07,9.07,0,0,1,.23,1.67c0,.34,0,.71,0,1.1s0,.79,0,1.21,0,.66,0,.76a.21.21,0,0,1-.07.16.24.24,0,0,1-.16.07.24.24,0,0,1-.23-.23c0-.1,0-.35,0-.76s0-.8,0-1.19,0-.74,0-1.09a9.34,9.34,0,0,0-.21-1.59A1.85,1.85,0,0,0,13.6,11a.58.58,0,0,0-.68-.06,2.17,2.17,0,0,0-.72.79,7.77,7.77,0,0,0-.55,1.08,9.79,9.79,0,0,0-.34,1l-.12.53a4.56,4.56,0,0,0-.07.59c0,.22,0,.39,0,.52s0,.33,0,.6,0,.47,0,.56a.19.19,0,0,1,0,.08v0a.09.09,0,0,0,0,0,.25.25,0,0,1-.18.13.2.2,0,0,1-.23-.13l0,0a.08.08,0,0,0,0,0V14.76c0-1.84,0-3.07-.08-3.72a.19.19,0,0,1,.05-.16.27.27,0,0,1,.16-.08.21.21,0,0,1,.17,0,.25.25,0,0,1,.08.16C11,11.62,11,12.36,11,13.25Z"/><path class="cls-2" d="M15.64,8.83a.19.19,0,0,1,.08.15.24.24,0,0,1-.07.16.21.21,0,0,1-.16.07A.24.24,0,0,1,15.26,9a.21.21,0,0,1,.07-.16.24.24,0,0,1,.16-.07A.19.19,0,0,1,15.64,8.83Zm.23,1.86a38.88,38.88,0,0,0,.19,6,.25.25,0,0,1,0,.17.24.24,0,0,1-.16.09.24.24,0,0,1-.26-.21,39.9,39.9,0,0,1-.19-6,.2.2,0,0,1,.07-.16.26.26,0,0,1,.17-.07.26.26,0,0,1,.16.07A.25.25,0,0,1,15.87,10.69Z"/><path class="cls-2" d="M16.6,13a4.81,4.81,0,0,1,.46-1.46,2,2,0,0,1,1.46-1.26,1.07,1.07,0,0,1,.71.13,1,1,0,0,1,.41.53,2,2,0,0,1-.17,1.39,2.32,2.32,0,0,1-1.07,1.15,2,2,0,0,1-1.41.1,1.93,1.93,0,0,0,0,.24,3.43,3.43,0,0,0,.4,1.92,1.21,1.21,0,0,0,1.32.6,1.85,1.85,0,0,0,.94-.46,3.79,3.79,0,0,0,.74-.93.22.22,0,0,1,.14-.11.25.25,0,0,1,.17,0,.26.26,0,0,1,.11.14.37.37,0,0,1,0,.18,4.69,4.69,0,0,1-.87,1.06,2.27,2.27,0,0,1-1.14.56A1.67,1.67,0,0,1,17,16a3.85,3.85,0,0,1-.46-2.17,3.25,3.25,0,0,1,0-.44.19.19,0,0,1-.06-.26A.23.23,0,0,1,16.6,13Zm.44.11a1.47,1.47,0,0,0,1.15,0,1.87,1.87,0,0,0,.86-.93,1.49,1.49,0,0,0,.14-1.06.5.5,0,0,0-.61-.34c-.43.05-.8.39-1.11,1A5,5,0,0,0,17,13.15Z"/><path class="cls-2" d="M22.1,7.91a81.19,81.19,0,0,0,0,9,.23.23,0,0,1-.06.16.2.2,0,0,1-.15.08.26.26,0,0,1-.17-.05.27.27,0,0,1-.08-.16,82.27,82.27,0,0,1-.05-9,.19.19,0,0,1,.07-.15.25.25,0,0,1,.17-.06.21.21,0,0,1,.16.07A.24.24,0,0,1,22.1,7.91Z"/><path class="cls-2" d="M26,11a1,1,0,0,0-1.27,0,4.42,4.42,0,0,0-1.25,1.63,5.83,5.83,0,0,0-.62,2.15c-.06.7.08,1.16.4,1.39a.64.64,0,0,0,.86,0,3.51,3.51,0,0,0,.83-1.27c.2-.44.4-1,.63-1.68s.35-1.1.38-1.14V12a.59.59,0,0,1,0-.2.28.28,0,0,1,.29-.15.22.22,0,0,1,.18.13.1.1,0,0,1,0,.08s0,0,0,.08v.23c0,.35,0,.67,0,1s0,.4,0,.7,0,.6.05.78a17.09,17.09,0,0,0,.24,2.06.22.22,0,0,1,0,.17.19.19,0,0,1-.14.09.23.23,0,0,1-.28-.18c-.09-.51-.17-1.22-.24-2.11l0-.78c0-.33,0-.57,0-.7v0l-.09.3a16.31,16.31,0,0,1-.65,1.73,3.82,3.82,0,0,1-1,1.42,1.06,1.06,0,0,1-1.43.06,1.92,1.92,0,0,1-.58-1.8A6.46,6.46,0,0,1,23,12.47a4.8,4.8,0,0,1,1.41-1.8,1.36,1.36,0,0,1,1.8,0,.24.24,0,0,1,.09.15.22.22,0,0,1,0,.17.29.29,0,0,1-.16.09A.19.19,0,0,1,26,11Z"/><line class="cls-1" x1="45.23" y1="30.11" x2="58.68" y2="30.11"/><path class="cls-5" d="M55.79,30.2l-.12,0C55.73,30.18,55.58,30.21,55.79,30.2Z"/><path class="cls-5" d="M52.85,30.16h.08l-.26,0C52.58,30.14,52.91,30.14,52.85,30.16Z"/><path class="cls-5" d="M50.46,30.14s0,0,0,0h0Z"/><path class="cls-5" d="M53.55,30.17h0Z"/><path class="cls-5" d="M53.07,30.15h0S53.06,30.15,53.07,30.15Z"/><path class="cls-5" d="M51.22,30.13h0Z"/><path class="cls-5" d="M53.7,30.17h0Z"/><path class="cls-5" d="M51.14,30.15h0Z"/><path class="cls-5" d="M53.8,30.18h0Z"/><path class="cls-5" d="M51.33,30.12h0l.08,0Z"/><path class="cls-5" d="M54.25,30.16h.13s0,0,0,0h0l-.07,0h0S54.24,30.16,54.25,30.16Z"/><path class="cls-5" d="M54.24,30.15h0Z"/><path class="cls-5" d="M53.93,30.11l0,0,.1,0Z"/><path class="cls-5" d="M51.77,30.14h-.11s0,0,0,0h.1Z"/><path class="cls-5" d="M52.2,30.1h0S52.27,30.1,52.2,30.1Z"/><path class="cls-5" d="M52.26,30.12h0S52.19,30.12,52.26,30.12Z"/><path class="cls-5" d="M52.12,30.16h0Z"/><path class="cls-5" d="M51.68,30.16h0Z"/><path class="cls-5" d="M47.86,30.22h0Z"/><path class="cls-5" d="M51.55,30.12Z"/><path class="cls-6" d="M45.74,30.19h0Z"/><path class="cls-6" d="M45.55,30.14a2.08,2.08,0,0,1-.25,0v0h-.07s0,0,0,0,.26,0,.15,0a2.16,2.16,0,0,0,.31,0l-.1,0,0,0C45.41,30.17,45.45,30.14,45.55,30.14Z"/><path class="cls-6" d="M51.27,30.12h0Z"/><path class="cls-6" d="M51.55,30.15h0Z"/><path class="cls-6" d="M51.87,30.15h0Z"/><path class="cls-6" d="M51.92,30.15l0,0h0s0,0,0,0h0Z"/><polygon class="cls-6" points="51.53 30.17 51.55 30.17 51.54 30.17 51.53 30.17"/><path class="cls-6" d="M51.69,30.15h0s0,0,0,0h-.15l.15,0h0l0,0h0Z"/><path class="cls-6" d="M52,30.15h0Z"/><polygon class="cls-6" points="51.33 30.12 51.33 30.12 51.33 30.12 51.33 30.12"/><path class="cls-6" d="M51.46,30.13h0Z"/><path class="cls-6" d="M52,30.19h0S51.92,30.19,52,30.19Z"/><path class="cls-6" d="M51.41,30.16l0,0-.08,0h.13Z"/><path class="cls-6" d="M51.41,30.16h-.08s0,0,0,0l.13,0h-.09s0,0,0,0Z"/><path class="cls-6" d="M51.12,30.14h.05s0,0-.07,0h0l-.09,0h0l.08,0h0Z"/><path class="cls-6" d="M51.16,30.16h0Z"/><path class="cls-6" d="M51.16,30.16h0Z"/><path class="cls-6" d="M50.84,30.13h0Z"/><path class="cls-6" d="M50.9,30.16h0v0Z"/><path class="cls-6" d="M51,30.15h0Z"/><path class="cls-6" d="M51.8,30.12s-.08,0,0,0h0s-.06,0,0,0-.07,0-.15,0,.1,0,.14,0Z"/><path class="cls-6" d="M51.78,30.14h0Z"/><path class="cls-6" d="M51.84,30.1h0Z"/><path class="cls-7" d="M52.1,30.12h0S52,30.12,52.1,30.12Z"/><path class="cls-7" d="M52,30.1h0S52.11,30.1,52,30.1Z"/><path class="cls-6" d="M52,30.12h0Z"/><path class="cls-6" d="M51.94,30.12h0Z"/><path class="cls-7" d="M51.26,30.19l.14,0C51.3,30.2,51.38,30.19,51.26,30.19Z"/><polygon class="cls-6" points="51.72 30.19 51.73 30.19 51.57 30.18 51.72 30.19"/><path class="cls-6" d="M52.88,30.18s0,0,0,0S52.87,30.17,52.88,30.18Z"/><path class="cls-6" d="M52.72,30.12h0Z"/><path class="cls-6" d="M53.07,30.15s0,0,0,0H53l.05,0h0Z"/><path class="cls-6" d="M52.85,30.16c.06,0-.27,0-.18,0h0l-.11,0s.3,0,.36.05h0Z"/><path class="cls-6" d="M53,30.16s0,0,0,0,.08,0,.08,0A.24.24,0,0,0,53,30.16Z"/><path class="cls-6" d="M53,30.13h0Z"/><path class="cls-6" d="M52.92,30.11Z"/><path class="cls-6" d="M52.83,30.12h0a.4.4,0,0,1-.11,0h.07Z"/><path class="cls-6" d="M52.14,30.2h.11l-.09,0h0s0,0,0,0H52l.23.05s.05,0,.1,0h-.06S52.19,30.2,52.14,30.2Z"/><path class="cls-8" d="M52.14,30.2s.11,0,.12,0h-.12Z"/><path class="cls-8" d="M52.25,30.19Z"/><path class="cls-8" d="M52.1,30.19h0Z"/><path class="cls-7" d="M53,30.18c.15,0-.07,0,.09,0S53.06,30.18,53,30.18Z"/><polygon class="cls-6" points="54.77 30.16 54.79 30.16 54.7 30.14 54.69 30.14 54.77 30.16"/><path class="cls-6" d="M53.55,30.15h0s0,0-.09,0C53.49,30.13,53.44,30.14,53.55,30.15Z"/><path class="cls-7" d="M53.71,30.13c-.06,0,0,0,0,0h0S53.76,30.13,53.71,30.13Z"/><path class="cls-6" d="M54.65,30.11h0Z"/><path class="cls-6" d="M55,30.15h0Z"/><path class="cls-6" d="M55.07,30.16h.09S55.06,30.15,55.07,30.16Z"/><path class="cls-6" d="M55.08,30.13h0Z"/><path class="cls-6" d="M54.91,30.15h0Z"/><path class="cls-6" d="M54.27,30.19c.06,0,.07,0,.06,0h-.07S54.28,30.18,54.27,30.19Z"/><path class="cls-6" d="M54.31,30.17h0Z"/><path class="cls-6" d="M54,30.15s0,0,0,0a.28.28,0,0,1,.14,0Z"/><path class="cls-6" d="M54.41,30.18h0Z"/><path class="cls-6" d="M54.48,30.13h.24s.1,0,.15,0-.15,0,0,0c-.25,0,0,0-.28,0,0,0,0,0,0,0S54.47,30.12,54.48,30.13Z"/><path class="cls-6" d="M54.31,30.14h0Z"/><path class="cls-6" d="M54.67,30.19h0s0,0-.11,0h.06Z"/><path class="cls-6" d="M54.86,30.15Z"/><path class="cls-6" d="M54.45,30.17h-.09s0,0,0,0h.07Z"/><path class="cls-6" d="M54,30.11h0Z"/><path class="cls-6" d="M54.11,30.12l0,0s-.07,0-.06,0h0S54.1,30.12,54.11,30.12Z"/><path class="cls-6" d="M54.71,30.15h-.1s0,0,0,0l.09,0c.06,0,.21,0,.19,0h-.17Z"/><path class="cls-6" d="M54.23,30.12h0Z"/><path class="cls-6" d="M54.24,30.15Z"/><path class="cls-6" d="M54.34,30.13h0Z"/><path class="cls-6" d="M54.49,30.11h0S54.49,30.12,54.49,30.11Z"/><path class="cls-6" d="M53.91,30.11h0Z"/><path class="cls-6" d="M54,30.14h0s0,0,0,0S54,30.15,54,30.14Z"/><path class="cls-6" d="M54,30.16a.21.21,0,0,0-.08,0,.2.2,0,0,0,.11,0Z"/><path class="cls-6" d="M53.6,30.17h0a.27.27,0,0,0-.09,0h0Z"/><path class="cls-6" d="M53.5,30.17h0Z"/><polygon class="cls-6" points="53.74 30.19 53.75 30.18 53.74 30.18 53.74 30.19"/><path class="cls-6" d="M53.73,30.18h0Z"/><path class="cls-6" d="M53.9,30.17h0Z"/><path class="cls-6" d="M53.9,30.17h-.06c.09,0,.21,0,.18,0s-.07,0-.16,0Z"/><polygon class="cls-6" points="54.23 30.13 54.24 30.12 54.23 30.12 54.23 30.13"/><path class="cls-6" d="M55.14,30.13l.23,0s.08,0,.13,0A1.48,1.48,0,0,0,55.14,30.13Z"/><path class="cls-6" d="M55.63,30.13h.06l-.11,0c.15,0-.14,0-.08,0a.56.56,0,0,0,.13,0h0Z"/><path class="cls-7" d="M54.81,30.18c.12,0,0,0,.13,0Z"/><path class="cls-6" d="M56,30.13h0Z"/><path class="cls-6" d="M56,30.13h0Z"/><path class="cls-7" d="M56.15,30.2s-.06,0-.13,0S55.93,30.22,56.15,30.2Z"/><path class="cls-6" d="M46.55,30.21s0,0-.06,0h0s-.07,0-.07,0h0S46.44,30.17,46.55,30.21Z"/><path class="cls-7" d="M45.86,30.19h0Z"/><path class="cls-7" d="M47.17,30.21h0Z"/><polygon class="cls-6" points="47.5 30.21 47.5 30.21 47.5 30.22 47.5 30.21"/><path class="cls-6" d="M58.37,30h0c-.15,0-.3,0-.45,0,.09,0,.22.11.2.15h.2l0,0,.33,0c.08-.08-.24-.2-.31-.22Z"/><path class="cls-6" d="M57.16,30.19h-.41a.7.7,0,0,0,.21,0h.84l0,0C57.56,30.2,57.4,30.17,57.16,30.19Z"/><path class="cls-6" d="M48.45,30.22h0s.08,0,0,0l.08,0h-.1Z"/><path class="cls-6" d="M48.55,30.22Z"/><polygon class="cls-6" points="48.44 30.22 48.44 30.22 48.45 30.22 48.44 30.22"/><path class="cls-6" d="M50.55,30.16h-.06s0,0,0,0h-.12s0,0,.15,0h.13l.06,0s0,0,0,0Z"/><path class="cls-6" d="M50.79,30.12s0,0,0,0S50.75,30.12,50.79,30.12Z"/><path class="cls-6" d="M50.72,30.1l-.06,0h0Z"/><path class="cls-6" d="M50.52,30.12h0c-.16,0,0,0-.08,0l0,0Z"/><path class="cls-6" d="M48.44,30.22v0H48s.12,0,.21,0Z"/><path class="cls-6" d="M48.54,30.19h.12Z"/><path class="cls-6" d="M47.28,30.19s0,0-.1,0l0,0c-.12,0,0,0-.14,0h0s.14,0,.13.05.14,0,.12,0h-.1s0,0,0,0c.18,0,.14,0,.24,0Z"/><path class="cls-6" d="M48.21,30h0Z"/><path class="cls-6" d="M48.3,30s0,0,0,0h0Z"/><path class="cls-6" d="M46,30.17a1.93,1.93,0,0,0,.26,0h0a1.08,1.08,0,0,1-.19,0C46.15,30.17,46.08,30.17,46,30.17Z"/><path class="cls-6" d="M47.5,30.21Z"/><path class="cls-6" d="M46.49,30.12h-.16c-.09,0-.06,0,0,0h0c-.08,0-.09,0-.07,0H46c-.06,0,0,0,0,0s-.12,0-.1,0,0,0,.13,0H46s0,0,0,0a.56.56,0,0,0-.13,0l.14,0h-.11c-.12,0,0,0-.19,0a2.36,2.36,0,0,1,.33-.07h.38s.3-.06.48-.08H47a9.3,9.3,0,0,1,1-.09c.09,0,.17,0,.22,0h0c-.25,0-.46,0-.63.07h-.1c-.16,0-.46,0-.43.07h-.38s0,0-.08,0,.06,0,0,0h-.08c-.05,0-.09,0-.07,0l-.05,0Zm-.32,0H46.1a.25.25,0,0,0-.12,0l.12,0Z"/><path class="cls-6" d="M47.9,30.21H48l0,0A.23.23,0,0,0,47.9,30.21Z"/><path class="cls-6" d="M46,30.15h0Z"/><path class="cls-6" d="M49.35,30.07h0Z"/><path class="cls-6" d="M47.67,30.18s-.06,0,0,0c-.25,0,0,0-.23,0l0,0h-.07l.11,0h.34A.68.68,0,0,0,47.67,30.18Z"/><path class="cls-6" d="M49.14,30.2H49l-.07,0s0,0,0,0h-.09c.1,0,.1.05.21.05a4.08,4.08,0,0,0,.52,0h-.11C49.31,30.25,49.34,30.2,49.14,30.2Z"/><path class="cls-6" d="M46.5,30.15l.11,0h0c.14,0,.16,0,.12,0,.2,0,.13,0,.28,0a.7.7,0,0,0-.14,0h0C46.73,30.18,46.68,30.15,46.5,30.15Z"/><path class="cls-6" d="M47.12,30.19h0s-.07,0,0,0c-.22,0-.11,0-.17,0s0,0,0,0h0c.15,0,.09,0,.12,0H47Zm-.12,0,0,0c-.07,0,0,0,0,0h0Z"/><path class="cls-6" d="M46,30.1l.12,0A.25.25,0,0,0,46,30.1Z"/><path class="cls-6" d="M46.17,30.13h0Z"/><path class="cls-6" d="M46.13,30.14h0Z"/><path class="cls-6" d="M46.22,30.15h0Z"/><path class="cls-6" d="M46,30.13c-.07,0-.12,0-.1,0s0,0,.13,0h0C46,30.14,46,30.12,46,30.13Z"/><path class="cls-6" d="M46,30.15Z"/><path class="cls-6" d="M46.56,30.08c.07,0,.06,0,0,0h0S46.64,30.08,46.56,30.08Z"/><path class="cls-6" d="M46.46,30.1l-.05,0h.12C46.48,30.11,46.44,30.11,46.46,30.1Z"/><polygon class="cls-6" points="46.93 30.13 46.92 30.14 46.95 30.14 46.93 30.13"/><path class="cls-6" d="M47,30.17h0Z"/><path class="cls-6" d="M47,30.17l0,0C46.89,30.16,47,30.16,47,30.17Z"/><path class="cls-6" d="M48.45,30.22h0Z"/><path class="cls-6" d="M48.52,30.2h-.09v0h.08Z"/><path class="cls-2" d="M46.42,30.18h0Z"/><path class="cls-2" d="M46,30.17s0,0,.07,0H46S45.93,30.17,46,30.17Z"/><path class="cls-2" d="M46.38,30.18l-.09,0h0s0,0,0,0Z"/><path class="cls-2" d="M46.18,30.15H46s0,0,0,0H46c.06,0,.13,0,.07,0a1.08,1.08,0,0,0,.19,0s0,0,0,0h0C46.17,30.17,46.16,30.16,46.18,30.15Z"/><path class="cls-2" d="M46,30.14Z"/><path class="cls-2" d="M46.2,30.14h0Z"/><path class="cls-2" d="M46,30.14h0Z"/><path class="cls-2" d="M46,30.15h0Z"/><path class="cls-2" d="M46.18,30.15h0Z"/><path class="cls-2" d="M51.5,30.12h0Z"/><path class="cls-2" d="M51.78,30.14h.08s0,0-.06,0S51.83,30.14,51.78,30.14Z"/><path class="cls-2" d="M51.77,30.16h0l.15,0h-.12Z"/><path class="cls-2" d="M51.66,30.13h.11s0,0,0,0h-.11Z"/><path class="cls-2" d="M51.84,30.15h-.15A.74.74,0,0,0,51.84,30.15Z"/><path class="cls-2" d="M52.11,30.16h.07l0,0h0Z"/><path class="cls-2" d="M51.89,30.15h0a.74.74,0,0,1-.15,0h.21l0,0h0Z"/><path class="cls-2" d="M51.55,30.12h0Z"/><path class="cls-2" d="M51.77,30.14h0s0,0,0,0h0S51.8,30.13,51.77,30.14Z"/><path class="cls-2" d="M52.15,30.16h0Z"/><path class="cls-2" d="M52.12,30.16h0Z"/><path class="cls-2" d="M52.12,30.18h0Z"/><path class="cls-2" d="M51.51,30.12h0Z"/><path class="cls-2" d="M51.57,30.17h0Z"/><path class="cls-2" d="M51.54,30.16h0Z"/><path class="cls-2" d="M51.66,30.15l-.33,0,0,0h.3Z"/><path class="cls-2" d="M51.27,30.11h0Z"/><path class="cls-2" d="M51.67,30.16h0Z"/><path class="cls-2" d="M51.66,30.15l-.15,0h-.18Z"/><path class="cls-2" d="M51.41,30.16s0,0,0,0h0Z"/><path class="cls-2" d="M51.31,30.16h0Z"/><path class="cls-2" d="M51.33,30.16Z"/><path class="cls-2" d="M51.41,30.16Z"/><path class="cls-2" d="M51.17,30.14h0l0,0h0Z"/><path class="cls-2" d="M51.2,30.12Z"/><path class="cls-2" d="M51.14,30.15s0,0,0,0h0Z"/><path class="cls-2" d="M51.18,30.13H51.1c.1,0,.09,0,.07,0h0Z"/><polygon class="cls-2" points="51.21 30.12 51.2 30.12 51.2 30.12 51.21 30.12"/><path class="cls-2" d="M51.17,30.16h0Z"/><polygon class="cls-2" points="51.17 30.16 51.17 30.16 51.17 30.16 51.17 30.16"/><path class="cls-2" d="M51.94,30.12H52c.08,0-.07,0-.06,0h0Z"/><path class="cls-2" d="M52,30.14s.06,0,0,0h0Z"/><polygon class="cls-2" points="51.83 30.1 51.83 30.1 51.84 30.1 51.83 30.1"/><path class="cls-2" d="M51.86,30.1h0Z"/><path class="cls-2" d="M51.94,30.12h0Z"/><polygon class="cls-2" points="52.12 30.13 52.18 30.12 52.11 30.11 52.12 30.13"/><path class="cls-9" d="M51.49,30.18a.44.44,0,0,0,.12,0C51.52,30.19,51.6,30.18,51.49,30.18Z"/><polygon class="cls-2" points="51.91 30.19 51.92 30.18 51.78 30.18 51.91 30.19"/><path class="cls-2" d="M53,30.17s0,0,0,0S53,30.17,53,30.17Z"/><path class="cls-2" d="M53,30.16h0Z"/><path class="cls-2" d="M53.06,30.13h0Z"/><path class="cls-2" d="M52.67,30.12h0Z"/><path class="cls-2" d="M53.06,30.13h0c.19,0,0,0,.08,0A.48.48,0,0,1,53.06,30.13Z"/><path class="cls-2" d="M52.93,30.15h0s-.27,0-.15,0h-.13Z"/><path class="cls-2" d="M53.07,30.15H53a.24.24,0,0,1,.12,0Z"/><path class="cls-2" d="M53.1,30.14h0Z"/><path class="cls-2" d="M52.69,30.13h0Z"/><path class="cls-2" d="M52.83,30.12h0Z"/><path class="cls-2" d="M52.91,30.13a.25.25,0,0,0,.1,0h-.1Z"/><path class="cls-2" d="M52.86,30.11h0Z"/><path class="cls-2" d="M52.92,30.11h0Z"/><path class="cls-2" d="M52.33,30.16h0a.67.67,0,0,0-.16,0l.12,0h0s.1,0,.16,0S52.33,30.18,52.33,30.16Z"/><path class="cls-2" d="M52.4,30.19h0Z"/><path class="cls-2" d="M52.4,30.19Z"/><path class="cls-2" d="M52.39,30.2h-.07l-.12,0h0l.09,0h.14Z"/><path class="cls-2" d="M52.26,30.19h0Z"/><path class="cls-2" d="M52.37,30.19h0Z"/><polygon class="cls-2" points="52.26 30.2 52.26 30.19 52.25 30.19 52.26 30.2"/><polygon class="cls-2" points="52.26 30.19 52.25 30.19 52.25 30.19 52.26 30.19"/><path class="cls-2" d="M52.26,30.19Z"/><path class="cls-9" d="M53.08,30.17c.13,0-.07,0,.08,0S53.14,30.17,53.08,30.17Z"/><polygon class="cls-2" points="54.71 30.16 54.73 30.16 54.65 30.14 54.63 30.14 54.71 30.16"/><path class="cls-2" d="M53.42,30.14h0c-.08,0,0,0-.11,0C53.35,30.13,53.29,30.14,53.42,30.14Z"/><path class="cls-9" d="M53.56,30.15h0a.41.41,0,0,0,.11,0c-.13,0,0,0-.11,0s0,0,0,0h0Z"/><path class="cls-6" d="M53.55,30.15h0Z"/><path class="cls-2" d="M54.34,30.11h0Z"/><path class="cls-2" d="M54.88,30.15h0Z"/><path class="cls-2" d="M54.81,30.13h0Z"/><path class="cls-2" d="M54.79,30.14h0Z"/><path class="cls-2" d="M54.65,30.14h0Z"/><path class="cls-2" d="M54.32,30.12h0A0,0,0,0,0,54.32,30.12Z"/><path class="cls-2" d="M54.48,30.17h.12l-.06,0C54.46,30.16,54.45,30.16,54.48,30.17Z"/><path class="cls-2" d="M54.12,30.13h0Z"/><path class="cls-2" d="M54.07,30.18c.12,0,0,0,0,0h0S54.08,30.17,54.07,30.18Z"/><path class="cls-2" d="M54.57,30.12h0s0,0,0,0Z"/><path class="cls-2" d="M54.45,30.13h0Z"/><path class="cls-2" d="M54.57,30.12h0Z"/><path class="cls-2" d="M54.05,30.11s0,0,0,0,0,0,0,0h-.05Z"/><path class="cls-2" d="M54.19,30.16h0s.06,0,.12,0S54.15,30.17,54.19,30.16Z"/><path class="cls-2" d="M54.24,30.15h0s0,0,0,0h0Z"/><path class="cls-2" d="M54.31,30.17h0Z"/><path class="cls-2" d="M54.47,30.15h-.14l.07,0Z"/><path class="cls-2" d="M54.41,30.18h.07s0,0,0,0Z"/><polygon class="cls-2" points="53.98 30.16 53.98 30.16 53.99 30.16 53.98 30.16"/><path class="cls-2" d="M54.19,30.15h0Z"/><path class="cls-2" d="M53.93,30.11h0c-.1,0-.06,0-.06,0Z"/><path class="cls-2" d="M54,30.13h0s0,0,0,0l-.1,0,0,0h-.07s-.09,0-.14,0c.22,0,0,0,.09,0h-.09a1.22,1.22,0,0,0,.27,0h0Z"/><path class="cls-2" d="M53.83,30.16h0Z"/><path class="cls-2" d="M54.63,30.11h0Z"/><path class="cls-2" d="M54.31,30.17h-.12s0,0,.07,0h.05Z"/><path class="cls-2" d="M54.38,30.18h0Z"/><path class="cls-2" d="M53.93,30.11h0Z"/><path class="cls-2" d="M54.26,30.13h0Z"/><path class="cls-2" d="M54.61,30.14h-.13s0,0,.09,0h-.08s0,0,0,0h-.14a0,0,0,0,1,0,0h-.06c.07,0,0,0,0,0s.1,0,.22,0c0,0-.14,0-.23,0a2.23,2.23,0,0,1-.26,0h0s-.05,0-.05,0h.07s0,0,0,0h.44s0,0,.06,0l.06,0S54.64,30.15,54.61,30.14Z"/><path class="cls-2" d="M54.06,30.12s0,0,0,0h0s0,0,0,0h0S54.12,30.12,54.06,30.12Z"/><path class="cls-2" d="M54,30.13h0S54,30.12,54,30.13Z"/><path class="cls-2" d="M54.19,30.14l0,0h0Z"/><path class="cls-2" d="M54.23,30.12l0,0h.08c.09,0,.19,0,.23,0-.12,0-.1,0-.22,0s0,0,0,0h0Z"/><path class="cls-2" d="M53.53,30.17h0Z"/><path class="cls-2" d="M53.41,30.15l-.06,0a.48.48,0,0,1,.17,0h-.11Z"/><path class="cls-2" d="M53.53,30.16h0Z"/><path class="cls-2" d="M53.73,30.17h0Z"/><path class="cls-2" d="M53.69,30.18h0Z"/><path class="cls-2" d="M53.73,30.17h0Z"/><path class="cls-2" d="M53.75,30.18h0c.06,0,.11,0,.09,0s0,0,0,0h-.09Z"/><path class="cls-2" d="M53.6,30.17h0Z"/><path class="cls-2" d="M53.73,30.18h0Z"/><path class="cls-2" d="M53.84,30.19h0Z"/><path class="cls-1" d="M54.12,30.13h0Z"/><path class="cls-1" d="M54.05,30.12h0s0,0,0,0h0Z"/><path class="cls-1" d="M54,30.13h0Z"/><path class="cls-1" d="M54.19,30.14h-.11s0,0,0,0H54a2.23,2.23,0,0,0,.26,0h-.08Z"/><path class="cls-1" d="M54.26,30.13h0Z"/><polygon class="cls-1" points="53.93 30.11 54.19 30.14 54.19 30.14 53.93 30.11"/><polygon class="cls-2" points="55.07 30.16 55.07 30.16 55.07 30.16 55.07 30.16"/><path class="cls-2" d="M55.07,30.14s.11,0,.09,0h0A.23.23,0,0,0,55.07,30.14Z"/><path class="cls-2" d="M54.86,30.13l.12,0,.09,0Z"/><path class="cls-2" d="M55.07,30.14h0l-.09,0h.09s0,0,.09,0S55,30.15,55.07,30.14Z"/><path class="cls-2" d="M55.29,30.12h0c.13,0-.13,0-.08,0S55.36,30.14,55.29,30.12Z"/><path class="cls-9" d="M54.58,30.18s0,0,0,0Z"/><path class="cls-9" d="M54.67,30.17s-.07,0-.11,0h.11Z"/><path class="cls-6" d="M54.58,30.18h0Z"/><path class="cls-2" d="M55.63,30.13h0Z"/><path class="cls-2" d="M55.58,30.13h0Z"/><path class="cls-2" d="M55.65,30.13h.08s0,0,0,0Z"/><path class="cls-2" d="M47.17,30.2h0Z"/><path class="cls-2" d="M47.05,30.15h0l.1,0h.06S47,30.17,47.05,30.15Z"/><path class="cls-9" d="M46.53,30.18h0Z"/><path class="cls-6" d="M46.49,30.18Z"/><polygon class="cls-2" points="47.09 30.15 47.09 30.15 47.08 30.15 47.09 30.15"/><path class="cls-9" d="M50.18,30.09h0Z"/><polygon class="cls-2" points="48.04 30.2 48.04 30.2 48.04 30.21 48.04 30.2"/><path class="cls-2" d="M57.8,30.19l.31,0v0Z"/><path class="cls-2" d="M56.52,30.08h.13c.38,0,.84,0,1.27-.05l-.09,0h0c-.49,0-1.09,0-1.57.07h-.12s-.38,0-.15.05h.14s0,0,0,0a2.22,2.22,0,0,0,.45.05h.22a3.59,3.59,0,0,0-.39-.06C56.11,30.1,56.54,30.1,56.52,30.08Z"/><path class="cls-2" d="M56.12,30.12h0S56.12,30.12,56.12,30.12Z"/><path class="cls-2" d="M56.65,30.09h-.13s-.41,0-.16.05a3.59,3.59,0,0,1,.39.06h.41c.24,0,.4,0,.62,0l0,0h.32s-.11-.11-.2-.15C57.49,30.05,57,30.06,56.65,30.09Z"/><path class="cls-1" d="M48.91,30.21h0s.07,0,0,0l.07,0h-.09Z"/><path class="cls-1" d="M49,30.21h0Z"/><polygon class="cls-1" points="48.91 30.21 48.9 30.21 48.9 30.21 48.91 30.21"/><path class="cls-2" d="M50.46,30.14h.09a.24.24,0,0,0,.11,0h-.09l.06,0h-.11Z"/><path class="cls-2" d="M50.39,30.12h0Z"/><path class="cls-2" d="M50.76,30.1s0,0,0,0l0,0h0Z"/><path class="cls-2" d="M51.06,30.11H51c-.06,0-.07,0-.08,0h0c-.06,0,0,0,0,0l.09,0h0Z"/><path class="cls-2" d="M50.91,30.13s0,0-.13,0,0,0,0,0h0l-.11,0,.22,0h0C50.81,30.16,51,30.14,50.91,30.13Z"/><path class="cls-2" d="M50.93,30.15h0Z"/><path class="cls-2" d="M51,30.11h0Z"/><path class="cls-2" d="M51,30.12h0c.06,0-.1,0,0,0H51S50.89,30.13,51,30.12Z"/><path class="cls-2" d="M50.79,30.12s0,0,0,0h0l0,0h0a.24.24,0,0,1-.11,0h0l.12,0s0,0,0,0Z"/><path class="cls-2" d="M50.46,30.14l.06,0h-.06Z"/><path class="cls-2" d="M48.7,30.21h0Z"/><path class="cls-2" d="M48.21,30h0Z"/><path class="cls-2" d="M47.5,30.21h0Z"/><path class="cls-2" d="M47.45,30.2h0Z"/><path class="cls-2" d="M47.86,30.21h0Z"/><path class="cls-2" d="M50.48,30.16s0,0-.14,0l.17,0h0c.17,0-.07,0,.06,0h0a.14.14,0,0,0-.09,0c-.38,0-.5.06-.87.05.16,0,.3,0,.54,0h.16c-.15,0,.12,0-.07,0h0l-.18,0c.09,0,.12,0,.16,0-.17,0-.16,0-.2-.07h-.09c-.08,0-.1,0-.07,0a0,0,0,0,1,0,0c-.1,0-.26,0-.24,0a.88.88,0,0,1-.23,0h0l.56,0s.13,0,.22,0h0s0,0,.07,0h.08l0,0h-.08l.07,0a2.62,2.62,0,0,0-.27,0s.16,0,.18,0l.12,0S50.42,30.16,50.48,30.16Zm-.64-.08h0Z"/><path class="cls-2" d="M46.46,30.16s0,0,0,0l-.08,0h.06c.06,0,0,0,.11,0h.08C46.49,30.18,46.58,30.16,46.46,30.16Z"/><polygon class="cls-2" points="48.04 30.2 48.04 30.19 48.03 30.2 48.04 30.2"/><path class="cls-2" d="M46.84,30.17h0Z"/><path class="cls-2" d="M48.46,30h-.05c.08,0,0,0,.12,0l.08,0,.06,0h0c.12,0,0,0,.07,0h.08l.22,0h0c.12,0,0,0-.07,0h.16s0,0-.14,0h.08l-.06,0L49,30c-.15,0,0,0-.12,0h.05a.38.38,0,0,1-.15,0s-.09,0-.09,0h0a.88.88,0,0,0-.2,0h-.09S48.38,30,48.46,30Z"/><path class="cls-2" d="M48.28,30h0Z"/><path class="cls-2" d="M48.88,30s0,0,0,0h-.14s0,.05.21,0l0,0h0l0,0Z"/><path class="cls-2" d="M46.45,30.16h0Z"/><polygon class="cls-2" points="46.46 30.16 46.45 30.16 46.46 30.16 46.46 30.16"/><path class="cls-2" d="M49.84,30.08h0Z"/><path class="cls-2" d="M50.34,30.12h-.08l.07,0a2.62,2.62,0,0,0-.27,0s.16,0,.18,0l.12,0s.06,0,.12,0h0C50.39,30.15,50.36,30.14,50.34,30.12Z"/><path class="cls-2" d="M47.59,30.16h-.05C47.48,30.16,47.55,30.16,47.59,30.16Z"/><path class="cls-2" d="M49.54,30.26h-.11c-.12,0-.09-.06-.29-.06h-.09l-.16,0v0h-.24l-.12,0H48a.23.23,0,0,0-.13,0h0a.68.68,0,0,0-.19,0s-.06,0,0,0c-.25,0,0,0-.23,0l0,0h-.07l.11,0h0v0h-.22s0,0-.1,0l0,0c-.12,0,0,0-.14,0s0,0-.12,0h-.15l.11,0s0,0,0,0h-.06c-.14,0-.19,0-.37,0l.11,0c-.12,0,0,0-.15,0s0,0,0,0h.12l.12,0h.19s-.12,0-.13,0h0c-.08,0-.06,0-.05,0h-.08s0,0,0,0,0,0,0,0H47s.27-.06.43-.07h.1c.17,0,.38-.05.63-.07h.16s0,0,.12,0h-.05c.08,0,0,0,.12,0l.08,0,.06,0h-.05s0,0,0,0h0c-.06,0-.2,0-.24,0l0,0h-.06c-.08,0,0,0-.08,0h-.11c-.05,0,.09,0,.19,0h.06s0,0,0,0h.09l.05,0s.2,0,.11,0h0s0,.05.21,0l0,0h.38a.88.88,0,0,0,.23,0s.14,0,.24,0a0,0,0,0,0,0,0s0,0,.07,0H50s0,0,.2.07c0,0-.07,0-.16,0l.18,0h0c.19,0-.08,0,.07,0h-.16C49.84,30.22,49.7,30.25,49.54,30.26Zm-2.78-.14-.11,0a.23.23,0,0,1,.11,0h0Zm.42,0s-.12,0-.1,0H47l.12,0h0l.22,0S47.15,30.12,47.18,30.11Zm.09,0h0c-.05,0,0,0-.06,0C47.3,30.08,47.21,30.1,47.27,30.11Zm.33.06h0s-.11,0-.05,0h.05S47.61,30.17,47.6,30.17Zm-.07,0-.12,0h.12Zm.12,0-.1,0C47.6,30.12,47.66,30.11,47.65,30.12Zm.18.06c-.07,0,0,0,.09,0S47.85,30.18,47.83,30.18Zm.59,0c-.06,0-.14,0-.08,0S48.44,30.18,48.42,30.19Z"/><path class="cls-2" d="M46.68,30.15h0c-.13,0,0,0-.14,0Z"/><path class="cls-2" d="M46.65,30.1l.11,0A.23.23,0,0,0,46.65,30.1Z"/><path class="cls-2" d="M46.82,30.12h0Z"/><path class="cls-2" d="M47.59,30.16h0S47.6,30.16,47.59,30.16Z"/><path class="cls-2" d="M46.63,30.11h0Z"/><path class="cls-2" d="M46.56,30.13h0s0,0,0,0,0,0,0,0h0Z"/><path class="cls-2" d="M46.58,30.13h0l.12,0h0Z"/><path class="cls-2" d="M48.24,30h-.11c-.05,0,.09,0,.19,0C48.24,30,48.37,30,48.24,30Z"/><path class="cls-2" d="M48.65,30h0c-.06,0-.2,0-.24,0l0,0s0,0,0,0h.09l.05,0s.2,0,.11,0Z"/><path class="cls-2" d="M48.32,30h0Z"/><polygon class="cls-2" points="46.92 30.13 46.82 30.12 46.92 30.14 46.93 30.13 46.92 30.13"/><path class="cls-2" d="M47.05,30.11H47l.12,0h0Z"/><path class="cls-2" d="M47.92,30.2s-.07,0-.09,0S47.84,30.19,47.92,30.2Z"/><path class="cls-2" d="M48.52,30.2h0Z"/><path class="cls-2" d="M50.18,30.21h0Z"/><path class="cls-2" d="M46.72,30.14h.15s-.12,0-.13,0h0c-.08,0-.06,0-.05,0h-.08C46.69,30.12,46.59,30.15,46.72,30.14Z"/><path class="cls-2" d="M46.56,30.13Z"/><polygon class="cls-2" points="46.68 30.15 46.68 30.15 46.68 30.15 46.68 30.15"/><path class="cls-2" d="M46.56,30.13h0Z"/><path class="cls-2" d="M47.18,30.08c.1,0,0,0,.06,0h0C47.21,30.1,47.3,30.08,47.18,30.08Z"/><path class="cls-2" d="M47.18,30.11s-.12,0-.1,0h0l.22,0S47.15,30.12,47.18,30.11Z"/><path class="cls-2" d="M47.05,30.11h0Z"/><path class="cls-2" d="M48.72,30h-.1l.09,0h.08C48.71,30,48.84,30,48.72,30Z"/><path class="cls-2" d="M48.62,30s0,0,0,0h.06Z"/><path class="cls-2" d="M48.65,30h0Z"/><path class="cls-2" d="M49.09,30h0l-.22,0h0s0,0,0,0L49,30l0,0h0S49.21,30.05,49.09,30Z"/><path class="cls-2" d="M49,30.05h0Z"/><path class="cls-2" d="M48.85,30h0Z"/><polygon class="cls-2" points="47.53 30.14 47.51 30.13 47.41 30.11 47.53 30.14"/><path class="cls-2" d="M47.55,30.1l.1,0S47.6,30.12,47.55,30.1Z"/><path class="cls-2" d="M48.42,30.19s-.06,0-.08,0S48.36,30.19,48.42,30.19Z"/><path class="cls-2" d="M48.91,30.21h0Z"/><path class="cls-2" d="M49,30.21h.08l-.16,0v0H49Z"/><path class="cls-2" d="M50.5,30.21h0Z"/><path class="cls-2" d="M78.74,10.3a1.05,1.05,0,0,0,0-.13l-.1-.7a2.39,2.39,0,0,0-.2-.56A1.25,1.25,0,0,0,78,8.4a1.07,1.07,0,0,0-.72-.29,1.84,1.84,0,0,0-.85.18,2.06,2.06,0,0,0-.7.53,1.28,1.28,0,0,0-.31.71A2.14,2.14,0,0,0,76,11a14.16,14.16,0,0,0,1.41,1.44,11.54,11.54,0,0,1,1.43,1.54,2.58,2.58,0,0,1,.56,1.81,1.34,1.34,0,0,1-.83,1.19,2.21,2.21,0,0,1-1.46-.09,4.22,4.22,0,0,1-1.41-.93,2.74,2.74,0,0,1-.81-1.36.21.21,0,0,1,0-.17.18.18,0,0,1,.14-.1.17.17,0,0,1,.17,0,.22.22,0,0,1,.11.14A2.36,2.36,0,0,0,76,15.6a3.56,3.56,0,0,0,1.25.8,1.61,1.61,0,0,0,1.12.09.87.87,0,0,0,.54-.8,2.16,2.16,0,0,0-.47-1.5,14.09,14.09,0,0,0-1.38-1.47,14.18,14.18,0,0,1-1.46-1.49A2.49,2.49,0,0,1,75,9.51a1.57,1.57,0,0,1,.4-1,2.51,2.51,0,0,1,.87-.68,2.19,2.19,0,0,1,1.06-.22,1.64,1.64,0,0,1,1,.39,1.21,1.21,0,0,1,.19.2l.16.19a2.18,2.18,0,0,1,.12.22l.11.22A1.3,1.3,0,0,1,79,9.1c0,.1.05.18.06.22s0,.13,0,.24,0,.19,0,.23,0,.11,0,.23a2.24,2.24,0,0,0,0,.23.24.24,0,0,1-.2.25.21.21,0,0,1-.17,0A.2.2,0,0,1,78.74,10.3Z"/><path class="cls-2" d="M82.3,12.12A2.41,2.41,0,0,0,82.07,11a.39.39,0,0,0-.36-.24.84.84,0,0,0-.55.31,3.34,3.34,0,0,0-.6.9,7,7,0,0,0-.35,1.11,6.31,6.31,0,0,0-.16,1.28c0,1,.28,1.64.86,1.89a.89.89,0,0,0,.92-.12L82,16a1.2,1.2,0,0,0,.2-.18c.05-.05.11-.13.19-.23l.18-.21s.1-.13.19-.25l.16-.25.18-.25.16-.25a.19.19,0,0,1,.14-.09.28.28,0,0,1,.18,0,.21.21,0,0,1,.09.15.25.25,0,0,1,0,.17l-.15.24-.18.26a1.64,1.64,0,0,0-.17.25l-.19.26-.2.24a3.09,3.09,0,0,1-.23.25l-.22.21a2.39,2.39,0,0,1-.26.21,1.32,1.32,0,0,1-1.35.16c-.77-.33-1.15-1.1-1.14-2.32A6.7,6.7,0,0,1,79.77,13a5.56,5.56,0,0,1,.38-1.19,3.55,3.55,0,0,1,.71-1.08,1.19,1.19,0,0,1,.84-.41.84.84,0,0,1,.77.47,2.8,2.8,0,0,1,.29,1.29.25.25,0,0,1-.06.17.21.21,0,0,1-.16.07.25.25,0,0,1-.17-.06A.2.2,0,0,1,82.3,12.12Z"/><path class="cls-2" d="M84.82,7.76c-.07,2-.09,3.6,0,4.91a3.48,3.48,0,0,1,1-1.68,1.16,1.16,0,0,1,.82-.37,1.08,1.08,0,0,1,.73.25,2.48,2.48,0,0,1,.83,1.33,8.21,8.21,0,0,1,.29,2.24,8.36,8.36,0,0,1-.25,2.24.18.18,0,0,1-.1.15.27.27,0,0,1-.18,0,.22.22,0,0,1-.14-.11.25.25,0,0,1,0-.17,8,8,0,0,0,.23-2.14,8.07,8.07,0,0,0-.26-2.11A2,2,0,0,0,87,11.24a.62.62,0,0,0-.44-.16.82.82,0,0,0-.52.24,3.74,3.74,0,0,0-1,2.43A11.47,11.47,0,0,0,85,15.2c0,.79,0,1.26,0,1.41v.21s0,.06,0,.08,0,0,0,0a.22.22,0,0,1-.1.09.21.21,0,0,1-.24,0,.16.16,0,0,1-.07-.07l0-.08v-.26c0-.17,0-.37,0-.62,0-.05,0-.76-.11-2.12q-.14-2.44,0-6.12a.18.18,0,0,1,.07-.15.24.24,0,0,1,.16-.07.22.22,0,0,1,.16.07A.29.29,0,0,1,84.82,7.76Z"/><path class="cls-2" d="M92.3,11A1,1,0,0,0,91,11a4.42,4.42,0,0,0-1.25,1.63,6,6,0,0,0-.62,2.15c0,.7.08,1.16.41,1.39a.63.63,0,0,0,.85,0,3.51,3.51,0,0,0,.83-1.27,16.23,16.23,0,0,0,.63-1.68c.23-.72.35-1.1.38-1.14V12a1,1,0,0,1,0-.2.28.28,0,0,1,.29-.15.22.22,0,0,1,.18.13.1.1,0,0,1,0,.08s0,0,0,.08,0,.12,0,.23c0,.35,0,.67,0,1s0,.4,0,.7,0,.6,0,.78a17.09,17.09,0,0,0,.24,2.06.22.22,0,0,1,0,.17.19.19,0,0,1-.14.09.24.24,0,0,1-.28-.18c-.09-.51-.17-1.22-.24-2.11l0-.78c0-.33,0-.57,0-.7v0l-.09.3a16.31,16.31,0,0,1-.65,1.73,3.82,3.82,0,0,1-1,1.42,1.07,1.07,0,0,1-1.44.06,1.92,1.92,0,0,1-.58-1.8,6.46,6.46,0,0,1,.67-2.32,4.8,4.8,0,0,1,1.41-1.8,1.36,1.36,0,0,1,1.8,0,.24.24,0,0,1,.09.15.22.22,0,0,1,0,.17.26.26,0,0,1-.16.09A.19.19,0,0,1,92.3,11Z"/><path class="cls-2" d="M93.75,16.54v-.32a.43.43,0,0,1,0,0h0v0h0v-1.3c0-.41,0-.73,0-1,0-.45,0-1.15,0-2.11a.18.18,0,0,1,.07-.15.25.25,0,0,1,.17-.06.21.21,0,0,1,.16.07.24.24,0,0,1,.06.17c0,.62,0,1.07,0,1.35l0-.07a4.28,4.28,0,0,1,2.25-2.75.22.22,0,0,1,.16,0,.25.25,0,0,1,.13.12.2.2,0,0,1,0,.17.22.22,0,0,1-.12.13,3.82,3.82,0,0,0-2,2.48,11.27,11.27,0,0,0-.45,3.23h0v.18h0v0h0s0,0,0,0a.12.12,0,0,1,0,.09.21.21,0,0,1-.16.08.2.2,0,0,1-.19-.08.12.12,0,0,1,0-.09s0,0,0,0v-.11Z"/><path class="cls-2" d="M100.53,11a1,1,0,0,0-1.26,0A4.32,4.32,0,0,0,98,12.67a5.86,5.86,0,0,0-.63,2.15c0,.7.09,1.16.41,1.39a.64.64,0,0,0,.86,0,3.51,3.51,0,0,0,.83-1.27c.19-.44.4-1,.62-1.68s.36-1.1.39-1.14V12a.59.59,0,0,1,0-.2.28.28,0,0,1,.29-.15.22.22,0,0,1,.18.13.1.1,0,0,1,0,.08.54.54,0,0,1,0,.08,1.29,1.29,0,0,1,0,.23c0,.35,0,.67,0,1s0,.4,0,.7,0,.6,0,.78a17.09,17.09,0,0,0,.24,2.06.27.27,0,0,1,0,.17.2.2,0,0,1-.15.09.25.25,0,0,1-.17,0,.27.27,0,0,1-.1-.15,20.32,20.32,0,0,1-.24-2.11l0-.78c0-.33,0-.57,0-.7v0l-.09.3c-.23.7-.45,1.28-.65,1.73a3.94,3.94,0,0,1-1,1.42,1.06,1.06,0,0,1-1.43.06,1.92,1.92,0,0,1-.59-1.8,6.48,6.48,0,0,1,.68-2.32A4.8,4.8,0,0,1,99,10.67a1.36,1.36,0,0,1,1.8,0,.24.24,0,0,1,.09.15.22.22,0,0,1-.06.17.24.24,0,0,1-.15.09A.23.23,0,0,1,100.53,11Z"/><path class="cls-2" d="M102.32,13.25a8.39,8.39,0,0,1,.82-1.78,2.71,2.71,0,0,1,.89-.94,1,1,0,0,1,1.18.11,2.14,2.14,0,0,1,.62,1.18,9.07,9.07,0,0,1,.23,1.67c0,.34,0,.71,0,1.1s0,.79,0,1.21,0,.66,0,.76a.24.24,0,0,1-.23.23.24.24,0,0,1-.16-.07.21.21,0,0,1-.07-.16c0-.1,0-.35,0-.76s0-.8,0-1.19,0-.74,0-1.09a9.34,9.34,0,0,0-.21-1.59,1.85,1.85,0,0,0-.46-.93.57.57,0,0,0-.68-.06,2.08,2.08,0,0,0-.71.79,6.07,6.07,0,0,0-.55,1.08,8,8,0,0,0-.35,1c0,.17-.08.35-.11.53a4.44,4.44,0,0,0-.08.59c0,.22,0,.39,0,.52a5.84,5.84,0,0,0,0,.6c0,.28,0,.47,0,.56a.19.19,0,0,1,0,.08v0a.09.09,0,0,0,0,0,.22.22,0,0,1-.18.13.2.2,0,0,1-.23-.13l0,0s0,0,0,0V14.76c0-1.84,0-3.07-.07-3.72a.19.19,0,0,1,0-.16.23.23,0,0,1,.16-.08.18.18,0,0,1,.16,0,.26.26,0,0,1,.09.16C102.3,11.62,102.32,12.36,102.32,13.25Z"/></g></g></svg>